<mxfile host="Electron" modified="2024-12-07T12:55:39.292Z" agent="Mozilla/5.0 (Windows NT 10.0; Win64; x64) AppleWebKit/537.36 (KHTML, like Gecko) draw.io/23.1.5 Chrome/120.0.6099.109 Electron/28.1.0 Safari/537.36" etag="-4CCF07pDSqe-iCRv3mS" version="23.1.5" type="device" pages="5">
  <diagram name="Page-1" id="t0kiFOTwuyHRBZ4o-PyU">
    <mxGraphModel dx="683" dy="398" grid="1" gridSize="10" guides="1" tooltips="1" connect="1" arrows="1" fold="1" page="1" pageScale="1" pageWidth="827" pageHeight="1169" math="0" shadow="0">
      <root>
        <mxCell id="0" />
        <mxCell id="1" parent="0" />
        <mxCell id="XzRUgf8EuYOdZqmxd_Rb-7" style="edgeStyle=orthogonalEdgeStyle;rounded=0;orthogonalLoop=1;jettySize=auto;html=1;entryX=0;entryY=0.5;entryDx=0;entryDy=0;exitX=1;exitY=0.5;exitDx=0;exitDy=0;startArrow=classic;startFill=1;" parent="1" source="XzRUgf8EuYOdZqmxd_Rb-1" target="XzRUgf8EuYOdZqmxd_Rb-5" edge="1">
          <mxGeometry relative="1" as="geometry">
            <mxPoint x="380" y="180" as="sourcePoint" />
          </mxGeometry>
        </mxCell>
        <mxCell id="XzRUgf8EuYOdZqmxd_Rb-1" value="Voltage protection" style="rounded=0;whiteSpace=wrap;html=1;fillColor=#d0cee2;strokeColor=#56517e;" parent="1" vertex="1">
          <mxGeometry x="280" y="160" width="120" height="40" as="geometry" />
        </mxCell>
        <mxCell id="XzRUgf8EuYOdZqmxd_Rb-8" style="edgeStyle=orthogonalEdgeStyle;rounded=0;orthogonalLoop=1;jettySize=auto;html=1;exitX=1;exitY=0.5;exitDx=0;exitDy=0;entryX=0;entryY=0.5;entryDx=0;entryDy=0;" parent="1" source="XzRUgf8EuYOdZqmxd_Rb-2" target="XzRUgf8EuYOdZqmxd_Rb-6" edge="1">
          <mxGeometry relative="1" as="geometry" />
        </mxCell>
        <mxCell id="XzRUgf8EuYOdZqmxd_Rb-22" style="edgeStyle=orthogonalEdgeStyle;rounded=0;orthogonalLoop=1;jettySize=auto;html=1;exitX=0;exitY=0.5;exitDx=0;exitDy=0;endArrow=oval;endFill=1;" parent="1" source="XzRUgf8EuYOdZqmxd_Rb-2" edge="1">
          <mxGeometry relative="1" as="geometry">
            <mxPoint x="430" y="180" as="targetPoint" />
          </mxGeometry>
        </mxCell>
        <mxCell id="XzRUgf8EuYOdZqmxd_Rb-2" value="Edge detector" style="rounded=0;whiteSpace=wrap;html=1;fillColor=#d0cee2;strokeColor=#56517e;" parent="1" vertex="1">
          <mxGeometry x="450" y="240" width="120" height="40" as="geometry" />
        </mxCell>
        <mxCell id="XzRUgf8EuYOdZqmxd_Rb-12" style="edgeStyle=orthogonalEdgeStyle;rounded=0;orthogonalLoop=1;jettySize=auto;html=1;exitX=0.5;exitY=1;exitDx=0;exitDy=0;entryX=0.5;entryY=1;entryDx=0;entryDy=0;" parent="1" source="XzRUgf8EuYOdZqmxd_Rb-4" target="XzRUgf8EuYOdZqmxd_Rb-11" edge="1">
          <mxGeometry relative="1" as="geometry" />
        </mxCell>
        <mxCell id="XzRUgf8EuYOdZqmxd_Rb-4" value="MCU" style="rounded=0;whiteSpace=wrap;html=1;align=right;spacing=15;fillColor=#b1ddf0;strokeColor=#10739e;" parent="1" vertex="1">
          <mxGeometry x="640" y="120" width="120" height="160" as="geometry" />
        </mxCell>
        <mxCell id="XzRUgf8EuYOdZqmxd_Rb-5" value="GPIO" style="rounded=0;whiteSpace=wrap;html=1;" parent="1" vertex="1">
          <mxGeometry x="610" y="170" width="50" height="20" as="geometry" />
        </mxCell>
        <mxCell id="XzRUgf8EuYOdZqmxd_Rb-6" value="HRTIM" style="rounded=0;whiteSpace=wrap;html=1;" parent="1" vertex="1">
          <mxGeometry x="610" y="250" width="50" height="20" as="geometry" />
        </mxCell>
        <mxCell id="XzRUgf8EuYOdZqmxd_Rb-11" value="ENABLE" style="rounded=0;whiteSpace=wrap;html=1;" parent="1" vertex="1">
          <mxGeometry x="485" y="270" width="50" height="20" as="geometry" />
        </mxCell>
        <mxCell id="XzRUgf8EuYOdZqmxd_Rb-14" value="" style="edgeStyle=orthogonalEdgeStyle;rounded=0;orthogonalLoop=1;jettySize=auto;html=1;exitX=1;exitY=0.5;exitDx=0;exitDy=0;startArrow=classic;startFill=1;" parent="1" source="XzRUgf8EuYOdZqmxd_Rb-21" target="XzRUgf8EuYOdZqmxd_Rb-1" edge="1">
          <mxGeometry relative="1" as="geometry">
            <mxPoint x="260" y="180" as="sourcePoint" />
          </mxGeometry>
        </mxCell>
        <mxCell id="XzRUgf8EuYOdZqmxd_Rb-17" value="ETH" style="rounded=0;whiteSpace=wrap;html=1;" parent="1" vertex="1">
          <mxGeometry x="675" y="110" width="50" height="20" as="geometry" />
        </mxCell>
        <mxCell id="XzRUgf8EuYOdZqmxd_Rb-19" value="" style="edgeStyle=orthogonalEdgeStyle;rounded=0;orthogonalLoop=1;jettySize=auto;html=1;startArrow=classic;startFill=1;" parent="1" source="XzRUgf8EuYOdZqmxd_Rb-18" target="XzRUgf8EuYOdZqmxd_Rb-17" edge="1">
          <mxGeometry relative="1" as="geometry" />
        </mxCell>
        <mxCell id="XzRUgf8EuYOdZqmxd_Rb-18" value="PC" style="shape=hexagon;perimeter=hexagonPerimeter2;whiteSpace=wrap;html=1;fixedSize=1;fillColor=#b0e3e6;strokeColor=#0e8088;" parent="1" vertex="1">
          <mxGeometry x="660" y="50" width="80" height="30" as="geometry" />
        </mxCell>
        <mxCell id="XzRUgf8EuYOdZqmxd_Rb-39" style="edgeStyle=orthogonalEdgeStyle;rounded=0;orthogonalLoop=1;jettySize=auto;html=1;exitX=1;exitY=0.5;exitDx=0;exitDy=0;entryX=0;entryY=0.5;entryDx=0;entryDy=0;" parent="1" source="XzRUgf8EuYOdZqmxd_Rb-20" target="XzRUgf8EuYOdZqmxd_Rb-32" edge="1">
          <mxGeometry relative="1" as="geometry" />
        </mxCell>
        <mxCell id="XzRUgf8EuYOdZqmxd_Rb-20" value="Differential to TTL" style="rounded=0;whiteSpace=wrap;html=1;fillColor=#d0cee2;strokeColor=#56517e;" parent="1" vertex="1">
          <mxGeometry x="300" y="460" width="120" height="40" as="geometry" />
        </mxCell>
        <mxCell id="XzRUgf8EuYOdZqmxd_Rb-21" value="TTL IO" style="shape=hexagon;perimeter=hexagonPerimeter2;whiteSpace=wrap;html=1;fixedSize=1;fillColor=#fad7ac;strokeColor=#b46504;" parent="1" vertex="1">
          <mxGeometry x="160" y="165" width="80" height="30" as="geometry" />
        </mxCell>
        <mxCell id="XzRUgf8EuYOdZqmxd_Rb-26" value="" style="edgeStyle=orthogonalEdgeStyle;rounded=0;orthogonalLoop=1;jettySize=auto;html=1;startArrow=classic;startFill=1;" parent="1" source="XzRUgf8EuYOdZqmxd_Rb-23" target="XzRUgf8EuYOdZqmxd_Rb-20" edge="1">
          <mxGeometry relative="1" as="geometry" />
        </mxCell>
        <mxCell id="XzRUgf8EuYOdZqmxd_Rb-23" value="Voltage protection" style="rounded=0;whiteSpace=wrap;html=1;fillColor=#d0cee2;strokeColor=#56517e;" parent="1" vertex="1">
          <mxGeometry x="160" y="460" width="120" height="40" as="geometry" />
        </mxCell>
        <mxCell id="XzRUgf8EuYOdZqmxd_Rb-25" value="" style="edgeStyle=orthogonalEdgeStyle;rounded=0;orthogonalLoop=1;jettySize=auto;html=1;startArrow=classic;startFill=1;" parent="1" target="XzRUgf8EuYOdZqmxd_Rb-23" edge="1">
          <mxGeometry relative="1" as="geometry">
            <mxPoint x="140" y="480" as="sourcePoint" />
          </mxGeometry>
        </mxCell>
        <mxCell id="XzRUgf8EuYOdZqmxd_Rb-27" style="edgeStyle=orthogonalEdgeStyle;rounded=0;orthogonalLoop=1;jettySize=auto;html=1;exitX=1;exitY=0.5;exitDx=0;exitDy=0;entryX=0;entryY=0.5;entryDx=0;entryDy=0;" parent="1" source="XzRUgf8EuYOdZqmxd_Rb-29" target="XzRUgf8EuYOdZqmxd_Rb-33" edge="1">
          <mxGeometry relative="1" as="geometry" />
        </mxCell>
        <mxCell id="XzRUgf8EuYOdZqmxd_Rb-28" style="edgeStyle=orthogonalEdgeStyle;rounded=0;orthogonalLoop=1;jettySize=auto;html=1;exitX=0;exitY=0.5;exitDx=0;exitDy=0;endArrow=oval;endFill=1;" parent="1" source="XzRUgf8EuYOdZqmxd_Rb-29" edge="1">
          <mxGeometry relative="1" as="geometry">
            <mxPoint x="440" y="480" as="targetPoint" />
          </mxGeometry>
        </mxCell>
        <mxCell id="XzRUgf8EuYOdZqmxd_Rb-29" value="Edge detector" style="rounded=0;whiteSpace=wrap;html=1;fillColor=#d0cee2;strokeColor=#56517e;" parent="1" vertex="1">
          <mxGeometry x="460" y="540" width="120" height="40" as="geometry" />
        </mxCell>
        <mxCell id="XzRUgf8EuYOdZqmxd_Rb-30" style="edgeStyle=orthogonalEdgeStyle;rounded=0;orthogonalLoop=1;jettySize=auto;html=1;exitX=0.5;exitY=1;exitDx=0;exitDy=0;entryX=0.5;entryY=1;entryDx=0;entryDy=0;" parent="1" source="XzRUgf8EuYOdZqmxd_Rb-31" target="XzRUgf8EuYOdZqmxd_Rb-34" edge="1">
          <mxGeometry relative="1" as="geometry" />
        </mxCell>
        <mxCell id="5LQTaEKxyz75vK1leVME-3" style="edgeStyle=orthogonalEdgeStyle;rounded=0;orthogonalLoop=1;jettySize=auto;html=1;exitX=0.5;exitY=1;exitDx=0;exitDy=0;entryX=0.5;entryY=1;entryDx=0;entryDy=0;" parent="1" source="XzRUgf8EuYOdZqmxd_Rb-31" target="5LQTaEKxyz75vK1leVME-2" edge="1">
          <mxGeometry relative="1" as="geometry">
            <Array as="points">
              <mxPoint x="710" y="610" />
              <mxPoint x="360" y="610" />
            </Array>
          </mxGeometry>
        </mxCell>
        <mxCell id="XzRUgf8EuYOdZqmxd_Rb-31" value="MCU" style="rounded=0;whiteSpace=wrap;html=1;align=right;spacing=15;fillColor=#b1ddf0;strokeColor=#10739e;" parent="1" vertex="1">
          <mxGeometry x="650" y="420" width="120" height="160" as="geometry" />
        </mxCell>
        <mxCell id="XzRUgf8EuYOdZqmxd_Rb-32" value="GPIO" style="rounded=0;whiteSpace=wrap;html=1;" parent="1" vertex="1">
          <mxGeometry x="620" y="470" width="50" height="20" as="geometry" />
        </mxCell>
        <mxCell id="XzRUgf8EuYOdZqmxd_Rb-33" value="HRTIM" style="rounded=0;whiteSpace=wrap;html=1;" parent="1" vertex="1">
          <mxGeometry x="620" y="550" width="50" height="20" as="geometry" />
        </mxCell>
        <mxCell id="XzRUgf8EuYOdZqmxd_Rb-34" value="ENABLE" style="rounded=0;whiteSpace=wrap;html=1;" parent="1" vertex="1">
          <mxGeometry x="495" y="570" width="50" height="20" as="geometry" />
        </mxCell>
        <mxCell id="XzRUgf8EuYOdZqmxd_Rb-35" value="ETH" style="rounded=0;whiteSpace=wrap;html=1;" parent="1" vertex="1">
          <mxGeometry x="685" y="410" width="50" height="20" as="geometry" />
        </mxCell>
        <mxCell id="XzRUgf8EuYOdZqmxd_Rb-36" value="" style="edgeStyle=orthogonalEdgeStyle;rounded=0;orthogonalLoop=1;jettySize=auto;html=1;startArrow=classic;startFill=1;" parent="1" source="XzRUgf8EuYOdZqmxd_Rb-37" target="XzRUgf8EuYOdZqmxd_Rb-35" edge="1">
          <mxGeometry relative="1" as="geometry" />
        </mxCell>
        <mxCell id="XzRUgf8EuYOdZqmxd_Rb-37" value="PC" style="shape=hexagon;perimeter=hexagonPerimeter2;whiteSpace=wrap;html=1;fixedSize=1;fillColor=#b0e3e6;strokeColor=#0e8088;" parent="1" vertex="1">
          <mxGeometry x="670" y="350" width="80" height="30" as="geometry" />
        </mxCell>
        <mxCell id="5LQTaEKxyz75vK1leVME-1" value="LVDS IO" style="shape=hexagon;perimeter=hexagonPerimeter2;whiteSpace=wrap;html=1;fixedSize=1;fillColor=#fad7ac;strokeColor=#b46504;" parent="1" vertex="1">
          <mxGeometry x="60" y="465" width="80" height="30" as="geometry" />
        </mxCell>
        <mxCell id="5LQTaEKxyz75vK1leVME-2" value="DIR" style="rounded=0;whiteSpace=wrap;html=1;" parent="1" vertex="1">
          <mxGeometry x="335" y="495" width="50" height="20" as="geometry" />
        </mxCell>
        <mxCell id="eacmZR8pIaefhJ8nAjMA-1" value="Fine Counter" style="rounded=0;whiteSpace=wrap;html=1;fillColor=#dae8fc;strokeColor=#6c8ebf;" parent="1" vertex="1">
          <mxGeometry x="520" y="800" width="80" height="40" as="geometry" />
        </mxCell>
        <mxCell id="eacmZR8pIaefhJ8nAjMA-2" value="Coarse Counter" style="rounded=0;whiteSpace=wrap;html=1;fillColor=#ffe6cc;strokeColor=#d79b00;" parent="1" vertex="1">
          <mxGeometry x="199" y="800" width="320" height="40" as="geometry" />
        </mxCell>
        <mxCell id="eacmZR8pIaefhJ8nAjMA-3" value="0" style="text;html=1;align=right;verticalAlign=middle;whiteSpace=wrap;rounded=0;" parent="1" vertex="1">
          <mxGeometry x="580" y="770" width="20" height="30" as="geometry" />
        </mxCell>
        <mxCell id="eacmZR8pIaefhJ8nAjMA-4" value="15" style="text;html=1;align=left;verticalAlign=middle;whiteSpace=wrap;rounded=0;" parent="1" vertex="1">
          <mxGeometry x="520" y="770" width="20" height="30" as="geometry" />
        </mxCell>
        <mxCell id="eacmZR8pIaefhJ8nAjMA-5" value="16" style="text;html=1;align=right;verticalAlign=middle;whiteSpace=wrap;rounded=0;" parent="1" vertex="1">
          <mxGeometry x="500" y="770" width="20" height="30" as="geometry" />
        </mxCell>
        <mxCell id="eacmZR8pIaefhJ8nAjMA-6" value="79" style="text;html=1;align=left;verticalAlign=middle;whiteSpace=wrap;rounded=0;" parent="1" vertex="1">
          <mxGeometry x="200" y="770" width="25" height="30" as="geometry" />
        </mxCell>
        <mxCell id="eacmZR8pIaefhJ8nAjMA-31" value="" style="endArrow=none;html=1;rounded=0;" parent="1" edge="1">
          <mxGeometry width="50" height="50" relative="1" as="geometry">
            <mxPoint x="160" y="960" as="sourcePoint" />
            <mxPoint x="200" y="960" as="targetPoint" />
            <Array as="points">
              <mxPoint x="180" y="960" />
              <mxPoint x="180" y="920" />
              <mxPoint x="200" y="920" />
            </Array>
          </mxGeometry>
        </mxCell>
        <mxCell id="eacmZR8pIaefhJ8nAjMA-32" value="" style="endArrow=none;html=1;rounded=0;" parent="1" edge="1">
          <mxGeometry width="50" height="50" relative="1" as="geometry">
            <mxPoint x="200" y="960" as="sourcePoint" />
            <mxPoint x="240" y="960" as="targetPoint" />
            <Array as="points">
              <mxPoint x="220" y="960" />
              <mxPoint x="220" y="920" />
              <mxPoint x="240" y="920" />
            </Array>
          </mxGeometry>
        </mxCell>
        <mxCell id="eacmZR8pIaefhJ8nAjMA-35" value="" style="endArrow=none;html=1;rounded=0;" parent="1" edge="1">
          <mxGeometry width="50" height="50" relative="1" as="geometry">
            <mxPoint x="240" y="960" as="sourcePoint" />
            <mxPoint x="280" y="960" as="targetPoint" />
            <Array as="points">
              <mxPoint x="260" y="960" />
              <mxPoint x="260" y="920" />
              <mxPoint x="280" y="920" />
            </Array>
          </mxGeometry>
        </mxCell>
        <mxCell id="eacmZR8pIaefhJ8nAjMA-36" value="" style="endArrow=none;html=1;rounded=0;" parent="1" edge="1">
          <mxGeometry width="50" height="50" relative="1" as="geometry">
            <mxPoint x="280" y="960" as="sourcePoint" />
            <mxPoint x="320" y="960" as="targetPoint" />
            <Array as="points">
              <mxPoint x="300" y="960" />
              <mxPoint x="300" y="920" />
              <mxPoint x="320" y="920" />
            </Array>
          </mxGeometry>
        </mxCell>
        <mxCell id="eacmZR8pIaefhJ8nAjMA-45" value="" style="endArrow=none;html=1;rounded=0;" parent="1" edge="1">
          <mxGeometry width="50" height="50" relative="1" as="geometry">
            <mxPoint x="320" y="960" as="sourcePoint" />
            <mxPoint x="360" y="960" as="targetPoint" />
            <Array as="points">
              <mxPoint x="340" y="960" />
              <mxPoint x="340" y="920" />
              <mxPoint x="360" y="920" />
            </Array>
          </mxGeometry>
        </mxCell>
        <mxCell id="eacmZR8pIaefhJ8nAjMA-46" value="" style="endArrow=none;html=1;rounded=0;" parent="1" edge="1">
          <mxGeometry width="50" height="50" relative="1" as="geometry">
            <mxPoint x="360" y="960" as="sourcePoint" />
            <mxPoint x="400" y="960" as="targetPoint" />
            <Array as="points">
              <mxPoint x="380" y="960" />
              <mxPoint x="380" y="920" />
              <mxPoint x="400" y="920" />
            </Array>
          </mxGeometry>
        </mxCell>
        <mxCell id="eacmZR8pIaefhJ8nAjMA-47" value="" style="endArrow=none;html=1;rounded=0;" parent="1" edge="1">
          <mxGeometry width="50" height="50" relative="1" as="geometry">
            <mxPoint x="400" y="960" as="sourcePoint" />
            <mxPoint x="440" y="960" as="targetPoint" />
            <Array as="points">
              <mxPoint x="420" y="960" />
              <mxPoint x="420" y="920" />
              <mxPoint x="440" y="920" />
            </Array>
          </mxGeometry>
        </mxCell>
        <mxCell id="eacmZR8pIaefhJ8nAjMA-48" value="" style="endArrow=none;html=1;rounded=0;" parent="1" edge="1">
          <mxGeometry width="50" height="50" relative="1" as="geometry">
            <mxPoint x="440" y="960" as="sourcePoint" />
            <mxPoint x="480" y="960" as="targetPoint" />
            <Array as="points">
              <mxPoint x="460" y="960" />
              <mxPoint x="460" y="920" />
              <mxPoint x="480" y="920" />
            </Array>
          </mxGeometry>
        </mxCell>
        <mxCell id="eacmZR8pIaefhJ8nAjMA-49" value="" style="endArrow=none;html=1;rounded=0;" parent="1" edge="1">
          <mxGeometry width="50" height="50" relative="1" as="geometry">
            <mxPoint x="480" y="960" as="sourcePoint" />
            <mxPoint x="520" y="960" as="targetPoint" />
            <Array as="points">
              <mxPoint x="500" y="960" />
              <mxPoint x="500" y="920" />
              <mxPoint x="520" y="920" />
            </Array>
          </mxGeometry>
        </mxCell>
        <mxCell id="eacmZR8pIaefhJ8nAjMA-50" value="" style="endArrow=none;html=1;rounded=0;" parent="1" edge="1">
          <mxGeometry width="50" height="50" relative="1" as="geometry">
            <mxPoint x="520" y="960" as="sourcePoint" />
            <mxPoint x="560" y="960" as="targetPoint" />
            <Array as="points">
              <mxPoint x="540" y="960" />
              <mxPoint x="540" y="920" />
              <mxPoint x="560" y="920" />
            </Array>
          </mxGeometry>
        </mxCell>
        <mxCell id="eacmZR8pIaefhJ8nAjMA-51" value="" style="endArrow=none;html=1;rounded=0;" parent="1" edge="1">
          <mxGeometry width="50" height="50" relative="1" as="geometry">
            <mxPoint x="560" y="960" as="sourcePoint" />
            <mxPoint x="600" y="960" as="targetPoint" />
            <Array as="points">
              <mxPoint x="580" y="960" />
              <mxPoint x="580" y="920" />
              <mxPoint x="600" y="920" />
            </Array>
          </mxGeometry>
        </mxCell>
        <mxCell id="eacmZR8pIaefhJ8nAjMA-52" value="" style="endArrow=none;html=1;rounded=0;" parent="1" edge="1">
          <mxGeometry width="50" height="50" relative="1" as="geometry">
            <mxPoint x="600" y="960" as="sourcePoint" />
            <mxPoint x="640" y="960" as="targetPoint" />
            <Array as="points">
              <mxPoint x="620" y="960" />
              <mxPoint x="620" y="920" />
              <mxPoint x="640" y="920" />
            </Array>
          </mxGeometry>
        </mxCell>
        <mxCell id="eacmZR8pIaefhJ8nAjMA-53" value="" style="endArrow=none;html=1;rounded=0;" parent="1" edge="1">
          <mxGeometry width="50" height="50" relative="1" as="geometry">
            <mxPoint x="640" y="960" as="sourcePoint" />
            <mxPoint x="680" y="960" as="targetPoint" />
            <Array as="points">
              <mxPoint x="660" y="960" />
              <mxPoint x="660" y="920" />
              <mxPoint x="680" y="920" />
            </Array>
          </mxGeometry>
        </mxCell>
        <mxCell id="eacmZR8pIaefhJ8nAjMA-54" value="" style="endArrow=none;html=1;rounded=0;" parent="1" edge="1">
          <mxGeometry width="50" height="50" relative="1" as="geometry">
            <mxPoint x="680" y="960" as="sourcePoint" />
            <mxPoint x="720" y="960" as="targetPoint" />
            <Array as="points">
              <mxPoint x="700" y="960" />
              <mxPoint x="700" y="920" />
              <mxPoint x="720" y="920" />
            </Array>
          </mxGeometry>
        </mxCell>
        <mxCell id="eacmZR8pIaefhJ8nAjMA-55" value="" style="endArrow=none;html=1;rounded=0;" parent="1" edge="1">
          <mxGeometry width="50" height="50" relative="1" as="geometry">
            <mxPoint x="720" y="960" as="sourcePoint" />
            <mxPoint x="760" y="960" as="targetPoint" />
            <Array as="points">
              <mxPoint x="740" y="960" />
              <mxPoint x="740" y="920" />
              <mxPoint x="760" y="920" />
            </Array>
          </mxGeometry>
        </mxCell>
        <mxCell id="eacmZR8pIaefhJ8nAjMA-56" value="" style="endArrow=none;html=1;rounded=0;" parent="1" edge="1">
          <mxGeometry width="50" height="50" relative="1" as="geometry">
            <mxPoint x="760" y="960" as="sourcePoint" />
            <mxPoint x="800" y="960" as="targetPoint" />
            <Array as="points">
              <mxPoint x="780" y="960" />
              <mxPoint x="780" y="920" />
              <mxPoint x="800" y="920" />
            </Array>
          </mxGeometry>
        </mxCell>
        <mxCell id="eacmZR8pIaefhJ8nAjMA-57" value="" style="endArrow=none;html=1;rounded=0;" parent="1" edge="1">
          <mxGeometry width="50" height="50" relative="1" as="geometry">
            <mxPoint x="160" y="1080" as="sourcePoint" />
            <mxPoint x="201" y="1080" as="targetPoint" />
            <Array as="points">
              <mxPoint x="181" y="1080" />
              <mxPoint x="181" y="1040" />
              <mxPoint x="201" y="1040" />
            </Array>
          </mxGeometry>
        </mxCell>
        <mxCell id="eacmZR8pIaefhJ8nAjMA-59" value="" style="endArrow=none;html=1;rounded=0;" parent="1" edge="1">
          <mxGeometry width="50" height="50" relative="1" as="geometry">
            <mxPoint x="201" y="1080" as="sourcePoint" />
            <mxPoint x="242" y="1080" as="targetPoint" />
            <Array as="points">
              <mxPoint x="222" y="1080" />
              <mxPoint x="222" y="1040" />
              <mxPoint x="242" y="1040" />
            </Array>
          </mxGeometry>
        </mxCell>
        <mxCell id="eacmZR8pIaefhJ8nAjMA-60" value="" style="endArrow=none;html=1;rounded=0;" parent="1" edge="1">
          <mxGeometry width="50" height="50" relative="1" as="geometry">
            <mxPoint x="242" y="1080" as="sourcePoint" />
            <mxPoint x="283" y="1080" as="targetPoint" />
            <Array as="points">
              <mxPoint x="263" y="1080" />
              <mxPoint x="263" y="1040" />
              <mxPoint x="283" y="1040" />
            </Array>
          </mxGeometry>
        </mxCell>
        <mxCell id="eacmZR8pIaefhJ8nAjMA-61" value="" style="endArrow=none;html=1;rounded=0;" parent="1" edge="1">
          <mxGeometry width="50" height="50" relative="1" as="geometry">
            <mxPoint x="283" y="1080" as="sourcePoint" />
            <mxPoint x="324" y="1080" as="targetPoint" />
            <Array as="points">
              <mxPoint x="304" y="1080" />
              <mxPoint x="304" y="1040" />
              <mxPoint x="324" y="1040" />
            </Array>
          </mxGeometry>
        </mxCell>
        <mxCell id="eacmZR8pIaefhJ8nAjMA-67" value="" style="endArrow=none;html=1;rounded=0;" parent="1" edge="1">
          <mxGeometry width="50" height="50" relative="1" as="geometry">
            <mxPoint x="324" y="1080" as="sourcePoint" />
            <mxPoint x="365" y="1080" as="targetPoint" />
            <Array as="points">
              <mxPoint x="345" y="1080" />
              <mxPoint x="345" y="1040" />
              <mxPoint x="365" y="1040" />
            </Array>
          </mxGeometry>
        </mxCell>
        <mxCell id="eacmZR8pIaefhJ8nAjMA-68" value="" style="endArrow=none;html=1;rounded=0;" parent="1" edge="1">
          <mxGeometry width="50" height="50" relative="1" as="geometry">
            <mxPoint x="365" y="1080" as="sourcePoint" />
            <mxPoint x="406" y="1080" as="targetPoint" />
            <Array as="points">
              <mxPoint x="386" y="1080" />
              <mxPoint x="386" y="1040" />
              <mxPoint x="406" y="1040" />
            </Array>
          </mxGeometry>
        </mxCell>
        <mxCell id="eacmZR8pIaefhJ8nAjMA-69" value="" style="endArrow=none;html=1;rounded=0;" parent="1" edge="1">
          <mxGeometry width="50" height="50" relative="1" as="geometry">
            <mxPoint x="406" y="1080" as="sourcePoint" />
            <mxPoint x="447" y="1080" as="targetPoint" />
            <Array as="points">
              <mxPoint x="427" y="1080" />
              <mxPoint x="427" y="1040" />
              <mxPoint x="447" y="1040" />
            </Array>
          </mxGeometry>
        </mxCell>
        <mxCell id="eacmZR8pIaefhJ8nAjMA-70" value="" style="endArrow=none;html=1;rounded=0;" parent="1" edge="1">
          <mxGeometry width="50" height="50" relative="1" as="geometry">
            <mxPoint x="447" y="1080" as="sourcePoint" />
            <mxPoint x="488" y="1080" as="targetPoint" />
            <Array as="points">
              <mxPoint x="468" y="1080" />
              <mxPoint x="468" y="1040" />
              <mxPoint x="488" y="1040" />
            </Array>
          </mxGeometry>
        </mxCell>
        <mxCell id="5td4NCO1deEv5K7Asfv4-1" value="0" style="text;html=1;align=center;verticalAlign=middle;whiteSpace=wrap;rounded=0;strokeColor=default;dashed=1;" parent="1" vertex="1">
          <mxGeometry x="160" y="970" width="40" height="30" as="geometry" />
        </mxCell>
        <mxCell id="5td4NCO1deEv5K7Asfv4-7" value="1" style="text;html=1;align=center;verticalAlign=middle;whiteSpace=wrap;rounded=0;strokeColor=default;dashed=1;" parent="1" vertex="1">
          <mxGeometry x="199" y="970" width="40" height="30" as="geometry" />
        </mxCell>
        <mxCell id="5td4NCO1deEv5K7Asfv4-9" value="2" style="text;html=1;align=center;verticalAlign=middle;whiteSpace=wrap;rounded=0;strokeColor=default;dashed=1;" parent="1" vertex="1">
          <mxGeometry x="240" y="970" width="40" height="30" as="geometry" />
        </mxCell>
        <mxCell id="5td4NCO1deEv5K7Asfv4-10" value="3" style="text;html=1;align=center;verticalAlign=middle;whiteSpace=wrap;rounded=0;strokeColor=default;dashed=1;" parent="1" vertex="1">
          <mxGeometry x="279" y="970" width="40" height="30" as="geometry" />
        </mxCell>
        <mxCell id="5td4NCO1deEv5K7Asfv4-11" value="4" style="text;html=1;align=center;verticalAlign=middle;whiteSpace=wrap;rounded=0;strokeColor=default;dashed=1;" parent="1" vertex="1">
          <mxGeometry x="320" y="970" width="40" height="30" as="geometry" />
        </mxCell>
        <mxCell id="5td4NCO1deEv5K7Asfv4-12" value="5" style="text;html=1;align=center;verticalAlign=middle;whiteSpace=wrap;rounded=0;strokeColor=default;dashed=1;" parent="1" vertex="1">
          <mxGeometry x="359" y="970" width="40" height="30" as="geometry" />
        </mxCell>
        <mxCell id="5td4NCO1deEv5K7Asfv4-13" value="6" style="text;html=1;align=center;verticalAlign=middle;whiteSpace=wrap;rounded=0;strokeColor=default;dashed=1;" parent="1" vertex="1">
          <mxGeometry x="400" y="970" width="40" height="30" as="geometry" />
        </mxCell>
        <mxCell id="5td4NCO1deEv5K7Asfv4-14" value="7" style="text;html=1;align=center;verticalAlign=middle;whiteSpace=wrap;rounded=0;strokeColor=default;dashed=1;" parent="1" vertex="1">
          <mxGeometry x="439" y="970" width="40" height="30" as="geometry" />
        </mxCell>
        <mxCell id="5td4NCO1deEv5K7Asfv4-23" value="0" style="text;html=1;align=center;verticalAlign=middle;whiteSpace=wrap;rounded=0;strokeColor=default;dashed=1;" parent="1" vertex="1">
          <mxGeometry x="160" y="1090" width="41" height="30" as="geometry" />
        </mxCell>
        <mxCell id="5td4NCO1deEv5K7Asfv4-24" value="1" style="text;html=1;align=center;verticalAlign=middle;whiteSpace=wrap;rounded=0;strokeColor=default;dashed=1;" parent="1" vertex="1">
          <mxGeometry x="201" y="1090" width="41" height="30" as="geometry" />
        </mxCell>
      </root>
    </mxGraphModel>
  </diagram>
  <diagram id="Ymfwn5sJlkyAKmGGsLW2" name="EdgeDetector">
    <mxGraphModel dx="1434" dy="836" grid="1" gridSize="10" guides="1" tooltips="1" connect="1" arrows="1" fold="1" page="1" pageScale="1" pageWidth="827" pageHeight="1169" math="0" shadow="0">
      <root>
        <mxCell id="0" />
        <mxCell id="1" parent="0" />
        <mxCell id="m70F2piCxLNMXmZ6qfrn-1" value="" style="rounded=0;whiteSpace=wrap;html=1;" parent="1" vertex="1">
          <mxGeometry x="320" y="80" width="80" height="120" as="geometry" />
        </mxCell>
        <mxCell id="m70F2piCxLNMXmZ6qfrn-2" value="D" style="text;html=1;align=center;verticalAlign=middle;whiteSpace=wrap;rounded=0;" parent="1" vertex="1">
          <mxGeometry x="320" y="100" width="30" height="30" as="geometry" />
        </mxCell>
        <mxCell id="m70F2piCxLNMXmZ6qfrn-3" value="Ck" style="text;html=1;align=center;verticalAlign=middle;whiteSpace=wrap;rounded=0;" parent="1" vertex="1">
          <mxGeometry x="320" y="150" width="30" height="30" as="geometry" />
        </mxCell>
        <mxCell id="m70F2piCxLNMXmZ6qfrn-4" value="" style="endArrow=none;html=1;rounded=0;curved=1;" parent="1" edge="1">
          <mxGeometry width="50" height="50" relative="1" as="geometry">
            <mxPoint x="160" y="280" as="sourcePoint" />
            <mxPoint x="160" y="240" as="targetPoint" />
            <Array as="points">
              <mxPoint x="180" y="260" />
            </Array>
          </mxGeometry>
        </mxCell>
        <mxCell id="m70F2piCxLNMXmZ6qfrn-5" value="" style="endArrow=none;html=1;rounded=0;curved=1;" parent="1" edge="1">
          <mxGeometry width="50" height="50" relative="1" as="geometry">
            <mxPoint x="170" y="280" as="sourcePoint" />
            <mxPoint x="170" y="240" as="targetPoint" />
            <Array as="points">
              <mxPoint x="190" y="260" />
            </Array>
          </mxGeometry>
        </mxCell>
        <mxCell id="m70F2piCxLNMXmZ6qfrn-6" value="" style="endArrow=none;html=1;rounded=0;" parent="1" edge="1">
          <mxGeometry width="50" height="50" relative="1" as="geometry">
            <mxPoint x="170" y="240" as="sourcePoint" />
            <mxPoint x="200" y="240" as="targetPoint" />
          </mxGeometry>
        </mxCell>
        <mxCell id="m70F2piCxLNMXmZ6qfrn-7" value="" style="endArrow=none;html=1;rounded=0;" parent="1" edge="1">
          <mxGeometry width="50" height="50" relative="1" as="geometry">
            <mxPoint x="170" y="280" as="sourcePoint" />
            <mxPoint x="200" y="280" as="targetPoint" />
          </mxGeometry>
        </mxCell>
        <mxCell id="m70F2piCxLNMXmZ6qfrn-8" value="" style="endArrow=none;html=1;rounded=0;curved=1;" parent="1" edge="1">
          <mxGeometry width="50" height="50" relative="1" as="geometry">
            <mxPoint x="200" y="240" as="sourcePoint" />
            <mxPoint x="230" y="260" as="targetPoint" />
            <Array as="points">
              <mxPoint x="220" y="240" />
            </Array>
          </mxGeometry>
        </mxCell>
        <mxCell id="m70F2piCxLNMXmZ6qfrn-9" value="" style="endArrow=none;html=1;rounded=0;curved=1;" parent="1" edge="1">
          <mxGeometry width="50" height="50" relative="1" as="geometry">
            <mxPoint x="200" y="280.0000000000001" as="sourcePoint" />
            <mxPoint x="230" y="260" as="targetPoint" />
            <Array as="points">
              <mxPoint x="220" y="280.0000000000001" />
            </Array>
          </mxGeometry>
        </mxCell>
        <mxCell id="m70F2piCxLNMXmZ6qfrn-10" value="" style="endArrow=none;html=1;rounded=0;" parent="1" edge="1">
          <mxGeometry width="50" height="50" relative="1" as="geometry">
            <mxPoint x="30" y="110" as="sourcePoint" />
            <mxPoint x="320" y="110" as="targetPoint" />
          </mxGeometry>
        </mxCell>
        <mxCell id="m70F2piCxLNMXmZ6qfrn-11" value="" style="endArrow=classic;html=1;rounded=0;endFill=1;" parent="1" edge="1">
          <mxGeometry width="50" height="50" relative="1" as="geometry">
            <mxPoint x="230" y="260" as="sourcePoint" />
            <mxPoint x="520" y="260" as="targetPoint" />
          </mxGeometry>
        </mxCell>
        <mxCell id="m70F2piCxLNMXmZ6qfrn-12" value="" style="endArrow=none;html=1;rounded=0;startArrow=oval;startFill=1;" parent="1" edge="1">
          <mxGeometry width="50" height="50" relative="1" as="geometry">
            <mxPoint x="280" y="260" as="sourcePoint" />
            <mxPoint x="320" y="160" as="targetPoint" />
            <Array as="points">
              <mxPoint x="280" y="160" />
            </Array>
          </mxGeometry>
        </mxCell>
        <mxCell id="m70F2piCxLNMXmZ6qfrn-13" value="Q" style="text;html=1;align=center;verticalAlign=middle;whiteSpace=wrap;rounded=0;" parent="1" vertex="1">
          <mxGeometry x="370" y="100" width="30" height="30" as="geometry" />
        </mxCell>
        <mxCell id="m70F2piCxLNMXmZ6qfrn-14" value="" style="endArrow=none;html=1;rounded=0;entryX=1.003;entryY=0.338;entryDx=0;entryDy=0;entryPerimeter=0;" parent="1" target="m70F2piCxLNMXmZ6qfrn-13" edge="1">
          <mxGeometry width="50" height="50" relative="1" as="geometry">
            <mxPoint x="167" y="250" as="sourcePoint" />
            <mxPoint x="410" y="219" as="targetPoint" />
            <Array as="points">
              <mxPoint x="130" y="250" />
              <mxPoint x="130" y="220" />
              <mxPoint x="440" y="220" />
              <mxPoint x="440" y="110" />
            </Array>
          </mxGeometry>
        </mxCell>
        <mxCell id="m70F2piCxLNMXmZ6qfrn-15" value="" style="endArrow=oval;html=1;rounded=0;startArrow=none;startFill=0;endFill=1;" parent="1" edge="1">
          <mxGeometry width="50" height="50" relative="1" as="geometry">
            <mxPoint x="167" y="270" as="sourcePoint" />
            <mxPoint x="90" y="110" as="targetPoint" />
            <Array as="points">
              <mxPoint x="90" y="270" />
            </Array>
          </mxGeometry>
        </mxCell>
        <mxCell id="m70F2piCxLNMXmZ6qfrn-16" value="Input" style="text;html=1;align=center;verticalAlign=middle;whiteSpace=wrap;rounded=0;" parent="1" vertex="1">
          <mxGeometry x="10" y="80" width="60" height="30" as="geometry" />
        </mxCell>
        <mxCell id="m70F2piCxLNMXmZ6qfrn-17" value="" style="endArrow=classic;html=1;rounded=0;endFill=1;" parent="1" edge="1">
          <mxGeometry width="50" height="50" relative="1" as="geometry">
            <mxPoint x="90" y="110" as="sourcePoint" />
            <mxPoint x="520" y="40" as="targetPoint" />
            <Array as="points">
              <mxPoint x="90" y="40" />
            </Array>
          </mxGeometry>
        </mxCell>
        <mxCell id="m70F2piCxLNMXmZ6qfrn-18" value="GPIO_MCU" style="edgeLabel;html=1;align=center;verticalAlign=middle;resizable=0;points=[];" parent="m70F2piCxLNMXmZ6qfrn-17" vertex="1" connectable="0">
          <mxGeometry x="0.9251" y="1" relative="1" as="geometry">
            <mxPoint x="-21" y="-9" as="offset" />
          </mxGeometry>
        </mxCell>
        <mxCell id="m70F2piCxLNMXmZ6qfrn-19" value="HRTIM_TRIGGER" style="edgeLabel;html=1;align=center;verticalAlign=middle;resizable=0;points=[];" parent="m70F2piCxLNMXmZ6qfrn-17" vertex="1" connectable="0">
          <mxGeometry x="0.9251" y="1" relative="1" as="geometry">
            <mxPoint x="-41" y="211" as="offset" />
          </mxGeometry>
        </mxCell>
        <mxCell id="m70F2piCxLNMXmZ6qfrn-20" value="" style="endArrow=none;html=1;rounded=0;" parent="1" edge="1">
          <mxGeometry width="50" height="50" relative="1" as="geometry">
            <mxPoint x="150" y="310" as="sourcePoint" />
            <mxPoint x="230" y="310" as="targetPoint" />
          </mxGeometry>
        </mxCell>
        <mxCell id="m70F2piCxLNMXmZ6qfrn-21" value="" style="endArrow=none;html=1;rounded=0;" parent="1" edge="1">
          <mxGeometry width="50" height="50" relative="1" as="geometry">
            <mxPoint x="200" y="390" as="sourcePoint" />
            <mxPoint x="200" y="290" as="targetPoint" />
          </mxGeometry>
        </mxCell>
        <mxCell id="m70F2piCxLNMXmZ6qfrn-22" value="A" style="text;html=1;align=center;verticalAlign=middle;whiteSpace=wrap;rounded=0;" parent="1" vertex="1">
          <mxGeometry x="150" y="290" width="20" height="20" as="geometry" />
        </mxCell>
        <mxCell id="m70F2piCxLNMXmZ6qfrn-23" value="B" style="text;html=1;align=center;verticalAlign=middle;whiteSpace=wrap;rounded=0;" parent="1" vertex="1">
          <mxGeometry x="170" y="290" width="20" height="20" as="geometry" />
        </mxCell>
        <mxCell id="m70F2piCxLNMXmZ6qfrn-24" value="O" style="text;html=1;align=center;verticalAlign=middle;whiteSpace=wrap;rounded=0;" parent="1" vertex="1">
          <mxGeometry x="210" y="290" width="20" height="20" as="geometry" />
        </mxCell>
        <mxCell id="m70F2piCxLNMXmZ6qfrn-25" value="0&amp;nbsp; &amp;nbsp;0" style="text;html=1;align=center;verticalAlign=middle;whiteSpace=wrap;rounded=0;" parent="1" vertex="1">
          <mxGeometry x="150" y="310" width="40" height="20" as="geometry" />
        </mxCell>
        <mxCell id="m70F2piCxLNMXmZ6qfrn-26" value="0&amp;nbsp; &amp;nbsp;1" style="text;html=1;align=center;verticalAlign=middle;whiteSpace=wrap;rounded=0;" parent="1" vertex="1">
          <mxGeometry x="150" y="330" width="40" height="20" as="geometry" />
        </mxCell>
        <mxCell id="m70F2piCxLNMXmZ6qfrn-27" value="1&amp;nbsp; &amp;nbsp;0" style="text;html=1;align=center;verticalAlign=middle;whiteSpace=wrap;rounded=0;" parent="1" vertex="1">
          <mxGeometry x="150" y="350" width="40" height="20" as="geometry" />
        </mxCell>
        <mxCell id="m70F2piCxLNMXmZ6qfrn-28" value="1&amp;nbsp; &amp;nbsp;1" style="text;html=1;align=center;verticalAlign=middle;whiteSpace=wrap;rounded=0;" parent="1" vertex="1">
          <mxGeometry x="150" y="370" width="40" height="20" as="geometry" />
        </mxCell>
        <mxCell id="m70F2piCxLNMXmZ6qfrn-30" value="0" style="text;html=1;align=center;verticalAlign=middle;whiteSpace=wrap;rounded=0;" parent="1" vertex="1">
          <mxGeometry x="210" y="310" width="20" height="20" as="geometry" />
        </mxCell>
        <mxCell id="m70F2piCxLNMXmZ6qfrn-31" value="1" style="text;html=1;align=center;verticalAlign=middle;whiteSpace=wrap;rounded=0;" parent="1" vertex="1">
          <mxGeometry x="210" y="330" width="20" height="20" as="geometry" />
        </mxCell>
        <mxCell id="m70F2piCxLNMXmZ6qfrn-32" value="1" style="text;html=1;align=center;verticalAlign=middle;whiteSpace=wrap;rounded=0;" parent="1" vertex="1">
          <mxGeometry x="210" y="350" width="20" height="20" as="geometry" />
        </mxCell>
        <mxCell id="m70F2piCxLNMXmZ6qfrn-33" value="0" style="text;html=1;align=center;verticalAlign=middle;whiteSpace=wrap;rounded=0;" parent="1" vertex="1">
          <mxGeometry x="210" y="370" width="20" height="20" as="geometry" />
        </mxCell>
        <mxCell id="cJnieztZgnLazBteY0v8-1" value="1" style="text;html=1;align=center;verticalAlign=middle;whiteSpace=wrap;rounded=0;fontStyle=1;fontColor=#FF0000;" parent="1" vertex="1">
          <mxGeometry x="390" y="80" width="60" height="30" as="geometry" />
        </mxCell>
        <mxCell id="cJnieztZgnLazBteY0v8-2" value="1" style="text;html=1;align=center;verticalAlign=middle;whiteSpace=wrap;rounded=0;fontStyle=1;fontColor=#FF0000;" parent="1" vertex="1">
          <mxGeometry x="10" y="110" width="60" height="30" as="geometry" />
        </mxCell>
        <mxCell id="dmzvHFH3KGQJWPceJqf0-1" value="NOT USED IN THE END" style="text;html=1;align=center;verticalAlign=middle;whiteSpace=wrap;rounded=0;fontSize=23;fontColor=#FF3333;" vertex="1" parent="1">
          <mxGeometry x="470" y="130" width="300" height="50" as="geometry" />
        </mxCell>
      </root>
    </mxGraphModel>
  </diagram>
  <diagram id="9ZBIf6WN9YtODwZ5vz_I" name="Page-3">
    <mxGraphModel dx="1434" dy="836" grid="1" gridSize="10" guides="1" tooltips="1" connect="1" arrows="1" fold="1" page="1" pageScale="1" pageWidth="827" pageHeight="1169" math="0" shadow="0">
      <root>
        <mxCell id="0" />
        <mxCell id="1" parent="0" />
        <mxCell id="9OBBQ55bT3TWZzoy92s4-14" value="DS90LV019" style="rounded=0;whiteSpace=wrap;html=1;fillColor=none;dashed=1;verticalAlign=bottom;movable=1;resizable=1;rotatable=1;deletable=1;editable=1;locked=0;connectable=1;" parent="1" vertex="1">
          <mxGeometry x="295" y="100" width="150" height="320" as="geometry" />
        </mxCell>
        <mxCell id="9OBBQ55bT3TWZzoy92s4-3" style="edgeStyle=orthogonalEdgeStyle;rounded=0;orthogonalLoop=1;jettySize=auto;html=1;exitX=0;exitY=0.5;exitDx=0;exitDy=0;startArrow=classic;startFill=1;endArrow=none;endFill=0;" parent="1" source="9OBBQ55bT3TWZzoy92s4-1" edge="1">
          <mxGeometry relative="1" as="geometry">
            <mxPoint x="240" y="160" as="targetPoint" />
          </mxGeometry>
        </mxCell>
        <mxCell id="9OBBQ55bT3TWZzoy92s4-26" value="Din" style="edgeLabel;html=1;align=center;verticalAlign=middle;resizable=0;points=[];" parent="9OBBQ55bT3TWZzoy92s4-3" vertex="1" connectable="0">
          <mxGeometry x="0.3397" y="-2" relative="1" as="geometry">
            <mxPoint x="37" y="-8" as="offset" />
          </mxGeometry>
        </mxCell>
        <mxCell id="9OBBQ55bT3TWZzoy92s4-27" value="2" style="edgeLabel;html=1;align=center;verticalAlign=middle;resizable=0;points=[];" parent="9OBBQ55bT3TWZzoy92s4-3" vertex="1" connectable="0">
          <mxGeometry x="0.2761" y="-2" relative="1" as="geometry">
            <mxPoint x="3" y="-8" as="offset" />
          </mxGeometry>
        </mxCell>
        <mxCell id="9OBBQ55bT3TWZzoy92s4-5" style="edgeStyle=orthogonalEdgeStyle;rounded=0;orthogonalLoop=1;jettySize=auto;html=1;exitX=0.5;exitY=0;exitDx=0;exitDy=0;" parent="1" source="9OBBQ55bT3TWZzoy92s4-1" edge="1">
          <mxGeometry relative="1" as="geometry">
            <mxPoint x="540" y="140" as="targetPoint" />
          </mxGeometry>
        </mxCell>
        <mxCell id="9OBBQ55bT3TWZzoy92s4-34" value="DO+" style="edgeLabel;html=1;align=center;verticalAlign=middle;resizable=0;points=[];" parent="9OBBQ55bT3TWZzoy92s4-5" vertex="1" connectable="0">
          <mxGeometry x="-0.2681" y="1" relative="1" as="geometry">
            <mxPoint x="-2" y="-9" as="offset" />
          </mxGeometry>
        </mxCell>
        <mxCell id="9OBBQ55bT3TWZzoy92s4-38" value="12" style="edgeLabel;html=1;align=center;verticalAlign=middle;resizable=0;points=[];" parent="9OBBQ55bT3TWZzoy92s4-5" vertex="1" connectable="0">
          <mxGeometry x="-0.0429" relative="1" as="geometry">
            <mxPoint x="8" y="-10" as="offset" />
          </mxGeometry>
        </mxCell>
        <mxCell id="9OBBQ55bT3TWZzoy92s4-43" value="LVDS_IO+" style="edgeLabel;html=1;align=center;verticalAlign=middle;resizable=0;points=[];" parent="9OBBQ55bT3TWZzoy92s4-5" vertex="1" connectable="0">
          <mxGeometry x="0.9765" relative="1" as="geometry">
            <mxPoint x="32" as="offset" />
          </mxGeometry>
        </mxCell>
        <mxCell id="9OBBQ55bT3TWZzoy92s4-6" style="edgeStyle=orthogonalEdgeStyle;rounded=0;orthogonalLoop=1;jettySize=auto;html=1;exitX=0.5;exitY=1;exitDx=0;exitDy=0;" parent="1" source="9OBBQ55bT3TWZzoy92s4-1" edge="1">
          <mxGeometry relative="1" as="geometry">
            <mxPoint x="540" y="180" as="targetPoint" />
          </mxGeometry>
        </mxCell>
        <mxCell id="9OBBQ55bT3TWZzoy92s4-35" value="DO-" style="edgeLabel;html=1;align=center;verticalAlign=middle;resizable=0;points=[];" parent="9OBBQ55bT3TWZzoy92s4-6" vertex="1" connectable="0">
          <mxGeometry x="-0.4652" relative="1" as="geometry">
            <mxPoint x="14" y="-10" as="offset" />
          </mxGeometry>
        </mxCell>
        <mxCell id="9OBBQ55bT3TWZzoy92s4-39" value="11" style="edgeLabel;html=1;align=center;verticalAlign=middle;resizable=0;points=[];" parent="9OBBQ55bT3TWZzoy92s4-6" vertex="1" connectable="0">
          <mxGeometry x="0.0368" relative="1" as="geometry">
            <mxPoint y="-10" as="offset" />
          </mxGeometry>
        </mxCell>
        <mxCell id="9OBBQ55bT3TWZzoy92s4-45" value="LVDS_IO-" style="edgeLabel;html=1;align=center;verticalAlign=middle;resizable=0;points=[];" parent="9OBBQ55bT3TWZzoy92s4-6" vertex="1" connectable="0">
          <mxGeometry x="0.9155" y="-1" relative="1" as="geometry">
            <mxPoint x="37" as="offset" />
          </mxGeometry>
        </mxCell>
        <mxCell id="9OBBQ55bT3TWZzoy92s4-1" value="" style="triangle;whiteSpace=wrap;html=1;" parent="1" vertex="1">
          <mxGeometry x="340" y="120" width="60" height="80" as="geometry" />
        </mxCell>
        <mxCell id="9OBBQ55bT3TWZzoy92s4-4" style="edgeStyle=orthogonalEdgeStyle;rounded=0;orthogonalLoop=1;jettySize=auto;html=1;exitX=0;exitY=0.5;exitDx=0;exitDy=0;" parent="1" source="9OBBQ55bT3TWZzoy92s4-2" edge="1">
          <mxGeometry relative="1" as="geometry">
            <mxPoint x="110" y="360" as="targetPoint" />
          </mxGeometry>
        </mxCell>
        <mxCell id="9OBBQ55bT3TWZzoy92s4-32" value="Rout" style="edgeLabel;html=1;align=center;verticalAlign=middle;resizable=0;points=[];" parent="9OBBQ55bT3TWZzoy92s4-4" vertex="1" connectable="0">
          <mxGeometry x="-0.6649" relative="1" as="geometry">
            <mxPoint x="9" y="-10" as="offset" />
          </mxGeometry>
        </mxCell>
        <mxCell id="9OBBQ55bT3TWZzoy92s4-33" value="4" style="edgeLabel;html=1;align=center;verticalAlign=middle;resizable=0;points=[];" parent="9OBBQ55bT3TWZzoy92s4-4" vertex="1" connectable="0">
          <mxGeometry x="-0.4415" y="-1" relative="1" as="geometry">
            <mxPoint x="4" y="-9" as="offset" />
          </mxGeometry>
        </mxCell>
        <mxCell id="9OBBQ55bT3TWZzoy92s4-42" value="MCU_DIGITAL_IO" style="edgeLabel;html=1;align=center;verticalAlign=middle;resizable=0;points=[];" parent="9OBBQ55bT3TWZzoy92s4-4" vertex="1" connectable="0">
          <mxGeometry x="0.9443" y="-2" relative="1" as="geometry">
            <mxPoint x="-55" as="offset" />
          </mxGeometry>
        </mxCell>
        <mxCell id="9OBBQ55bT3TWZzoy92s4-2" value="" style="triangle;whiteSpace=wrap;html=1;flipH=1;" parent="1" vertex="1">
          <mxGeometry x="340" y="320" width="60" height="80" as="geometry" />
        </mxCell>
        <mxCell id="9OBBQ55bT3TWZzoy92s4-7" style="edgeStyle=orthogonalEdgeStyle;rounded=0;orthogonalLoop=1;jettySize=auto;html=1;exitX=0.5;exitY=1;exitDx=0;exitDy=0;startArrow=classic;startFill=1;endArrow=none;endFill=0;" parent="1" edge="1">
          <mxGeometry relative="1" as="geometry">
            <mxPoint x="490" y="380" as="targetPoint" />
            <mxPoint x="400" y="379.74" as="sourcePoint" />
          </mxGeometry>
        </mxCell>
        <mxCell id="9OBBQ55bT3TWZzoy92s4-37" value="RI-" style="edgeLabel;html=1;align=center;verticalAlign=middle;resizable=0;points=[];" parent="9OBBQ55bT3TWZzoy92s4-7" vertex="1" connectable="0">
          <mxGeometry x="-0.5219" y="1" relative="1" as="geometry">
            <mxPoint x="8" y="-9" as="offset" />
          </mxGeometry>
        </mxCell>
        <mxCell id="9OBBQ55bT3TWZzoy92s4-41" value="9" style="edgeLabel;html=1;align=center;verticalAlign=middle;resizable=0;points=[];" parent="9OBBQ55bT3TWZzoy92s4-7" vertex="1" connectable="0">
          <mxGeometry x="0.3185" y="2" relative="1" as="geometry">
            <mxPoint x="1" y="-8" as="offset" />
          </mxGeometry>
        </mxCell>
        <mxCell id="9OBBQ55bT3TWZzoy92s4-8" style="edgeStyle=orthogonalEdgeStyle;rounded=0;orthogonalLoop=1;jettySize=auto;html=1;exitX=0.5;exitY=0;exitDx=0;exitDy=0;startArrow=classic;startFill=1;endArrow=none;endFill=0;" parent="1" edge="1">
          <mxGeometry relative="1" as="geometry">
            <mxPoint x="470" y="340" as="targetPoint" />
            <mxPoint x="400" y="339.74" as="sourcePoint" />
          </mxGeometry>
        </mxCell>
        <mxCell id="9OBBQ55bT3TWZzoy92s4-36" value="RI+" style="edgeLabel;html=1;align=center;verticalAlign=middle;resizable=0;points=[];" parent="9OBBQ55bT3TWZzoy92s4-8" vertex="1" connectable="0">
          <mxGeometry x="-0.2041" y="1" relative="1" as="geometry">
            <mxPoint x="3" y="-8" as="offset" />
          </mxGeometry>
        </mxCell>
        <mxCell id="9OBBQ55bT3TWZzoy92s4-40" value="10" style="edgeLabel;html=1;align=center;verticalAlign=middle;resizable=0;points=[];" parent="9OBBQ55bT3TWZzoy92s4-8" vertex="1" connectable="0">
          <mxGeometry x="0.601" y="-2" relative="1" as="geometry">
            <mxPoint x="4" y="-12" as="offset" />
          </mxGeometry>
        </mxCell>
        <mxCell id="9OBBQ55bT3TWZzoy92s4-10" value="" style="endArrow=classic;html=1;rounded=0;startArrow=classic;startFill=1;" parent="1" edge="1">
          <mxGeometry width="50" height="50" relative="1" as="geometry">
            <mxPoint x="180" y="230" as="sourcePoint" />
            <mxPoint x="360" y="190" as="targetPoint" />
            <Array as="points">
              <mxPoint x="240" y="230" />
              <mxPoint x="360" y="230" />
            </Array>
          </mxGeometry>
        </mxCell>
        <mxCell id="9OBBQ55bT3TWZzoy92s4-28" value="DE" style="edgeLabel;html=1;align=center;verticalAlign=middle;resizable=0;points=[];" parent="9OBBQ55bT3TWZzoy92s4-10" vertex="1" connectable="0">
          <mxGeometry x="0.3947" relative="1" as="geometry">
            <mxPoint x="-23" y="-10" as="offset" />
          </mxGeometry>
        </mxCell>
        <mxCell id="9OBBQ55bT3TWZzoy92s4-29" value="1" style="edgeLabel;html=1;align=center;verticalAlign=middle;resizable=0;points=[];" parent="9OBBQ55bT3TWZzoy92s4-10" vertex="1" connectable="0">
          <mxGeometry x="0.216" y="-2" relative="1" as="geometry">
            <mxPoint x="-34" y="-12" as="offset" />
          </mxGeometry>
        </mxCell>
        <mxCell id="9OBBQ55bT3TWZzoy92s4-11" value="" style="endArrow=classic;html=1;rounded=0;entryX=0.5;entryY=0;entryDx=0;entryDy=0;" parent="1" target="9OBBQ55bT3TWZzoy92s4-12" edge="1">
          <mxGeometry width="50" height="50" relative="1" as="geometry">
            <mxPoint x="210" y="300" as="sourcePoint" />
            <mxPoint x="360" y="330" as="targetPoint" />
            <Array as="points">
              <mxPoint x="360" y="300" />
            </Array>
          </mxGeometry>
        </mxCell>
        <mxCell id="9OBBQ55bT3TWZzoy92s4-30" value="RE#" style="edgeLabel;html=1;align=center;verticalAlign=middle;resizable=0;points=[];" parent="9OBBQ55bT3TWZzoy92s4-11" vertex="1" connectable="0">
          <mxGeometry x="0.0011" relative="1" as="geometry">
            <mxPoint x="7" y="-10" as="offset" />
          </mxGeometry>
        </mxCell>
        <mxCell id="9OBBQ55bT3TWZzoy92s4-31" value="8" style="edgeLabel;html=1;align=center;verticalAlign=middle;resizable=0;points=[];" parent="9OBBQ55bT3TWZzoy92s4-11" vertex="1" connectable="0">
          <mxGeometry x="-0.3006" relative="1" as="geometry">
            <mxPoint x="5" y="-10" as="offset" />
          </mxGeometry>
        </mxCell>
        <mxCell id="9OBBQ55bT3TWZzoy92s4-12" value="" style="ellipse;whiteSpace=wrap;html=1;aspect=fixed;" parent="1" vertex="1">
          <mxGeometry x="355" y="335" width="10" height="10" as="geometry" />
        </mxCell>
        <mxCell id="9OBBQ55bT3TWZzoy92s4-15" value="" style="endArrow=oval;html=1;rounded=0;startArrow=none;startFill=0;endFill=1;" parent="1" edge="1">
          <mxGeometry width="50" height="50" relative="1" as="geometry">
            <mxPoint x="490" y="380" as="sourcePoint" />
            <mxPoint x="490" y="180" as="targetPoint" />
          </mxGeometry>
        </mxCell>
        <mxCell id="9OBBQ55bT3TWZzoy92s4-16" value="" style="endArrow=oval;html=1;rounded=0;startArrow=none;startFill=0;endFill=1;" parent="1" edge="1">
          <mxGeometry width="50" height="50" relative="1" as="geometry">
            <mxPoint x="470" y="340" as="sourcePoint" />
            <mxPoint x="470" y="140" as="targetPoint" />
          </mxGeometry>
        </mxCell>
        <mxCell id="9OBBQ55bT3TWZzoy92s4-17" value="" style="endArrow=none;html=1;rounded=0;startArrow=oval;startFill=1;endFill=0;" parent="1" edge="1">
          <mxGeometry width="50" height="50" relative="1" as="geometry">
            <mxPoint x="240" y="360" as="sourcePoint" />
            <mxPoint x="240" y="160" as="targetPoint" />
          </mxGeometry>
        </mxCell>
        <mxCell id="9OBBQ55bT3TWZzoy92s4-19" style="edgeStyle=orthogonalEdgeStyle;rounded=0;orthogonalLoop=1;jettySize=auto;html=1;exitX=0.5;exitY=1;exitDx=0;exitDy=0;endArrow=none;endFill=0;" parent="1" source="9OBBQ55bT3TWZzoy92s4-18" edge="1">
          <mxGeometry relative="1" as="geometry">
            <mxPoint x="514" y="180" as="targetPoint" />
          </mxGeometry>
        </mxCell>
        <mxCell id="9OBBQ55bT3TWZzoy92s4-20" style="edgeStyle=orthogonalEdgeStyle;rounded=0;orthogonalLoop=1;jettySize=auto;html=1;exitX=0.5;exitY=0;exitDx=0;exitDy=0;endArrow=none;endFill=0;" parent="1" source="9OBBQ55bT3TWZzoy92s4-18" edge="1">
          <mxGeometry relative="1" as="geometry">
            <mxPoint x="514.037037037037" y="140.00000000000003" as="targetPoint" />
          </mxGeometry>
        </mxCell>
        <mxCell id="9OBBQ55bT3TWZzoy92s4-21" value="100" style="edgeLabel;html=1;align=center;verticalAlign=middle;resizable=0;points=[];" parent="9OBBQ55bT3TWZzoy92s4-20" vertex="1" connectable="0">
          <mxGeometry x="0.1326" relative="1" as="geometry">
            <mxPoint x="16" y="18" as="offset" />
          </mxGeometry>
        </mxCell>
        <mxCell id="9OBBQ55bT3TWZzoy92s4-18" value="" style="rounded=0;whiteSpace=wrap;html=1;" parent="1" vertex="1">
          <mxGeometry x="509" y="145" width="10" height="30" as="geometry" />
        </mxCell>
        <mxCell id="9OBBQ55bT3TWZzoy92s4-24" style="edgeStyle=orthogonalEdgeStyle;rounded=0;orthogonalLoop=1;jettySize=auto;html=1;" parent="1" edge="1">
          <mxGeometry relative="1" as="geometry">
            <mxPoint x="180" y="300" as="targetPoint" />
            <mxPoint x="210" y="300" as="sourcePoint" />
          </mxGeometry>
        </mxCell>
        <mxCell id="9OBBQ55bT3TWZzoy92s4-25" value="RE#" style="edgeLabel;html=1;align=center;verticalAlign=middle;resizable=0;points=[];" parent="9OBBQ55bT3TWZzoy92s4-24" vertex="1" connectable="0">
          <mxGeometry x="0.7573" relative="1" as="geometry">
            <mxPoint x="-26" as="offset" />
          </mxGeometry>
        </mxCell>
        <mxCell id="9OBBQ55bT3TWZzoy92s4-50" value="DE" style="edgeLabel;html=1;align=center;verticalAlign=middle;resizable=0;points=[];" parent="9OBBQ55bT3TWZzoy92s4-24" vertex="1" connectable="0">
          <mxGeometry x="0.7573" relative="1" as="geometry">
            <mxPoint x="-26" y="-70" as="offset" />
          </mxGeometry>
        </mxCell>
        <mxCell id="9OBBQ55bT3TWZzoy92s4-46" value="" style="endArrow=classic;html=1;rounded=0;" parent="1" edge="1">
          <mxGeometry width="50" height="50" relative="1" as="geometry">
            <mxPoint x="240" y="360" as="sourcePoint" />
            <mxPoint x="540" y="450" as="targetPoint" />
            <Array as="points">
              <mxPoint x="240" y="450" />
            </Array>
          </mxGeometry>
        </mxCell>
        <mxCell id="9OBBQ55bT3TWZzoy92s4-47" value="DIGITAL_IO" style="edgeLabel;html=1;align=center;verticalAlign=middle;resizable=0;points=[];" parent="9OBBQ55bT3TWZzoy92s4-46" vertex="1" connectable="0">
          <mxGeometry x="0.967" y="2" relative="1" as="geometry">
            <mxPoint x="41" y="2" as="offset" />
          </mxGeometry>
        </mxCell>
        <mxCell id="NqV2zTMyr1RyBtExwDjq-2" style="edgeStyle=orthogonalEdgeStyle;rounded=0;orthogonalLoop=1;jettySize=auto;html=1;exitX=0;exitY=0.25;exitDx=0;exitDy=0;startArrow=classic;startFill=1;endArrow=none;endFill=0;" parent="1" source="NqV2zTMyr1RyBtExwDjq-1" edge="1">
          <mxGeometry relative="1" as="geometry">
            <mxPoint x="80" y="230.0689655172414" as="targetPoint" />
          </mxGeometry>
        </mxCell>
        <mxCell id="NqV2zTMyr1RyBtExwDjq-5" value="DATA" style="edgeLabel;html=1;align=center;verticalAlign=middle;resizable=0;points=[];" parent="NqV2zTMyr1RyBtExwDjq-2" vertex="1" connectable="0">
          <mxGeometry x="0.9953" y="-1" relative="1" as="geometry">
            <mxPoint x="-20" as="offset" />
          </mxGeometry>
        </mxCell>
        <mxCell id="NqV2zTMyr1RyBtExwDjq-3" style="edgeStyle=orthogonalEdgeStyle;rounded=0;orthogonalLoop=1;jettySize=auto;html=1;exitX=0;exitY=0.5;exitDx=0;exitDy=0;startArrow=classic;startFill=1;endArrow=none;endFill=0;" parent="1" source="NqV2zTMyr1RyBtExwDjq-1" edge="1">
          <mxGeometry relative="1" as="geometry">
            <mxPoint x="80" y="259.95402298850576" as="targetPoint" />
          </mxGeometry>
        </mxCell>
        <mxCell id="NqV2zTMyr1RyBtExwDjq-6" value="SRCLK" style="edgeLabel;html=1;align=center;verticalAlign=middle;resizable=0;points=[];" parent="NqV2zTMyr1RyBtExwDjq-3" vertex="1" connectable="0">
          <mxGeometry x="0.8929" y="-1" relative="1" as="geometry">
            <mxPoint x="-22" y="1" as="offset" />
          </mxGeometry>
        </mxCell>
        <mxCell id="NqV2zTMyr1RyBtExwDjq-4" style="edgeStyle=orthogonalEdgeStyle;rounded=0;orthogonalLoop=1;jettySize=auto;html=1;exitX=0;exitY=0.75;exitDx=0;exitDy=0;startArrow=classic;startFill=1;endArrow=none;endFill=0;" parent="1" source="NqV2zTMyr1RyBtExwDjq-1" edge="1">
          <mxGeometry relative="1" as="geometry">
            <mxPoint x="80" y="290.0689655172414" as="targetPoint" />
          </mxGeometry>
        </mxCell>
        <mxCell id="NqV2zTMyr1RyBtExwDjq-8" value="RCLK" style="edgeLabel;html=1;align=center;verticalAlign=middle;resizable=0;points=[];" parent="NqV2zTMyr1RyBtExwDjq-4" vertex="1" connectable="0">
          <mxGeometry x="0.7343" y="-1" relative="1" as="geometry">
            <mxPoint x="-25" as="offset" />
          </mxGeometry>
        </mxCell>
        <mxCell id="NqV2zTMyr1RyBtExwDjq-1" value="SN74AC595" style="rounded=0;whiteSpace=wrap;html=1;horizontal=0;" parent="1" vertex="1">
          <mxGeometry x="120" y="200" width="20" height="120" as="geometry" />
        </mxCell>
      </root>
    </mxGraphModel>
  </diagram>
  <diagram id="btMDzTdXJarK8Y5SQHnj" name="ITR_Relations">
    <mxGraphModel dx="1434" dy="836" grid="1" gridSize="10" guides="1" tooltips="1" connect="1" arrows="1" fold="1" page="1" pageScale="1" pageWidth="827" pageHeight="1169" math="0" shadow="0">
      <root>
        <mxCell id="0" />
        <mxCell id="1" parent="0" />
        <mxCell id="Ync8aqMZyCeplK1bt3V_-1" value="" style="shape=image;verticalLabelPosition=bottom;labelBackgroundColor=default;verticalAlign=top;aspect=fixed;imageAspect=0;image=data:image/png,iVBORw0KGgoAAAANSUhEUgAAA3IAAACyCAYAAAAH1/3IAAAAAXNSR0IArs4c6QAAAARnQU1BAACxjwv8YQUAAAAJcEhZcwAADsMAAA7DAcdvqGQAAESMSURBVHhe7d19fBTV3ffxTxZFSiMCFmEXUW6ggBrUmghWuWoATbSIehOVVkuw4WqlPrbckBRqFWsLSlKsD1Rtr0Qe1KuISVFqlWBi9EI0mFgRFJICjUqyWLx4CFERzM79x85uZif7mGSTLHzfr9e+XjA7e3Yy85uz53fmzJkkwzAMREREREREJGE47AtERERERESke1MiJyIiIiIikmCUyImIiIiIiCQYJXIiIiIiIiIJRomciIiIiIhIglEiJyIiIiIikmCUyImIiIiIiCQYJXIiIiIiIiIJRomciIiIiIhIglEiJyIiIiIikmCSDMMw7AtFRKTFr56vtS8SETlu/O66kfZFItIN6IqciIiIiIhIglEiJyIiIiIikmCUyImIiIiIiCQYJXIiIiIiIiIJRomciIiIiIhIglEiJyIiIiIikmCUyIl0JXcJM5KSSIryNaKgmq/tZYT0Ne6SWbF/1rJNUX8mJh6aasspysts+dtcMygoqcbtsa8L0EhteRF5E1z+9V0zCiipdhN09aZayovymODfb2OYUVBCtfuIfc3o7S9l7fWjWBjl6/EXt2LYP/dYKU0AfMGeF7MDP/PTJdR9Yf9rvmJf+c9tZd9Lzf5m23rt0UxT5b1m2dm8vfML+wrHqc7cL535XZK43NQ8drk3Tm4vYk9HVgMikrCUyIlIJzqCu/x+poyaxMzFpS2L3SuYm5VG6k9KqLfmM556yudfz6hJM1lc4basPpestAx+UvJRQDLnca9n/pR0Js1cTIV/6VZWzM0iLXU2JfXtSObiaf+b/GvXwcBlnno+2VgVuCwhNLGvci11HZpwJorj+W+XjqM4EpHoKJETkc7T9B7P3P+kN8lKX0BZw1cYzbspm5cBgLvoXu5Z40vOPDT94znuX1QKOEmfV0pDs0FzQynz0p3AVopuz2eNPzk7wD+eeZhFFW4gg3llu2k2vqKhbAHpAO6l3H7P3wITxW7jUz799/7ARQd38PHmvYHLOlwPksfdx/zVNcxfvYKLhve2rxCb/e+y6bEf8kRBFV/Z3zvWtflv7+BjIIktZBw5GXX7em+cPJbDoB4Bb4rIcUqJnEhXck5luWFg+F+HqMpPN9+8heKGo5b3DHbMSeUEWxGJxHOoB9+ePp10nGRMn0a6syc4BvO9rMsZDsBWXq7caQ5B/JpDfJvpuRnAeKbf/B84HeBwfpesyaO8BbrfprKm0Sz8S/j2NeSmOyFjGjenD8ZBT5zfu4rJ3sJxv1xFTVMbMrl+GUxZXWM2tmuYv/of5EwfZ775A7L+9KHlvRp+dnUKSbYiQkk+Zxyns5ddG99ln3/TPByp38q/Alft5r5gz//8gVdfr7W/cRw4nv926TiKIxGJjRI5kYRzBHd1CQUzxgTeQzchj6LyWjMJCqaZptp1ls+14d4xj5vqkgJmuHzf62JC3p95IdT9ajYOZyrX5DzIa0YD63JGR6iAeuJMvYqcB9dhGM+RM7KXfYVADiep1/yEB19rwFiXw8jwhXcbJ553FWPOGwCbt7D3oG8o1UEa3nuTJlL47s/uZoztM9DInhdv8d8798jjpfjzU88uNv92vPneFF6qrLd91irU/VnW+/iyeXvnQZp2lvL2Y1P85a59sZQ9+4+axWzl7du/Q9HKSvPzf6H4p2e3vqdv/1ZqXszjEf89fzN5rfy1lnJMxs4iHr9+FAuvv5y1lbX8b/mvzM9k8drW/Zb3vfcjNtvKfeSxImp2Brma6dnLnsoi1v7U9/2jWHj9eJ5++nnqGkKfOWFF+tubt/L27eZ3PfYK++r/6v/+R55+myMhj4HpcB115QU87dveBQVs2em2fOZy1la2DDsGD0cb3mbz0zMtf98a9uz/uOUeK/tx4ajt+Hq/Z/M7W1viyhTp2ITn4WhDJdsDYsAWS1Gt//fWx8u6n28vYs/XtmP90zzerrT9PW35DMS0v7ya2Lf174Hr28uOFEcR75EL8R1vVbLvcOBGtfn8EZFuJ0GaOiLidYT6ktmkpmUxd8XWwLcqFjNzUjpTCjYFTea+eCmPyaOusHzOvHfsxkWUR5PMNW2l6McZpGXNZYW/3eimYvFPuTYtgx8XbQ36vZF43G/y6CPL2QnAZGbfcAF97Cv5HcG9aTmPLDHvgEu/iRvG9rev1MLjZtOjj7BkJ97hmbOvZWyfblbt9RjAKUMHAltpqPddXdzPwbpPgSH0P+1k+yeAPgzKuI2J5wwAoKm8mK3/avQ2MN95mtfNIZnJE+/g0gsH2z4bq/18+vJ8in55B+X+KwW1bFl5B8/95bUQDVc7D0fr/8ravCyKV66xxMkG3np8FkV5C9hcHyx6vmT/y/fyzOPPm58ZQv/+gUMPj/5rJX+zldv0+oMUP/g4NfssyYGnnponcygqeJAtAfnGXj5+4Vc8e9f/4+2d5v6Plz3P8vf7fml+/wBOc51GT/s6Vodr2fxfd/Ds43/mY9+yD/7M2l9ms+Zl2/kP5n5+gVcWzOClFzaYy/by8Qt5FOXl8c6eL23rAzTxv+ULbMfX+z0vLc6i6I9/5X9tiYBX5GMT6ChNW//IqruyKQmIAW8sFeUtCjxeNPG/5b/m8aDr/4Jn77qLiq2fWta3OFLNO0ttx3r/GsoL5vH6OyE6NqL+TIz7y/Mpdf99F0/c94vA9fevobwgi6InLZ0wbXW4ls2P/TD4dyzJ5okH/khd0EQ5hvNHRLqlbtaiEZGwGjfwyO1LcVvuGTMMA+NgGblOvInVE29QE2SqSXfFZ4wo3MIhwwi4L42KBfzoDxsI34Q9QPUTv2Tmiq2W+88MjEPbKM7N8CaFM3/Dc7WH7R8M4zC1RTfQwzWe2Su2gjObJZV/ZnZqX/uKXp7tFGUOxTXudla4wZn9GJXP3kZqcvBqzFNbRGYPF+Nmr8BNCtlLVvPs7LEk21fscv0Y8O0UYCtb3qvhCMCed9m2eS8MPJeBzhCN414ppE7/T84AoIJNpW/T9MU2tr5szo7Z7yYyp00gxO6JQS0fvJ/MRYs2eIeOPvko5/XzvtNU/nd27vkKeqRw0WPBhpvex6h+PeDwVqr//HtvA/mcO7jxT1uZv3obcx9+lO+eMwD2P89LT71iGVrqs5fdH/Tm3Hvf8K7/2GyGDzopYI2mDR/iuPq/uXNVDfNXlZM1caT3jf2l/OO9T8y1PBz5cBXrymuB8Vx87xvmMNhtzLn3FjMmKvjHBx97ZxuNRaS/3apmF0wo8m7rylVkfGdI4PsBvmLfxj/yktkwT770AW5ZuY35q6uZNedK+CBIIuep48OnzP3MSMb8bC1zV9cwf+XLZH2vNx/X2K+yeDi683lefvx5mhjAGVPNbVtdzaw5t3AG0PT671m/sc72OaI6NgH2vcbrjzzqTUjPuYWsh6uZv3ordy66lzH9gP3PsG6Vr2PAul2QfOm9/NgeM2xg432L2NwQ5I7E/a/yrx4/ND+zlTvn3GQe41o2r38rSJxF+5lY99dRmt55khdLNgADOOOaR5m1chvzV23gxzOuJRloKn/UmyjGEkcBGtlT+nszTkYyZoZ5Lli2iQ8e5dmlLwT9u6M7f0Sku2r3T7yIdKI+E3mwwcAwGnht4aXwj79TUvIsBXfcxWLfVbIv9nGw1VT24My5j4U3p3gbJ47BTJx/P/npTgDcK1+lqrH1Z/wa3+W5JS8B4MzN45cTB3srj+TRTP35LWQDsIFVG+qiGmLp9TWH9lkalu53ee+N99kRqnva8zn7dlpmrly/iTe21oW8Cug5tM+8ygewlfXvbWLrjvDpaucbQL/kPiQPGcMwoOntD9nX3EzTJ1vYBSRfdDb9Q9bSDk4cfh1X/uw6s0H4NK8VFVD+wV5gJOfNnMmo/ifaP9QGAxj2g1sYO8J79Y/+40m9ytfY3MeXX7Ya42Xj4ciOV9n0wV4ghe9edxND+53o3X7XJC68cpJ3tc0b+GRPkEb5pdNISxnoXX/gGa0T0/NmcMn3L/AudwxmZMb/xZtn7mV/0xdmYuagZ8ps7lxdw/zVhaSf7WDPO6XUvLWMdY886Y+ho41NxPcaxCQuvOIi77b2Gkz/fmGOj3XW0n43kXnjVZzaywEk03/cjxl/TYr9Ey0dAObV2AnpIzkRoNcwRk39Cd81E/AWB6l/a603ueo3lfHXfNfcv8n0H/dDLrz0DGh1/6ZFpGPj9xX73vs7m/djxsCPGeVKBk4kecSVjPme92/xdwx43OwqLTavQl7JpVOzcPpj5jLG+zswXub18n94Oz8CWD9zIslpUxk70HxrTyNHgmbr0Xwmxv3l+YSd630dK1MZP/Uy+vdygGMAzon/15vAhksuo7Hvbar/Zo5QsJ4LJNN/3H9y2XTznuvN/83mD4MMfY3q/BGR7ipktSsi3ZPHXU1JwQxcSSfhSptMVtZNrYdZtuJkzCVn47Se8cnDuGCsy/tv91u8+8/Qz6/y7KnjPTOHci+exCnWe/NcWazwvkPp6x8SYrBTEMmkznkNw/iKhsrHyHZuZcXcK0i/a03wmSVPSGXODgOjuYHKJdk43SuYm5HFXbZHELSsPocdhkFzwwaWZKfgXjGbjPT53ewRBN/gm9/8Bkl9T2dgP+DT9/n003/z2T+3tgy96+NigK9B2Uoyp6bfSubEkUAlW16v9Pb8T/1lBwyp9BnIwNNaZQAxOErTvz82k6WtvHXfRS338Fx/No8U/MVc7wM+/mRfwCcB+p3h4pv2hRbJQ08Pk0BYWe5rmjaeosV3ULzEPswyzgaeySl9wl1dsTj8b/Z9bHZ0nHE2A/pak75TcJ1/ie3qsocj+z7m3+CNnVEjAvdL71H8HzNh8vMP4QX2P8mzM86yHJt0il83B3QG3L/ZItKxafEFjQ2+qzv2IZj9GPqjYvMK6R84z3USHP6Ehn+YQwTPG8+QgCt9Dk4cmsYI85zwdn5Y3gbodwanBOyvKETzmVj3V8AxPIM+vSwHpPdFTPiTOUHS3deF6bAJx8ORhq3sNIfqDrv4Als5fRh4zjgzMdvK9l31rRKz6M8fEemOdPqKJJKmTSy5cQpZc1fgBpzZ+awufomqjzeQb87MSO/+nNLbfmr3ZlDfb9pO+F6cMiDY/VetBV7d6mg9cY6dwZ2zvT3H7qKFPFLxmX2lFg4nY++4k9nDMR9B8CQVYa4mOpyXcMedM7yzYrqXcvsjkYaRdoHeZ+I69wygim2Va9nxxlZgGEPPHGRfszXHaQy+4EJLoz6NMZemdWDj7Jt84xvWhvRJJA/8P5b/R9LMkabWCVp0BtAvuXfYGUBP7JPsvepkSup/Oqdb/u/l4ejOZ1jjv69pJGOmF5CVW8wdi/LMhm7rsjrcoD70DPfHWH3VSJMvyezbh54Bx9PBid/oa9tWgyOfHzQTZm8HQaCT6NXHlnYZX/DlHvtwy2hFPjYtDvPVAd9Zdwq9vhFh7t2wfzvQ41T6jfZekwuqZ196nWT5UKT1ifIzse6vSH9Hu0U65qHOhxb2mI+0voh0Lx1erYhIvHho3LSGJRVuwElG4TZ2L5/DdVO/T6ozwoyO7OTNXf8m8Na5wxzce8j89wD6nxyhcWUanl/F0YBHJlhey6fiHawZq164hpmPFOAAew4Em5TB4oTTGHaJ75kC+zjweehEDuAE1zAuMf/t3nOAz23vd73+DDj7HO+wrGd/z6b9QL/zGRTxuJr3HhU+Yxli+jKvv/B6+ydQiItxTHzgHwGPamh5rWfKOHv0BG+cxs4yJI4rmfzw80y5egqjLkwhObpMpGPE0pg/qQ/JvgzzQCNHAo6nh6NfHrANA02i5zdPMRP6L/n8c/s59BWHG8NE/sA8cv5iPya+V7D7tGI5Nr04qa9vCqODHP4yyE28VmH/dqD5f9m/3T/9S9eIZn9F+jvaLdIxB2PfbnbbF4rIMSPanxQR6XJf8M9338I7wnEUl593essJ/MVB9oYeGQnAzvWb2WVtSDTt4t1NDd5/O0cwdFDo+fNO+PYFZJlt7MByPDSWz8dlPoogs2h70GGOXh6ati83H12QRl659arbAbZVmvcDMYQxZ/YDGtleNNNbtms+5darbo3/pHK9eY1w+AjOHHCCd1ZN89EKrrxyy1U3D43bqlhv/m/4mDMx7/bqBvqQ/M1e3ntyTjsjcKicfShWMJ56alY9at57dAZnnOO71+g3rPnb+3G+3ytaveg/7Hzzb9tF3Ud7LO/tp+7pLHNo2s+DT1zREZrr2fO2Ofx44LkMHOi7whgsIeomep1G/zPMSP34Q/YesG6l7/EUVg569j+D0wDYy79rdgQm81/U8K83bEOwewxm0EXmcMtP3+fTTy37/4u3ec03Df9vn2/7PVwA9KaPyzexy052f2I9979iX/nPzRgwH2Fg/dtb3Tvp4WhdFTvMEY7JF51Nf3uOGS+x7q9wx9D6mJCfLqEuyH3NkQUe89b3Mjby6QeVeC8KpjB62OAor6CKSKKI0EoQke7DetWqgiV/LPXeS9a0nZLfPdgy2UkopQ/xu4ffxO3xJgDlC3/N3Arvh5zTLyMt3LT8fS7ghtmTvf+2ltNUxZ/uX+ZNLp03k3fdyPCVyuf7+NgNUM3i+5dQUtvofaRA+VLuX1ztXSdjOld/Jxnw8Pm+T71lu5dx/+/WUNvk8W77A76/10nG/Kv4zgkAX7Dv4/8FwL34QX5Xsp0mwOMu4wHfNnI9868+x3yo+ieUzBjhvc9vRAHVES4SxIdv2KKDnoNTsA5Y7HfuaPo5QgzxAnNGvEJzJkZInjiXa3PvNR9JsJePVy6lOt7T6YdkverioOeIyxhrbteuvzzJph17zeGOL7DhBW9ykXzNDzjLFWbWw/aw7sNP/0p1Vb33+xte5c3nS0JOmNM2UVxxioZjMEMuTvP+e/8zrHv2b+a09k3sq3zKv98CDLqAs87zPZLiUV6rqPUmqYd3UVPyZ95qdT/gKQz+7pSWiUNKinHvP+qdCfHVp8z1U/jutZPaeA+Xz0n0P//75myntWx+eRU1DU3mMXidzW+YnTjnTOGsEaeAYyhnXTvVTP6t2+U9ZhtW/pc54chNZH4/NfwjHDpUjPvLMYThl2d4/479pbzz99fMZ7o1se+dNWzZvNd7T+tVlzG41XD4KOPINYmLfBPfbF7Om39/10zgm9hX+V+8utI7EUryxFu48Oz23OsqIt2RveYQkW7rBJwZOS0zTRZlcXqPJJJOPousxTtJT0/1rrZzBx/tbd0AcKZ/ix2zx+PqkURSj9OZtKjU+0b6Ap7++fgwz24D6EvqrHvM797KCl85J48zk8EM5j19G+nhkkEcJKfO5PHCHO/wy4pFZI06haSkk3BNWkAF3m0pW/Yj82HefUmd9QCF2SnexyoszmLUyT0s2+4kfd5ylt1sPlg8OY1Zjy8i2wlQyuKsszg5KYkergwW+bax7CFujvRg8a5yygjOMBvhkXvPzXu+Cswhlb5HDfQOfCRB+coVIZ8f1fGsV95e5qW7zm25ymZ9VML+Nbw6bzwLrz+L/F8uMqejv4OrJ8ezQT6QYVfeZO6XWjYXTPR+/1138FbDEM4Y5d3v+z9uaOOw2zB/e5udRP+Lb2Xypd7p4Jte/yVPTj+Lhden8kTBe5xyqW/mUAvHUM7+8f/zz4a45fEp5F8/ioXTr6R4Rz/GmM8dtHyAE4dP9c9s2PT6fTz10xQWXn8hRSsrzIlzZndMAtB/ApfeeYc5Hf6TFN+V2nIMPtgLpDNx+lQG9XJ4k/+Un3KTb0ZW/3ZZ1x/PxXfe0kEzs0Yr1v11IskX3sLVU8ebz/O7gyf8x/BJM/b/k8syUsz71NoSR/0Yet0iM05q2bL8hzwybZTtO+7g6h90xKNIRKS70WktkkiSxzL72TUsyzWfAWdOeFJc9Tp//XWGeX/am7z0Vn2rIY69J/+Wv1QVk5/tm7kuhez8YqqencdEZxRN6OSxzFlbQdnqfDNZ8vJ+/zJ+63skQVh9GJ3zONVVaym0/A2QQW5hGTVrfx24Lckp5DxVStWaP5FrJrAApOdSWFbB2oWXW2bidJA8egZPVVexpjAXc9Jtb8KXW0hZzWoWRrWNXcTRz3wwOEFm9rM5vJVq31WJgEcNBDY0+eBRXoz6od3t5aDn2dO54bafmAkT0K8/vcyG+YnDs5n28AqmTvc+P8trJGOmP0rOXbeYjySIFwcnDr+Jax940HwGGS3f/eAfGD/a3O/vv019mx6CHO5vb4deIznvPx/lxp+1lJt86TxufPhRJlwYbMIZBycOvoYrFixn8jXjzWUjGTP9v5j1y18w8lvB7mnrw6Crf8+sex9iopk0AtDvWibOeYJrp13SQQnAiSSn3BoiBh7ixod/z0XDrd1JyZw6cQE5D/wpyPqPkvOnJ0hPCTmdaxzFuL8cAxn6w4eDrz97BbN+mW0mr7Q9jnqN5Lxbi8jJLWj9HXOKufOe2+N8folIV0kyDMM+G62IiFj86nlzKnSRbqGZpsrfmI9uOIMxc1YEmSjGzk3NY9nmFPk/IOtP9wSZwEQkuN9dZ0kQRaTbiNDNIyIiIp3POhHMKB55vLTlyurhnex8513zP+dwxpD+3n9aJ9y4fgovVdab63g4Wv82te+bMz2eN4YBpyiJExFJdLoiJyISga7ISefzcHTnClb57iMMagBnTP8j064+17zHqpE9L84179cKJZ2JD+TbhjGKhKcrciLdkxI5EZEIlMhJ1zhK086N7P7g75SuXBMwu2bypXlkpE9keMrQwAeDe/ayp/pt6ir/ZD783GckY6b/jDFp32OoK+BBFyIRKZET6Z6UyImIRKBETkSOZ0rkRLon3SMnIiIiIiKSYJTIiYiIiIiIJBglciIiIiIiIgmmXffIJSUl2ReJiIiIiIhIGO1IwfzalchhJnPtLEKOQ4obOVYoluVYoniWRKS4lUTTUTGroZUiIiIiIiIJRomciIiIiIhIglEiJyIiIiIikmCUyImIiIiIiCQYJXIiIiIiIiIJRomciIiIiIhIglEiJyIiIiIikmCUyImIiIiIiCQYJXIiIiIiIiIJRomciIiIiIhIglEiJyIiIiIikmCUyImIiIiIiCSYBE3kPDTVVvB8wQxcSUkkmS/XjAKeL6+lybb219UFjEhKIilpAgXV9ne7h5ZtjPQawYyST+DragpGeJeNKKjmawA+oWTGCMu6aeSVf2b7psPUFt3QurxurYnqggne7R1RQPXXbdhffI27ZFaQ9y2vCXkUBYkfb7yto2DGGHPdMcwoKKHafcS+YggemqofYkJSEq6ZJdQfaTl2EV8zSnD7y2mktnyVZTt827KK8trGgG+Mr0Zq1z/EDJe5Da4ZFJRU4/bY14tlv0VbJtBUy3rLue+aUUBJtZvWq0Yu01NfwkxXEkkTHqK6qXUJcdHq3LXEd8TXLErcXwc51+0vFxPyiiLEhaUuCIizSA5QXXAVSUljmFnyEUdiPheJuQ6Pqw6MJ7+oy4zlHDF5tlOU6QpSdx+hvuR2XEkuJhRsivs+tP+udmqd7HFT/cKfyZvg8q8beh8Hc7zWyV0Vmz6RtzPedbI9bq31ccTXjBLc7YlbGqktL7LEbRT71K5pEwUTXCS5bqfkozdj3HafYzluYyjTJ2Lcenlqi8hMSrL8DpvL4xyzERnt1AFFxKjZOLRtmZHtxIBgL6eRnl9pHLJ84mhVvjEcDEg38qus73QfLdsY6TXcyC7+2DCOVhn5w73LhudXGUcNwzCMj43i7OEB6ztzy4yD1i9q3mYUZjhbl9fJiCluDhlV+ene7R2eb1QdbcP+Mo4aDcW3BHnf/modP827i42cYPGWvsSoOtRsWTOE5jqjOCfFgFQjt2xvwLGL+MouNhoMwzCMg8a2whzDaX/f/5ps5Fftt39zHHxl7C6+Lch2tGe/RV9my760r2v/+6Mtc69RlptqQIqRU1xnRHE0WyGmWDaCnLuW+I74usUobjga9FwP/rLvF5+DRk3xPCPdt54/ziLzH1fnPKPsYHMbzsXY6/C46fB4iqXMWM4R06FtRnFuhrlekLr7YJmR68TAeZtRvPurwPeiRJTxbP9djT0O2lgnN+82yub59oH9lWHMK9sd+Tw+TuvkLo3NqLezbXUybYzb2I99G+PW2G9U5U8Osl4s52vLPnTmlhkHY9524xiP2xjK9IkYt4b3N6um2MhN97Wdfb/DPvGN2UjaXUpHbUjUWiUiwV6BB7fVidsNxfwj2KoxaARv3GUUGjWWqGquKTQygpXXyYgpbjozkWtpoHr5TlAMZ06xsbvZMJobSo156U4DnEZG4baIJ61/n/vKbUPl2/q4BXmF+oHtSL6Gor/C+spoKFtgJgTXG4U1X5orxrDfoi6z2ThYNs9bSft++KyNOmust6VM27kSLWKK5c5O5OydOc3GoZoyo9D/w2W+ok7kvjRqCq8PKDfmc7ENdXh8xDmeIpUZyzliHDRqygotDQnL/gzgK9P++egRZTzbf1djjoM21sktdWGKkV24xds4O7TFKMw2G3pR1IPHZ53cxbHZlu2MoU6mjXEb+7Fvb9z69mlgh1ZLOy4Mf93Z9g6IYzpuoy7TiD5uD9UYZYW5LZ2eECSRi2/MRtLuUjpqQ6LWUGxkmzvTmf2YUdng68UI7GG2Nl5anbim5oYqozg/OyB7d2bnG8VVDWYl1VKZtT44LQ2awIb/V0ZDVbGR7/tRwWmk5xYaZTUB18Ui8/+dQQLLCNYYNGyNu+FGenpqiBPC916Y8uMstrhpnci1Eml/WSvfYGU0NxiVS3yxYFaShrVisCyzHvtWcWFn+UG0Xx31sxy3oA1q6w9HipG9ZIPR4PvOgN4k6zYGYTl3Qr/CdXZYK1RLzPt/XCw/8FHvtxjKDLEvW36YfLEeS5mhtjV6xBTLoc7dgBUsx9v+g+HTEjPBymhu2GAs8dVB1n1gjQHnxUb6xeaPWNC4CyKafRXpXGxDHd5alI2pYOe6XzziKdoyQ+3LYOdI4N/qTE83Lg65f0NsawyIMp5D/a76RYqDNtXJoc4Ny9/dqsFmF/wYBToG6+QQf3fnxGYs2xnq+8Ojo+I2lmMfddw2G4dqXjNW52cbTuv3WhOxoN9lFWIfBohh29sTt1F2JAb7bfIK8bcEjYdo4zaWMqON22BtaoL/LscxZiNJ0HvkAIZz+TVXM9bZ0/x/H0Zem830DCcA7j0H+DxgfZumTSy5cQpZc1cE3BviXjGXrLSfsKT6ANCfsTfcRDpA6Sts2HG4ZUVPHRtWbQDAOf0y0vo4gCO4yxdxY1oWc1ds9ZVIxeKZTEr/BUXbO3Ps8QVMm/59hrOBVRvqzHHE+6haV4qbS5g8+Rz7B45vDidjf3ANlwNwgD0HvgTg63++S7EbII1xZ/U1V+7JoKEjcAJs2cHucGOiG99n3cpqb7yO+zZ97O/H7BKu+cE4nL4zN3k0186cRgYEbHd8fME/333Le75cnsZZfcyNcHyLoee7ADdbahpoimm/RV8mX3/Eu8Wt96Vj0FDOdwLsomZ3U2xlAvT5NuMuHw5Us3Ld+3TmWRovDuc4fnDNJd7/uPdx4HNbjKbPo7jiSe4Y0TtweVgeGqteZWWr49pW7azD2yse8RR1mbGcIz5O0nOLqXjyNkZYlgZy0OesNG895i5lXdU++wqJI2idfALOqU/g7YR+gqnOE+yfiuw4rZO7NjZj2E4SvE4OGrcOkkemc92c5TQYrzEnNdnbXnzjb7y0EyCFnGtSGWgvK4Cv/Wbbh212rMVtDGX6RYpbnwxyi9fw5B1p9jdadGHMtjcSOt/AVK7JSQF2siLrP8krep4XfDc8OkaTs67BW8kvn+qtcII6TO1zBcytcEP6AsoavvJ+5mAZuU6Al3jitZ18jYPk71xpNiysCRF4dmxkVakbSGV65rne4GrcwB9+tIAKUsgu3MIhw8Bo3k3ZvAxwFzHzruepDdPm71j9Oe28c7gk2AmRcSnf/94Yhts/cjzzuNn0lxdYD8AQxpzZD/DwxcF9fGFfFwe9T+lPb0I0ki08e+p4z42lzLY4gYHjMshxAjxJ1o2/oqjk7/4bpB0jc1hnGBjGDpZPHWL/cAc6zMG9h+wLgV6cMuBk8De+Y9lv0ZYJfHGQva0Lhd6nMKA3lh+fGMoEoB9njvHuN/d7dewJfTgThsddyV9eeNP7n+EjOHOAr8HbizH5r1Cz9rdMHXmK9SNROMKeuh3eH8qAMmPUIXV4B4hHPEVdZiznCNDjbPJLK1j74FRGnhzhZ3vAmYwZDtDAe3WfBZkMIEEErZND8HzCq8+s9camcwRDB/k6B1o7Puvkro7NGLYTErtOjiZuPdspyhyKa9ICKsggt3g1D089M3yD3PMZde81ADB8zJkMsL8flWM5bmMok2jjFnqM+QWlNat5cOpovKWE0nUxG3rruyvHmVz72yXMS3cCpSyeeT3Xprno4Zud5vmWoAytFyNznvM2Fl67l3S28ELJ8xT97kEWu22rOoYyftp4wE3pqo3s8AAcZseGVygFcGaQmdY/sLd6+AzuzE4hGcAxmPSbzV4O+1W9eBt0DpdmOHGvfJWqRg+eXZtZvxOc5w9lUA/7yseRnXNJO9E2o1MPF+Nmm1dn069mwqjegIfPD+yLYTY/u6/5dOsmb5wwimGuXvYVouYYfBW/fXqB9+pwxWJmZk0mzXWSf/am51+IMCsTgHMqy73DqcO8fL2FwXzJgT0H7AuDiGW/RVsm8PkB9kRVaAxlAtAL17BR3n+WbmLrpy2zUSWCnXPTONE2Q1kP13hmr9jq7XGc9T1G+XIu5/eZMyeTkcltqfr3svX1d73/vGQYrjbmcR1Th1uvzIR57ZhDaqjtjEc8RV1mLOfICTivuZM5l4/0/qZEcsJpDLtkuPc36/UP+dT+fncUdZ0chKee8rt/SlaRGe+zr2VsyKsVx2ud3NWxGcN2QuLUyW2NW8/n7Nvp28Nb2FT5DjWR6rxPP+T1UjcwnEuGnUaoai2SDolbhjB1+Y4gsRr42jEnNcR2xhAPUcdtDGVGHbdDuGbObVw+Mprr9l0Xs6Fqu27N4bychWXVVK15hvzslJY33CuYe/1k0lxTmF9eH6EnsmWK0h6uNK7Nup6Zi73Ve6BejBh/RWAiFnRYpeWyru3k7jFqpvnD0TJ0oVM4TvVeUna/xbv/3Gcmnx01nOQY5cyh8PGZpLapoWv3NYcOmEOb2nMFA4CeOCfeS1lDFWtW55NtuVThXjGX669NwzXpPsoj/RhIECcw4MwR5hXqfRw41HkVcLw5sxfx+Ky0CD9WUfJ8zoE93q7RtvcIe3VMHS7BtfQMs+cAhxJ9J4arkz31lN+dw6RF5m93+i38+qbzw8S76uTEcAzUyeHi9oRU5uwwMA5toTD7VCoWZ5N289NhR2x5Dh1gD4S+yhc1xW18dF3MBomwBOFwknrNjcxZvgXDMGhuqGJNsa9RUMqiHy2lojHUWXGE+pL5pGfMZoUbSM+lsPglqj7eQH6Q8YaOERczzTK88utgwyqjEu9xxxbDR3DmgAGcNS4NqGH95q18VLMLuIBLUwbgOLm/hlYGSCF7yQYadheSMzr6Ixre1xzat9e+sF0czlSuuW4OyxsMDOMrGqpeothXGVcs4Ed/2BB6bLa7hBm2KzetX933WYudYy/7OrECjhtnNksqG9i9fAajgzUk2iKgF7kDtKsOj+JZTkktz508bu3cl8CJXIQ62Z7EOXMofPwXTPTfcxmM6uTEk2h1coS4tUo+m+tmTPEOIS9dyYv/CH2cPYf2sdO+sB3aFbcRn2PqfbU84/h407kx20G/8J3F8gBb1+2U1Lf0GDicqVwz9UZ+fucMb4Lifot3/xlsYC3g2cW6J70PR3TmFLO77EFypn6fVGeIYRYBwysreON9c2iGf1ilzfB8qo62vswc/3HHdicwMGUsGbgpLbyPhSur/fcPOE7uyyD76scL//H5ioaqFeSmO4GtrMgv4uWAh2Fae1isLPcQOPvT95txPo38D6s0H17rb5j1xJn6faZeN4s7Z6cD4C5+l3/Grf6w9PQHaBmb7hzUl2/GtN+iLdN674+Nfwx9Xwb1/UZsZR4DhudXcdQwMJobqFqW6x0y415B/tJSasNNxNMlOqgO7wjxiKeoy4zlHDkORF0n+zSyfdk9/MiaxJU/FLnh3FESrk7u6tiMYTsTScxxa2e575BP2PLRfvsKHeuYjtsYyjzGxHImdgOWWZPcS7l9/lLWW04Wj3sTzzy3PnKvhaVnufdZZzLQtxdC3VQZMLzyv7h/6au0HotvGR+7cxObd3XivXBh+Gf22VhBhRsYM4LTO6qHPuH1xJk6nUVPP+a9+dddxMyJ8wMalye4huGd+6+Kym2+8deWSR/C7s8TOLl/ewagmfyzLoG76F7mL1lnaaAfwV39V557qSbgI/FhifH1VWzzXS3x34TtZMwoF8kx7bfoy2y592cn6yv/6e8tbJm8YBijTk+OrUzvG5ab+9t330yXcjhJnXE/TxffhhNwr7iZiXetsfxYt5Pjm/QfbhmH0yYdVId3hHjEU9RlxnKOxMpy03977mXsEpHrZN+Imokzi8zJTWJJ4o7fOrlrYzOG7fS+kWB1cqS4PUJ9ye24kpJIcs2n3D/SwPp3ekdLhdIho6iO6biNocy46LqYjeVM7AYc9Bl7LbPTvY0J94rZZIw6xX8Zt4drHDf77nNzfpcLvh3kJlMCGyQ7X/obb7iPQNN2SoJNdmJyjLyavNxUoJqKip3AeKZffa4lKKyzAa3m7t+tYnuTxzv8Y36m2QNtPYE7iX9KVK/hl5/HsAQ76vHmGHwtD69dYl7JWMrt9/ytpfHrn2GvmpXPvEG9Bzzu/2HZyg2Ak4xpFzMi5P60NFp37uCjvW3t3rI8BoOtrJh7BaNO7mHG/Um40rJZXOENXGfWBXw7VMOt3TfWW2LcvZZnXv0ED0dwV6xiZakbGM+08UO9lUrU+y2GMhnIuGuu8CYpK0t4tf4IeOqpWLbKe4U84wrGj+gVY5kQcHN/zD3N3U1PBk/9LWvzJ4P5Y33Pmo865l4zSyNg55aPaNsAtQ6qwztispO4xFO0ZcZyjsSq5ab/RO2BDlsnN27gkduXmpNxpJDz2D3cHFUSx/FdJ3dpbMaynSRsnRw2bn3ca1n+/Ic0AR53GQ/cv8z7d1r3fxAt0+2358pdB8Vtuyc7iSUeoo3bWMqMhy6MWfuD5WLVAUXEqNk4tG2Zke1s/fDBlleGMa9st//hkq0fAPmVsbv4toAHgbd6tXqYovWBo6EeBB2uXN+T5qMU6WGqQR8qHOxhkJaHeFofVOj/fIjy44yY4qYTHghu7Deq8icHOVZh4i19iVF1KPwRbXloZaiHjxohjpvdQWNbYU6I2PJtzwKjzP9w5XgJtR1OIz2/0mj5C2PZb9GWaRjGoS1Goe9B1wGvyUZ+1X7LijGUaY2voOd1eMQUy6HO3YAVQjz02Cr8A8GNQ5VGfrr5sG/nbUbx7mBxEU3cWVnqkqDnkCniuRgmNvyvwDo8buIRT1GXGWY/tDpHLCLtX3982R6yHCWijOfWv6s2kbazTXWy9fcs1CvE9piO3zq5q2Mzhu1sQ51MR8VtxGPflrg1DKO5zijOCbbvMXDmGIXbgj+a3s//YOsQdb5hRLHtRpjjYHklbNzGUKZV2Lj1ifS7HL+YjaQTU8aO4iB59Ayeqq5iTaF5P4hfBrmFxZTVrGbhxMFhMu+eDJ66kIrief7PO7PzKa7azf6yed7euvXlvBUwnMNBn7TLmO4kTI9UTwZPXUJ1VXHATGzeskv5c6TnhMSFpQfSMnRC7PqSOuse8s0x7kW357Om/ogZb9NZWvGK5ZimkJ1fTNWztwWfkcqiZaKc9vSiAfRhdM7jVFetpTDX+8hOv/RcCotfo2btryPc6N8R+jA65yEqSpe0zHblzCa/eC3Pzh5ruUIdy36LtkwgOYWcpcWU5mf7nzHmPb/+zOxU6wOqYyiT/Xy05ZMw53UCSk5jVsHc8D3DMbMMMW/X1YyOqMM7SDziKeoyYzlHYrD3I7bspBN6oOMtWJ28u+URGG10/NbJXR2bMWxnQtfJweL2CDjOZOqfS6kqts4Uae7T6scjDw32z9XQnhERHONxG0OZHa4LY9ae2cWqA4qQ49DxEzd7jbLcVAMwnLllRoQ+N+kKB8uMXGew3r3oHD+xbN1Xlqv70o1YRo6Eu3ISxrEfz6qTu7021MnHftxazm3nPKPsYOzntsRRF8ZsZ+aMIsehb5E+81YywP9gdulOPDRWvcpKN5Axlau/Y+3dk1b6XMzM317vvXdm3fthpqeWrrGPqnWluHGSMf1KvtOmKyfHOtXJ3Zvq5OAc9EnP5rcZTnCXsq7KfB6idANdG7Oq5UXizDFiErfkpKjy7ZZ8Dd8Ucm6Z1LnDIRJSL0Zk/oAcpxrB3VLj+6xbWQ3OqdySOUw/8CGoTu7OVCeH5BhG5i1TcaojrZvp2pjt5K8TOQ45hpBxaw7pqny7H1/DNz2HWzOGqEKMgmPwRG6dPVmN4G7H1yvsJH12NhmD432PSwJTndx9qU4OoyeDM7KZne5UR1p30sUxm2R4x2m2WVJSEu0sQo5Dihs5ViiW5ViieJZEpLiVRNNRMdvZiaOIiIiIiIi0kxI5ERERERGRBKNETkREREREJMEokRMREREREUkwSuREREREREQSjBI5ERERERGRBKNETkREREREJMEokRMREREREUkwSuREREREREQSjBI5ERERERGRBJNkGIZhXxitpKQk+yIREREREREJox0pmJ+uyImIiIiIiCQYJXIiIiIiIiIJRomciIiIiIhIgmnXPXKY98m1swg5Dilu5FihWJZjieJZEpHiVhJNR8WsrsiJiIiIiIgkGCVyIiIiIiIiCUaJnIiIiIiISIJRIiciIiIiIpJglMiJiIiIiIgkGCVyIiIiIiIiCUaJHIBnO0WZLpKSkiK/Mouo9Vg+4/u/vRzXfMobfW/YHaa26AazzBsoqj1sX8GraRMFE0aQWbSdUCVJorEe+0gvMza6PNY+ozwvLcj2RfpuOT51oxhvqqW8KI8J/u/LJK+onNqmUGWJeHlqi8hsFa/BXi6z3vTFoTUGrbGZRl75Z7ZvadHyfb7yfI7grl5J3gRfGyWTvKK/Ue0+EvB5kba0Zb1xFxhz1th35ZXTaPsaP+v3WetuO89HlMwcE34daTMlcvHi3kHdnhAVraeODas22JcG8tRTvvDXzK34wv6OSKB4x5rnM+rea7AvFek8bYnxpk0UTEln0szFVPgXlrJ45iRGTXmYaiVz0qkaeK/usyAdZQCH2bHhFUrtizmCu3wRN6Zls7jCbS4rZfHMKaTduFQxLHHnfq+OPSHCzLNjI6tKfXEZyhHq1+Rze9FW+xvSQZTIAThGk7OuAcMwzFczB8vm4SSV3LK9luUGxrocRkbaaxenk+7cwKoNdUErbW/wu0hPH25/CwCP+00e+vEVTFrUulqXRNeLkTnPBcbUwTJyneDMLeOgdbnxHDkje9kLCNQZsdbUQM0Wd5DtMzAaFjKxT6QTQo4v3SHGj1BfuoIlFaeSnf8KNYeavd93aBvFuRlQkc/852qDlicC4BiZw7qAWN1LWW4qOOdRdtCMJ8PAMBpYlzM6QmMqlfT03pSu2siOYEHnqWPDqne5OP1inNblTe/xzP1PUpE+j+Kag97va26gckk2TsWw2HVoW9bpjcfSV9iwI9hIHrPz4eJ00gOCNpCn/m/cc/tSIqV70nZhD6O0UfJ/MPmHrhCVthn8Gd9n8gV9be8dwV1+H5Nc45m9/gIWLcoOrNRF7Doh1jx76njP7WTMKBfJ9jdF4q1NMd5ITeXbuDN+wa9mZzIy2fypSx7N1F/lket0hyhPJB6GkDn5ipCNYm9nxBimTP6OdSmNm9awpMJF7q9nM3VkH+9ih5O0yZcyxrKmSDwkZ07hh6E60czOh4wpmVxgf8+naRNLfpTLrjsfJz8jVAtD2kuJXFwM4XtXZASvtH3BP20i550Q+BY0sm3dRs7If4Wa2kJuHTvYvoKITbxjzUPT7h1swcX5Q7+lCkO6QFti/FtMfLAqeK9zsotRY5w4zx/KIPt7InFxIqd97wqmB20Ut3RGTDzPTNYAcNBn4kIajCoenPitlsVNtZS9+DpbGM+08UNVJ0v8nHYRV0wP3onm7Xy4gGkTU2jVvADgANVP/Ia53EbBrd+jv/1t6TCqA+KiB30vvCxope3ZsZFVW24g77qz6WFZ7vUtJj64juVzLD3IImHFO9aOsKduB26GMODAGxTMGOO9sdk1g4KSatytuulEOlpbYzw4j/tD3txyKleOG64rzNJ5+p5HZrBGsaeODavqyc27htHhgrixnDxXEkknjyLjpUEsqnqYmyMNSxZpl9O4MDNYJ5q382FL7iyuG93bstzHQ1P1U8yZC/kFPyY1bBtD2kt7N176nBuk0jaDf/plpOm+IukocY21JnbX7ALWMDcri7krzBuW3SuYm5VG6k9KqFcyJ/HWUTHu+Yg199xL0agcbs0Yoh9A6USnkhakUeztjLiUzLTw1yy8Q9zN/1Qs5uY5j7KmNuR8giIdwEGftCCdaGbnw/TMc7FeQ/ZrquKJOc9wRuEDzEq139YhHU2/Y3HTv3Wl3biRwrt3hQ5+kTaJY6z5Zqx05lC4zbzZ3nLDPUULeaQi9JTaIh2jA2LcU0/53T8l6+WxFD4+U73E0smCNYo/o6Lwj1F1RrRMvtLMoZpicllG1i2FmrlS4qtVJ5qHxooV3B2q88GcBXvJsPksvDlFox46QfiaQ9rBXml7aKx6lZVkBA9+kTaLY6z5ZsFqKCRntKW57HAyduYMpjurWbnu/dDPmRHpEO2McU895XfnMGnZ6RSWPxQYyyKdxd4obnyfdSuJvjMCAAfJI6/lV7++GWfFMzy3aZ99BZEOZO9E20fVulII2vlwhPo1i/jRsm/z2G+uYrD9bYkL7eZ4Cqi0wwW/SDsp1uRY16YY99BUu46CH1/BpLdSKa5QEiddydoo/iK2zgiRLmHrRAvX+eDZxbonS3C7l5J1+kktDx/vcRYzS91QOpNRPewPvJf2CvcLKO1mqbSr3g4d/CLtFp9Y89QWkZkUruLVYwmks8Qa40dwl9/PlFFXsIRZVD67oGUKd5EuYW0Ub6IybGfEYWqLbiApKY28cvvwdd8kVMMYdbpqX4kzfyfa/1BVqc6H7iZY7SEdpqXSLsxbpOCXOIpPrDlGXMy0DCi9O59l2y0DKD31lD/wIIvdmgJbOkssMe6hqXopN05aQE1OMe88dRtjnT3tK4l0Pl+juPA+FobtjOjFiMwfkOOsZuXyl9juvxfOQ1Pt3ylcuQEyrmD8CM1cKfHm60R7kryFz4XufGj1QHLfPfXbKMxwQkYhNc0NrMsZrTZDB9K+jDez0t5YsTF08It0hHjEmmMkNzy8iGyKmHnWKZahEqczaVED2YX3cIOmwJbOEm2Mez6h9I9FVADuoixO72HGrfXlmk95Y/DrzCLxYzaKN1ZQEbYzAhyDr+I3j90GK27mrJN7mLHbg5NHZbG45koKH76u9XMSRTqcrxOtmoqKvmE6H6QrqAqIO7PSJlXBL3EWj1hzkDx6OksryijMzfAvdWbns7qsmKU5mpVKOlOUMd60k8qXzUdliHQrvkYxOMN1RgDQk8FTl1BdtYLcdKe5LIXs/GKqqh/X/Z7SefqcS+b0VHCG73yQzpdkGIZhXxiLpKQk2lmEHIcUN3KsUCzLsUTxLIlIcSuJpqNiNlxXkIiIiIiIiHRDSuREREREREQSjBI5ERERERGRBKNETkREREREJMEokRMREREREUkwSuREREREREQSjBI5ERERERGRBKNETkREREREJMEokRMREREREUkwSuREREREREQSjBI5ERERERGRBJNkGIZhXxitpKQk+yIREREREREJox0pmF+7EjnMZK6dRchxSHEjxwrFshxLFM+SiBS3kmg6KmY1tFJERERERCTBKJETERERERFJMErkREREREREEowSORERERERkQSjRE5ERERERCTBKJETERERERFJMErkREREREREEowSORERERERkQSjRA7As52iTBdJSUmRX5lF1Hosn/H9H/DUFpFprufKK6fR/j0+1u+zfN6rkdr1DzHDZX6fawYFJdW4A9aRY401dsK/XGQWbcfDYWqLbiAp6QaKag+bpfiWJZGUlEZe+We2b2nR8n2+8oI5QHXBVUFiVCQcaxxGepnxG6Q+DagnXfMpbwwVhNbvs54PQFMt5UV5TPB/XyZ5ReXUNoUqS8Sre9bJ4KkvYaYr/DpynGpDW9Ybd4Hx1P627GeU56W1/s6kSHW5tIUSuThxv1fHnhCx6tmxkVWlbvtioJHtRb8gPWM2K3xvu1cwN2sKNy7ZRJNtbZHQGniv7rMQP/SH2bHhFUrtiwMcwV3+MHPmvmR/Q6TzuXdQt+eIfamXp44NqzbYl0LTJgqmpDNp5mIq/AtLWTxzEqOmPEy1kjnpVO2tkwHPR6y5516KgjUfROKgTW1Zz2fUvddgXypxokQOwDGanHUNGIZhvpo5WDYPJ6nklu21LDcw1uUwMuxec3Jx+sU4S19hww5Lz7CfWWFfnE660/ZWYxVP3V0E2cvYdqjZ+33NuymbN4aKuQU8Z+1plmOKY2QO66xxZuylLDcVnPMoO2jGgmFgGA2syxkd4cRNJT29N6WrNrIjWAXsqWPDqne9cWp/D8DjZtNDPyF10gJLA1gkWr0YmfNcYL15sIxcJzhzyzgYEOfPkTOyl72AQBenk+7cwKoNdUEbwd7GhIv09OGWpUeoL13BkopTyc5/hRpffXpoG8W5GVCRz/znaoOWJ0J3q5PBG9Nr8rm9aKv9DRGv7tKWbWqgZos7SH1vYDQsZGKfsF8sMdLejIPkzCn8MFTDw6ywM6ZkckHgGzRWvcpKdyrTZ0xmdLJ5aByDSb95GhmEKE+klSFkTr4iZAXsbfiOYcrk79jfwuNez/xJqYyb/S6XL1pAtr2CFulsyf/B5B+6QjSCzcZExveZfEFfy/JGairfxp3xC341O5ORvvo0eTRTf5VHrtMdojyReGh7nezloal6KT/KquPOwt+SYX9bJA7a1pYFz5463nM7GTPKRbLtPel4SuTi4bSLuGJ68IaHt8K+gGkTUzgh4B0HyaePYEzAMisX5w/9lg6YROFETvveFUwPWgG3NHwnntcn4B3w0LTtNZ47Yy6lNW+y/Nb/YJBtDZHON4TvXZERvBHsa0xMm8h5ARXqt5j4YFXwXudkF6PGOHGeP5RB9vdE4qKtdbKpqYon5iyF/Hu4dbx616STtKkt66Fp9w62qM3aabSP4+I0LswM1vDwVthbcmdx3ejeluVeDlcKl6c3sHL5S2z33b/hqadi2SpKnRlkpvW3f0QkuL7nkRmsAvbUsWFVPbl51zC6h2U5AA76TFzIjuW/4PKRIRoUIp2uB30vvCxoI9izYyOrttxA3nVn0yqcQ/C4P+TNLady5bjh6i2WztOmOhnvpFNP/Ia53EbBrDTFrHSitrRlj7CnbgduhjDgwBsUzBhjTnKiifviRYlcXDjokxak4WFW2NMzzyVoMzl5LLOfXc1cCjjr5B7e4O9xOpPeSqW44pcaVywxOJW0IBWwt+F7qToFJLH0OTdII9hsTEy/jLRo60bfZBGjcrg1Y4h+AKUTtaVO9tBU/RRzlgyk8PGZpPqGCIt0ira0ZZvYXbMLWMPcrCzmrjDv6XSvYG5WGqk/KaFeyVyHUq0QL60aHh4aK1Zwd8gKG6CRHW+9xIu+wPepWMsLL21RT4bEIFgF/BkVhX+MreEr0i30b90IbtxI4d27QjQmgvDUU373T8l6eawaxdIFYq+TPe4yFs55hmGP3cPNo6OKcpGOFWtb1jdjpTOHwm0HWyY5aW6gckk2FC3kkYrQj+GQ2LWuOaSD2Bse+6haVwohKmzw0Fj+AOlZ1Ywt3sYh/yw/B6kpnsLHs6/n5mV6bozEwF4BN77PupVE3/AV6TbsjWBzciiiHHLuqaf87hwmLTudwvKHyFGjWLpCLHWy5yPW3D2bZcPm85trz1RjTbpIjG1Z38yZDYWB9azDydiZM5jurGbluvdDP5tOYhbkKEjHsDU8wlXY4D853BnTmHntaMs4+D6MnDqbX+fahxWJRGKtgL+IreEr0t0ENIIjNCb8PDTVrqPgx1eYQ9SVxElXir5O9uwo48mirbiLsji9R8sDlXuMmkkpbkpnnkWPgIePi8RDrG1Z6WzhfgGlvfwNj/+hqjJ0hQ2Wy9HhbNnBbj3EVqJmrYA3URlVw1eku7I0gqvejqIxcQR3+f1MGXUFS5hF5bMLmKpJfKRLqU6WBBRDW9ZTW0RmkovMolAjyPRYgo6m2iOufA2PJ8lb+Fz4CtsxlPHTxsOW13lxjXVmnyO4y5dy/+JqnOE+LxKMrwIuvI+FERu+It1ZSyO4MG9R2MaE77lbN05aQE1OMe88dRtjnT3tK4l0vijr5NYPJPe+mmsKycBJRuE2mo3nyBnZy/5RkQ4WfVvWMeJipmVA6d35LNtuGUDpqaf8gQdZ7B7PtPFDlXx0IO3LuPI1PKqpqOgbssL26sXIG+aQP2o9c7PScPmHUpyEa9ICKpy38did48N8XiQYswLeWEFF2IavSAIwG8EbKzaGbUzg+YTSPxZRAa2GpvlfrvmUNwbvMxaJH9XJkmhiaMs6RnLDw4vIpoiZZ53SUt/2OJ1JixrILryHG9T50KFC/ApKh+lzLpnTUyGa58Alj2XO2grKCnNJ9y9MITu/mKrqJUwdrB5liZWvAkZXdOUYYDaCSQ3fmGjaSeXLttl/RboF1cmSgKJuyzpIHj2dpRVlFOZm+Jc6s/NZXVbM0pwUDavsYEmGYRj2hbFISkqinUXIcUhxI8cKxbIcSxTPkogUt5JoOipm1RUkIiIiIiKSYJTIiYiIiIiIJBglciIiIiIiIglGiZyIiIiIiEiCUSInIiIiIiKSYJTIiYiIiIiIJBglciIiIiIiIglGiZyIiIiIiEiCUSInIiIiIiKSYJTIiYiIiIiIJBglciIiIiIiIgkmyTAMw74wWklJSfZFIiIiIiIiEkY7UjC/diVyIm2VlJTUIQEs0tUUy3IsUTxLIlLcyvFKiZyIiIiIiEiC0T1yIiIiIiIiCUaJnIiIiIiISIJRIiciIiIiIpJglMiJiIiIiIgkGCVyIiIiIiIiCUaJnIiIiIiISIJRIiciIiIiIpJglMiJiIiIiIgkGCVyIiIiIiIiCUaJnIiIiIiISIJRIiciIiIiIpJglMiJiIiIiIgkGCVyIiIiIiIiCUaJnIiIiIiISIJRIiciIiIiIpJglMiJiIiIiIgkGCVyIiIiIiIiCUaJnIiIiIiISIL5/+glkFVt1ORLAAAAAElFTkSuQmCC;" vertex="1" parent="1">
          <mxGeometry x="40" y="60" width="644.16" height="130" as="geometry" />
        </mxCell>
        <mxCell id="Ync8aqMZyCeplK1bt3V_-2" value="" style="shape=image;verticalLabelPosition=bottom;labelBackgroundColor=default;verticalAlign=top;aspect=fixed;imageAspect=0;image=data:image/png,iVBORw0KGgoAAAANSUhEUgAAA3gAAAGtCAYAAABEAtb7AAAAAXNSR0IArs4c6QAAAARnQU1BAACxjwv8YQUAAAAJcEhZcwAADsMAAA7DAcdvqGQAAIgESURBVHhe7d1/fJP1vf//R4JD5mr9rVyFKR9lLe5Q9dgOd5QzQztaN2XybQU2lRbbj8MNJkc+tB2Izqmjo+2pRwfz16cRyvSMH+0HhkxbbIw7qIM1TKUbtEMPbrbBI0Mo3YZok+8fSdoradJfpNAmz/vtltsNcl1X0jxzJble1/t6v98Wr9frRUREREREREY8a+gdIiIiIiIiMjKpwBMREREREYkRKvBERERERERihAo8ERERERGRGKECT0REREREJEaowBMREREREYkRKvBERERERERihAo8ERERERGRGKECT0REREREJEaowBMREREREYkRKvBERERERERihAo8ERERERGRGKECT0REREREJEaowBMREREREYkRKvBERERERERihAo8ERERERGRGKECT0REREREJEaowBMREREREYkRFq/X6w29U0RE+u/+TS2hd4mIxI2f3JYcepeInEZqwRMREREREYkRKvBERERERERihAo8ERERERGRGKECT0REREREJEaowBMREREREYkRKvBERERERERihAo8keHMXUu+xYKln7eJFS4+C32MiD7DXXvPwLc1/U393mZAPHS0OLCXZHe/tqR8KmpduD2h6wK00+KwUzItqWv9pPwKal1uwq7e0YLDXsI0U269rt8fH9ezdVYKK/p5e/JXTXhDt1tVTwcAf+fgr/KCt/luJQf+HvrXfcJhx7+FPPaPaP64M2S9k9FJx84f+R87j9+++/fQFeLUqczlVD6XjFxumldN9+0nC+0cjObXgIiMOCrwRGQYOYHb8QgzUjIpLKvvvttdTVFuOml319JqrnM8rTiWzSIls5Ayp9u0ehG56VncXft+UNHmcW9n2QwbmYVlOE33B9a/y97kL7KGmY9f57/fOxp8n6eVv7zRGHzfiNDB4Z1bORDVQnSkiOfXLtGj/UhEeqcCT0SGj463eP6Rp33Fl+0hGto+wdv5AQ1LswBw23/Eg5sDRZuHjt9v4JHSesDAtrSetk4vnW31LLUZQBP2heVsbj3hf/Dj7H/pWUqdbt/65Ts55g1ev3r5U9R3rT+cfMiH//Nx8F1H9/Pntz8Kvi/qRpFw3Y9ZtrGZZRur+eoVZ4WuMDAf72bXqu/wVEUjn4Qui3WDfu1Rfg9kZIu4HxmkLNzu209WFTB2VNBCEYkzKvBEhjMjh7VeL96u2zEay23+hfOpafvUtMzL/iVpnBHyECOJ59govjR3LjYMsubOwWaMBus4vpY7nSsAaOKlne/6W9k+4xhfYm5xFjCVufP+FcMKVuNfyL05xfeA7t+ys7nd/+gf0fTabv+/v8UP7riWBELX/wPvHRxEgXdeFjM2NvsPwptZtvH3FMy9zr/w2+Q+80fTsma+963JWEIeIpKEf7qO8XzEe2/s5nBXc6SHE61N/HfwqsPc3zn4X//BK6+1hC6IA/H82iV6tB+JSP+owBOJOSdwu2qpyE8N7qM3rQS7o6WXSxA76WipM22XSn5FLS73AAoejxtXbQX5SYHnTWJaybNs6Wf/NquRxq0FK3nV20ZdwaQ+vqBGY6TdQsHKOrzeDRQkjwldIcTnOXfsuaF3Dnufu/oWUq++CN7ew0dHA5dkHaXtrdfpYDL/8r3lpIZsA+0c/NX8rr55TzxZT0fgDfC8x9uPTvUvm8G2na0h25pF6v9l7ieYx2/fPUrHu/X8dtWMrsfd+qt6Dn78qf9hmvjtwn/Gvm6nf/tfUvPdL/fsM/hxE82/KuGJrj6FhbzqeLX7cfy879p5clYKK2ZNZ+vOFv7quN+/TS6vNn1sWu7r79gZ8rhPrLLT/G6Y1k/PRxzcaWfrdwPPn8KKWVP5xS82caAt8ienV3299s4mfrvQ/1yrXuZw6//rev4nfvFbTkR8D/yOH+CAo4JfBP7ehyrY867btM10tu7svnwZPHza9lve/kWh6fVt5uDHf+7uwxX6vvBpyPvre563f9fUvV/59fXe9M7Dp2072Re0D4TsS/1a/9c93y9zzgvtHPws5L3+bgm/3RnyegazDQwoL58ODjf9Onj90Mfuaz/qsw9ehOd4cyeHjwf/UYP+/IjIsNH78ZOIjDAnaK1dTFp6LkXVTcGLnGUUZtqYUbErbJH3920l3Jxyk2m7JqqLckm/vRRHf4q8jibsd2WRnltEddfxpBtn2XeZeRL92zzu1/nZE2t5F4CbWTz7WhJDV+pyAveutTxR6e9hZ7uD2VPO9y87n/TsLAwAXmfLS/voADzuN6nZ1uxbJWsu3/rnBP/6w8SoizhnwiVAE22t/tZIz8ccPfAh8EXOv/js0C2ARMZmLSDjny4CoMNRQ9N/t/sOPH/3C17zX9qZkPEDbvzKuJBtB+pjPnxpGfYf/gBHV8tCC3vW/YANv3w1wgFtKA+ftv4/tpbkUrNus2k/2cGbT96DveQh3m4Nt/f8g49f+hHPP7nJv80XOf/84EsYP/3vdbwY8rgdr62kZuWTNB82FQ2eVpqfLsBesZI9QXXIR/x5y/28sOj/8Nt3A63BQ+TgC/z6xz/0P/9FXJx0MaND1zE73sLb//cHvPDks/w5cN8fnmXrD/PY/FLI5x/8OW/h5Yfy2bZlh/++j/jzlhLsJSX87uA/QtYH6OCvjodC3l/f82wry8X+8//HX0MKBJ++35tgn9LR9HPWL8qjNmgf8O1L9pLS4PeLDv7qeIAnw65/Hy8sWoSz6UPT+iYnXPxudch7/fFmHBVLee13EU549HubAebl+ZAD/7mIp358X/D6H2/GUZGL/WnTyZnBOt7C26u+E/45KvN46qc/50DYAnoAnx8RGVZU4InEkvYdPLFwNW5TnzSv14v3aAPFBr6C66nf0Bxm6Eu38xATq/ZwzOsN6veG8yHu/I8d9H5oewTXUz+ksLoJyGJpwwd0er14j+2lpjjLVywWPsyGluOhG/biOC322YxKmsri6iYw8qjc+SyL0yK0wnn2Yc+eQNJ1C6l2g5G3ip0vLCAtIfA1ZyUx44c46yvJM5qoLkzlbIuFUUlZlDrBVlxN45o7SR5234rncdGXJgNN7HmrmRMAB3ez9+2P4JKruMSIcNA8ZjJpc/83lwLgZFf9b+n4+16aXvKP1nneHWTPmUZXPIPWwh/eSeCrpTt8l6A+/TOuPs+3pMPxa949+AmMmsxXV4W7bPXHpJw3Co434Xr2330Hzv/0A25/pollG/dS9PjP+Jd/ugg+3sS25142XaIa8BEf/OEsrvrRb3zrr1rMFWPPDFqjY8cfsX7rP7l3fTPL1jvIzUj2Lfi4nt+/9Rf/Wh5O/HE9dY4WYCrX/+g3/stp97LkR/PxlfxOfv+HP/tGPx2Ivl67WfN7MM3u+1vXrSfrn78YvDzIJxx+4+ds8x+wJ9z4U+av28uyjS7uWfIN+EOYAs9zgD8+58+ZZFK/t5Wijc0sW/cSuV87iz83h7bKePj03U289OQmOriIS3P8f9tGF/csmc+lQMdr/872Nw6EbEe/3psgh1/ltSd+5itU/2k+uY+7WLaxiXtLf0TqecDHz1O3PnDCwPx3QcKNP+Ku0H2GHbzx41LebgvT4/HjV/jvUd/xb9PEvUvu8L/HLby9/c0w+1l/txloXp/S8bun+VXtDuAiLr31Z9yzbi/L1u/grvyZJAAdjp/5CsiB7EdB2jlY/+/+/SSZ1Hz/Z8H0N/GHn/HC6i1hX3f/Pj8iMtyc9E+7iAwjiRmsbPPi9bbx6oob4fe/prb2BSp+sIiyQKva3w9ztMeQ+2AU/JgV8yb7Dlqs48hY9gjlNl97l3vdKzS299ymS/tuNlRuA8AoLuGHGeN8Xy4Jk8j5t/nkAbCD9TsO9OtSTZ/POHbYdMDp3s1bv3mH/ZFOZ3v+xuF3TSNpbt/Fb5oOBLcaev7GsbaD/Nl8xRr4Ct9de3n/2EAK0FPhIs5LSCThi6lcDnT89o8c7uyk4y97eA9I+OqXOT/it7iVz11xG9/43m3+A8Vf8Kq9AscfPgKSubqwkJTzPxe60SBcxOXfns+Uib7WQs6fStotgYPQw/zjHz2uFQvh4cT+V9j1h4+AyfzLbXcw4bzP+f7+pEy+8o1M32pv7+AvB8McrN84h/TJl/jWv+TSngXr1fnc8M1rffdbx5Gc9f/hqz8/4uOOv/sLNiujJy/m3o3NLNtYhe3LVg7+rp7mN9dQ98TTXfvQp+0dDG2bRSZfuemrvr91zDjOP6+X98c8iup5d5B9+y1cMMYKJHD+dXcx9dbJoVt0nxjwt95OsyXzOYAxl5OSczf/4i/Mux2l9c2tvqLrvBym3vov/nwTOP+67/CVGy+FHv1DTfp6b7p8wuG3fs3bH+PfB+4iJSkB+BwJE79B6td8r6XrhIHHzXv1Nf5Wy29wY04uRtc+83Wmdp3YeInXHL/3nRQJYt7mcySk5zDlEv+ig+2cCFvF92ebAebl+Qvvbg+ccMlhas7XOX+MFawXYWT8f77Ctreisz8O/xbXi/4rGsyfBRI4/7r/zdfn+vt0v/2fvP3HMJfQ9uvzIyLDTcSvWxEZmTxuF7UV+SRZziQp/WZyc+/oeblmDwapN3wZw/yNkHA5105J8v3b/Sa7/xR5/i3PwQO85S+a3GWZnGPu+5eUS7VvCfWv/ZEIF02FkUDaklfxej+hbecqX6tb0U3YFm0Onioh4Iw0luz34u1sY2dlHoa7mqKsXBZ1TZVwgtbNP2HGvDKcTCbP31rZNYqms5Rc2zJqh9Uomp/nC1/4PJZzx3PJecCH7/Dhh//DoT81dV/Cl5jERYEDzR4SuMD2fbIzkoGd7Hltp6+lIOeHUbg0M+ASLrm4R2UwAJ/S8T9/9hdRTbz546929xGa9WWeqPilf70/8Oe/HA7aEuC8S5P4QuidJgkTxvdSWJiZ+k3NmYq97AfUVIZerjnELrmMcxJ7a40xOf4/HP6z/wTIpV/monPNxeA5JF1zg7+FKcDDicN/5n/At++kTAzO5awU/pe/kOrSdSkw8PHTvJB/pem9sVHzmv/C0KD+od36em+6/Z32tkBrUOilnOcx4c4af4vqf3B10plw/C+0/d5/qeHVU/liUMuglc9NSGei/zPhOyliWgxw3qWcE5RXP/Rnm4HmFfQeXkriGNMbctZXmfaMf2Cm5bf1ciKnNx5OtDXxrv+S38uvvzbkcRK55J+u8xdsTex7r7VHwdb/z4+IDCf62IrEko5dVN4+g9yiatyAkVfOxpptNP55B+W+YSjhrPM556zQj/5ZjD33CyFfCGM456Jw/bt68hw77O8jNxRGY0zJ597FvjPNbvsKnnAeCl2pm9Vgyg/uZfEV+KdKeBpnu8d0+SqQdR/3+1srrUYmP3xgnq9vnruWp+veG0Ar4yly1mUkXXUp0MjenVvZ/5sm4HImXDY2dM2erBcz7tqvmA7200m9MT2KB21f4POfNx9gn0nCJf/L9P++dHKio2fh1j8XcV7CWb2OSPq5xARfK5Wf5fzxjDf938fDp+8+z+auflPJpM6tILe4hh+UlvgPgHs+VtSNTWR0by/G7JN2OgLF57mJjA56P6187vPnhvytXk787ai/kPadOAh2JmMSQ8ox79/5x8HQyzb7q+/3pttxPjkSuAj8HMZ8vo+xgHt97cCoCzhvkq8NL6zR5zLmTNNGfa1PP7cZaF59vY6T1td7Hunz0C10n+9rfREZHqL+dSIip4uH9l2bqfTP85ZVtZcP1i7htpxvkmb0NcLku7z+3v8Q3DXvOEc/Oub/90Wcf3YfB11+V5Q38mnQ1A6m29oc/yAnAzWGpMv9UxlwhINHwg0GYXLGxVx+g7+idR/myN888LcjHAxcmjn2XM7u+vazctY55+NrM3Dz7uG/Db8Cj/O56Mv/5Lu864V/Z9fHwHnXMLbP99Xft6nqedOlqi/x2pbXTn7ghiFxHRk//X3QlBLdt+3MuC507wl/0Dpwpkvr+AY3P76JGd+aQcpXJpPQvwolOgZykH9mIgmByvNIOyeC3k8Pn/7jSMjlpBZGf+Ecf6H/D/72t9DP0Cccb/9byH0ml5RQ8MvQ9yRwC9cPbCDvzRjOPDcwdNJRjv8jTCdhs15fO9D5Vz7e1zXszOnRn7z6eh0nra/3HLyHP+CD0DtFZMTr70+JiAx7f+dPu9/0tVCRwvSrx3d/wP9+lI8iX2EJwLvb3+Y98wFGx3vs3tXm+7cxkQljI4/nd8aXriXXf+wd/Dge2h3LSPJPmZBt39dL8eShY99a/xQL6ZQ4zK10R9i709/fiC+Setl5QDv77IW+x05ahsPcR7D9T+zc7m9TvGIil110BnzhXMYG6oODRzhm+hv/fvQwvngMrjg/tCXzdEok4QtjfH1+Lr40+JK70Eu6wvG00rz+Z/6+TZdy6T8F+jI9zOYX3xni/mT9NYbzL7/G/9re48D7B03LPubAL3L9l7j9W/gBM6Khs5WDv/VfxnzJVVxySaBFMlyhNEyMuZjzL/X3e/zzH/noiPmvDEyjYWZl9PmXcjEAH/E/zfuDi/y/N/Pfvwm5lHvUOMZ+1X/Z5ofv8OGHpvz//lteDUwX8OimwfcRA+AsEpMCA8q8ywd/MX/2P+Gw49/8+4B/qgXza+/RN9PDpwca2e+/UjLhq1/m/NDac6gMNK/e3kPzdCbfreRAmH7TfQt+z3v2lWznwz/sxNeIOJlJl4/rZ4uriAx3fRwdiMjIYW7lclL583pfX7WOfdT+ZGX3ICuR1D/GTx5/HbfHVxg4VjxAkdO3kTH366Qn9vJ1kXgtsxff7Pu3+XE6GnnmkTW+otOYR8ltyb1/6fztsH8AFBdlj1RS29Lum/rAsZpHyly+dbqmMvDwt8Mf+h7bvYZHfrKZlg6P72//aeD1GmQtu4V/PgNIvIrsuWm+x6h/jJ+s8U3b4HG/SdXarf7CeCpzpk7w/41/oTZ/oq8f4cQKXH00KgyNwOWPVkaPm4z5wsfzrprEedYIl4qBf4S+Kv/IkJCQUcTM4h/5p074iD+vW41rqIf9j8jcSmNl9MSvM8X/d733y6fZtf8j/2WTW9ixxVd0JNz6ba5M6mUUxpNhzvDD/4ersdX3/G2v8Pqm2pBC6WT1o4WqP6zj+OL16b5/f/w8dS+86B9+v4PDO5/ryi3I2Gu58urA1Bk/41Vni694Pf4ezbXP8maP/obnMO5fZnQPWFJbg/vjT30jM77ynH/9yfzLzMxB9hELOJPzr/mmf/TVFt5+aT3NbR3+9+A13v6N/+TOP83gyonngHUCV87M8Z8UMP9dvvdsx7r/6x/o5A6yv5nW+1QTUTXAvKxf5IrpWb7X8XE9v/v1q/456To4/LvN7Hn7I1+f2Vu+zrgel9X3cz9KyuSrgQF33l7L67/e7S/sOzi88//yyjrfACwJGfP5ypdPpi+tiAwnod8YIjJinYGRVdA98qU9l/GjLFjOvpLcsnex2fzFzbv7ef+jngcGhu1C9i+eStIoC5ZR48ksrfctsD3EL/5tai9zzwGcS9o9D/qfu4nqwOOcfZ2/SMxi6S8WYOutSMRKQlohT1YV+C7jdJaSm3IOFsuZJGU+hBPf39LQNZXBuaTd81Oq8ib7RsEsyyXl7FGmv93AtnQta+YFJky/ENu/lfoGVME8TYJ/GgYmk1f1ILP7nDD9NDlnIpf6D877Ptvu71NW4b80MzAlwlnBUyc41lVHnP8q+swtdS+xbdFV3a1y5ikdPt7MK0unsmLWlZT/sNQ/bP4P+NbNQ3mgfgmXf+MOfy4tvF2R4Xv+RT/gzbYvcmmKL/eP/9xGLxcx9qKX1z5oZ3L+9d/n5ht9w9Z3vPZDnp57JStmpfFUxVucc2NgJFMT6wS+fNf/6Rqdcc+TMyiflcKKud+gZv95pPrnTTRtwOeuyOkaabHjtR/z3Hcns2LWV7Cvc/oH7FkcncLg/GnceO8P/MP2P03NorTu9+APHwE2MubmMHaM1XdSYPJ3uSMwQmzX32VefyrX3zs/SiPF9tdA8/ocCV+Zz7dypvrnI/wBT3W9h0/79/3/zdezJvv7wQ1mPzqPCbeV+veTFvas/Q5PzEkJeY4f8K1vR2PKFBEZLvRxFoklCVNY/MJm1hT757DzD7RS0/ga/++B7km+t73Z2uNSybNufpRfNtZQnhcYSW8yeeU1NL6wlAyjH4fWCVNYstVJw8Zy8kxdpXzPv4ZHA1Mn9CqRSQVP4mrcSpXpNUAWxVUNNG99IPhvSZhMwXP1NG5+hmJ/YQuArZiqBidbV0wPGhnUakxnRcS/sZ7nCvzTRAxH1vP8E54TZqTBEMebcAVaMYKmRAg+AOUPP+NX/Z6M/GRZGf3lucxecLe/kALOO58x/gP2z12Rx5zHq8mZ65v/yyeZ1Lk/o2DRfP/UCUPFyueuuIOZP13pn0ON7ude+R9MneTP/Z3f0jqoyZ17e+0nYUwyV//vn3H797ofN+HGpdz++M+Y9pVwA91Y+dy4W7npobXcfOtU/33JpM79v9zzw/tIvjBcn7lExn7r37nnR4+R4S8mAThvJhlLnmLmnBuiVBh8joTJ34+wDzzG7Y//O1+9wnyaKYELMh6i4KfPhFn/ZxQ88xS2yRGHlx1CA8zLegkTvvN4+PUXV3PPD/P8RS2D34/GJHP19+0UFFf0fI4lNdz74MIh/nyJyKlm8Xq9oaPiiojIANy/yT9ku8iw0EnHzof9U0xcSuqS6jAD1IRy07wqzz+U/7fJfebBMAOniIT3k9tMhaOInHZ9nPYRERGR4cc8AE0KTzxZ390Se/xd3v3dbv9//olLv3i+75/mgT5mzWDbzlb/Oh4+bf0tLe/4R568OpWLzlFxJyIyUqkFT0TkJKkFT049D5++W836QD/FsC7i0rk/Z863rvL34Wrn4K+K/P3BIrGR8dPykMshRXqnFjyR4UUFnojISVKBJ6fHp3S8+wYf/OHX1K/bHDTaZ8KNJWTZMrhi8oTgCc89H3HQ9VsO7HzGP6l7QDKpc79HavrXmJA0bHuiyjClAk9keFGBJyJyklTgiUg8U4EnMryoD56IiIiIiEiMUIEnIiIiIiISI1TgiYiIiIiIxIgh7YNnsVhC7xIREREREZE+DLZMG/ICbwgfPi4p0+hTptGnTKNPmUafMo0+ZRp9yjT6lGl0Kc/oO9lMdYmmiIiIiIhIjFCBJyIiIiIiEiNU4ImIiIiIiMQIFXgiIiIiIiIxQgWeiIiIiIhIjFCBJyIiIiIiEiNU4ImIiIiIiMQIFXgiIiIiIiIxQgWeiIiIiIhIjFCBJyIiIiIiEiNU4ImIiIiIiMQIFXgiIiIiIiIxYoQVeO20ONZTkZ+KxWLx31LJr1iPo6U9ZN0OXBXTfOtMrMD1WchiERERERGRGDOCCrx29tnvw5b5bYqqm0z3N1Fd9G0yU26nwnXEdL+IiIiIiEh8GTEFnqdlE4sK7bhDF3TZRtGS53B1eEIXiIiIiIiIxIURUuB9xodNu6gHYDJ5lTto6/Ti9XrxHttLTXGWbzXn82zYdTh40zA8bhe1FfkkdV3maSEpv4JalxsPQLuDkiQLFksS2fZ9vvu6Nt6HPTvJt02Jg64LQz1uXLUV5CcFHjObEruDFhWcIiIiIiJyioyQAs/sBm799nUYgb88YRIzC+fgK/GOcPDIP4LW7qFjF5W3zyC3qDqoNdBdXURu+t1Uuo5A4rXMXnwz4KZ+/RvsN9Vonv1vsL7eDaQxN/sqEgE8rTiWzyM9t4jqrgetp6wwE9uCdexTkSciIiIiIqfACCnwzuCS67IoMACeJvf2+7HX/hqX+wQA1uQC6rxevN79rM35YujGJsdp2VBBkdMNtodoaPvE1wp4tIFiA2AbT736Lp9xLv/8rRxf0Vj/Mjv2H+/afv+Ol30tiUYW2ennAx7anau5s7QejAKq9h7F6/XS2VbPUpuBu3opiza0BLcCioiIiIiIDIERUuCBddwtPPqLh7ABOMsozL2Z9KQzuy6v3LTFhbvPKmoMyQUbfEXdqz/Cxh621G7C/pOVlIV07rNOvJ45WQawg/U7DvgKNM8BdqzfAYAx9+ukJ1qBwzTW1eMGrlj8ffImJfq2N/6VeXOnhm0FFBERERERGQojpsCD0RgZP6KhrZHNG8vJM7qXuKuLmDUznaTMH+Pwt+pF1k7L9sfIT7IwKimdmbmzKCzz9e4LYp3A1DnBBVrYyzM/e5/dNS4A3i1K53Nd/fo+T0rhRt9j7dnPB7pMU0REREREhtgIKvB8rEYat962hLVtXrzeT2hr3EZNoOBzPsSd/7Gje+CTHk7QWrsMW9ZiX185WzFVNdto/PMOyq8IXXcME6feZLpM80iYyzP7yX2YI39TgSciIiIiIkNrZBR45pErC2tp7aqVRmOkfZOc2+7h3sU2ANw1u/lTpEnNPe9R93QtbsAoqOGDhpUU5HyTNGNM6JrQ4zLNN3jntd0QdHlmsCvKG/nU6x/dM+j2FDnGGaGri4iIiIiIRFXPKmU4sl7IhGuSAHDbf8SyyjrT9AMncLv+Hxu2NQdtEpbnbxx+19fZ7qwrL+OSwKv/+1E++nvQmj7myzSrylm9/V3gZhbPvtZ3eSbAGRdz+Q2+5r93t7/Ne2qoExERERGR02RkFHicz5TZd/gGWKGJ6qKbSDl7lL+v25kkpedR5vQVbkbutXwpUmOZ9Qucf4Wv8967217kN+4T0LGP2jCDrPiMIfm2e3wjbL7hxOkGsnL41j+fa1rnEq679SYMgPrH+MmaJjoAj3s7y6aFmS9PRERERERkiIyQAs9KQlohT1YV+AqpSGwP8Yt/m9rduhbKejnZ83N8j+F8iMykM7GcfSW5pkFW3t3zPh+Zt0m8iuy5af7/GGTNuZ6JQamNZtzMIlYVTPYVn4WpnG2xMCopi1KnG4wFrLq3l79pOPnMRcVE3yAxEytcfEYHroppXZPB9367h1r3Z+CuJb/HMvOtlwngO1rYbpqAPmjy+RHqM1cFEy0WLJZpVLg6gjLu85bvu5z4pDIN6LrMeSL5tX8JXTqinHymn+GuvafnMvNtWgl2RwsdoU/ucePa8iwl/pM3Fu2nUdhPPXS0OLCXZHetq0xPNtNgntZaCpMsI/7zH5pp9//7ugVe98l89ru7ivS4TazAFalryLBm+o33v4ZTmim+332HvYRpXetnU7J2Vz9GRR++Ts9+2o9tAt9FI85p3k/D7aP9+N493UZIgQeQyKSCJ3E1bqWq2DeteRdbMVU1r9K89QEyjNHBy4KMZlzOCpw1S/2tgWDklVPT+AEfNyz1FX7bHbzZah6J83zSs7P8heVU5kyd0DM062XkPFtPY415dM/J5JXX0OiqJGdcb39TvPFNAJ8y43Fc5g+H531qF+WSZZqAPmjyeelFhEwDOvZRu3QRhfVhm6klHGcZhZk2ZlTs6v6y97TiWD6P9Jnf7bpigK79dB7LHa0juiAZeuH2Uw8drseZkZIZNJqxL9Ms7q59X5n2KlymITzvs/nBH2HXx79/wn32ATraaN6jEAclYqa7qJhhI7OwDGfXnfWUzbuOtLvN4y1ID5EylcELl6n/2LTHPtrX9+4w0KNWGd5GY6TdQsHKuuBBTF5dSUGOjeQE88tJIG3Jq77l+5eQ1nXZZiLJOSt41b9t29ol5KSN49yMFbR5vXjbVoUUZFYSA8u8GyhIDj8gC1aDtJzA6J5evN49rF2SQ1qvBWcccz7Phl2H/f/x0O58moX2JjAWUPPBJ3g7P6BhaRawjaJltbQM38/Q8BGUKb4pQRx2SmZkBLVSS3+5cVZuZle7b+fz7K9jZWm97+RN1R6Oeb14j+2hKm8yUE/pIxv4/TD+sh82zPupp4UNy8p9P5yBz35Xpk3Yizfy+xHZMnKK9fjsB3jo+H0tP7M3hS6QXgV/9gE++9NuatwAs6hq/kfwMUjQMYaEF5rpIRyPfJ8ipxtsD9HQ9gle78c0lt/sW9v+S+r2Hw96BAllzvQMjJyneg7yd2wn5TZfy4ORN49bUs4KfRAJYs7UdGzKZApqDtDp/YS2hsCc3JG+d4eHEVbgyallKpK9XrzeT2mrme9fNp+atk9Ny0JHCrVR3ngs5MvmE9p2rvK3crpYV/eOv29i92Txxtwcvj5uNFjHYZs3xzRNRYx80Z+RxpL95kz+TE2ef46OvBr/iQT/ba3/cuIuA8n0M9y1xaRkFlLmdGPYbFwf9Fgx5GQyvaKcxk/N23rxdraxszLPt567nrrGw8BnfNi0yzdNCjdw6zcmkQCQ8GVuy5/hv+z7Td5u62sezhHiZDIdyH76dysT7l5MngFXLL6Lb40bDQkTuDr1Qt9Dvbuf9z+KkQrvVGVq1tHIU0v8BXQMOiNtCfvNmbTVkAfAFeTV/NmU1X7W5nwxeON+f/YBjvPe27t4F+CKKVx9eYQTvTHglGXa/g5161y+x/1Bgf/qq3NJW/Kif9teTqiPMKcs0x6O4HrqYV8RbSxg1YrvMCmoIWTkOjWZnuDggf2+q8qMGdzx9S9iZTTG127h5isAXNTsfp/h+gsVG++0jBCjMaZ8i1un+w5q3AeP8DfMk8VfwfTrvtTVX9E6dgLXGADv0fyBLkIIL0KmXQxsxTU4n17AxKD7JSKrwZRv38p0AI5w8Mg/Qs6Ohp7MkL5F2E8Tksnwz2u6f0kaZwAe95vU+EdFNgqyuO4SZR1ehEy7BA7uLqCg/CFuD1omYYX97AN08EHze75/fvH3PDHd3xcvKZ+K7WH67Ei3CJl2t4h+kSvZw2P5qcq0vyJkGsrT6uDnldt840c8upCZ6i4UWT8zHUlU4MkpdAL3rl+xZfu7AFyRehkX0cs0FWedw0VnETMftqERIVOAUV+mvN7J1pU5JJ+tj3q/edzs+uUWtgPwRVIvOy90jW6ev/DK81v9Z/gmMmGsfkDD62U/7XKcFvts/wBV+E5MPD6Tcdp1I+gtUw8drudYUrQNsu6j5DupqEzuh0if/a6TkIDzBaoDfXDd1RRl5bLA7hs9W8IIm+lnfPT+fl+LKE6W5t7M4mr/ZcTKtG9hMw11hN//p93X99ZWxIrZyTrg703YTMcwMfvbFBiAeyvPv/IXPJzA/ZsX2fYuwM3cM+2KYfvdqvdbhoiTovSzQ0YpOpOk6xZS7Sb4g/G3IxxU3/V+GECmnIFx670smZ7su5RQwnu3iPTPhYykNSqJ6xb7B/uxfYtpkfoseFpxLP8uufYmX0vp4plMSdRX6sD2U7PPOHY4MIaxG+eunbzZ/KEGWYGBZ9p1aebNlK/IIVm7ZU8D+ewf74QvGkAWxWt20tbpxXtsLzXFWb7Rs5c/RX3Q4GxxaiCZmvXoe69Muww20/bdbAi03s39Bv8cI5dmRsUAMrWOu4VHN68iz2jCnjuBUZYzScp8CKeRR+XOZ1mcZp42bXjROy6nwWTyqn7KPcP4gzHyKNOoMwqoerKQtHA/jJ5WHMsLyCz1D15jm88Dd1yjYrpPve2ngT6/R9lbVYDhLGNe+iLWtMRI/9shE5rpcVo2VFDkBFv5gxGyll6FfvYTprDk1Ta83jpW5k/BsAIJk5hZ6O8n7n6ZLTs/DHkQCRKaafeC7ssHzX3vlWnfImZ6nJZNT/nmdzbmUXKbWu/6LTRTz1/5y+u72B7aCOHezVuvv8eHw/gMpN5zOaWMvFXsbHOxtmCyDoajRJlG22TyKnfQ9kEVBZPCzGAZWtwZBVQ9eV8fU7RI//fTRCbddgdzDYCNrPjVH4ZtJ/bTLVymntZfs3L5RrAVUXFPeh9ZS7A+PvshrJdfja8L5Lu8/t7/aD8Nq69Mz2LsuV/oOhi1nn0uY0GZ9qqPTD0H2LF+BwDG3K+TritL+iFcpido3fwTZi6uxm0UULX3KF5vJ8f2riHPaKJ68Sxurxy+01ToXZch0j3qW2fbTtb45y50Vz/F6pdCOlBfdBmp/sHkgnT1zTuXsed+PnRpHBpAptI/XaNpfUJbYzXFNsN3eVC5nZdaeoxJCLSzb82D3Gku7hyPhf+RjVtR2E+7+t/Cu3veJ3DhZvzqb6af8eHOel+/G+di0s8e5bv8KCmXagDepTr3UiyWe6h1x/mh84A/+2F0/UYZXHF+d5ESt/qdqZUvnHt+yEixEla/MzXpmrMxjbnZV3UNXCd+/c70Q3Zuedk/wvsd3DYpEbCSMCmXexfbfF0JnvoNzcP0qzTuv49k6FmNKeSXPkNNgW9uq+rC77DIPIHxGRdz+Q1XAO+yfeefuob69hw8wFtugMtJGa/z0GZ9ZioDNBojbS6lv1jl71BtpzBjGbVBfUBO0Fq7jIxCu39QFRV3felrP/W01lKYZMFiSafEcah7Q9OBc9aNX+aS7iVxr69MZaD6+ux7aHcsI8liwWKZjd10yXD3b1QS10y4UAdUXfrK1Erilen+EQtDfvePHeEgAGnkXntZmL668aqvTAM8tDe+wjodO/VDH5l6/saRg+FGABwZYuT7qANXxbSQDuiRbr4zl5+5KphosWCxTKPC5T//6a4l37xu0jIcpolOAfDsw57tHyLZ9HjSB+tl5Dxe5Z9wswn7wnI2d30xXcJ1t96EAbjX1fJK6wnwtOJcs94371jWTUydGBvz4URVr5nKYFjHzeTxrZW+SUzdq1n44Iu0Br4C2nfwxMLVvuKOyRSsepB5Ku761q/91MW6tdvY1+HxXQL705W+/iNMZc7UCbHyQxU9ETONMNlxjzmiNNVHqMiffSsJ4yeSCsAO1lX9mpYOD3Q0seYnj/l+o2x3MHvK+cEPKL1kChhfI784DQB3WSXPuI4E/+4bWWSnK9NQvWYKIXO3aWTn/oiYqfVCJlyTBIC7bCU/dbTiwUPHvhqeqPTNLmrkXsuXhulXqX43exNmAknP/jdYXx/a21L6JSGdeyqKen6IGM24rHt4NG8yuFeTO/5MLKPG+/s4aRS4XkXMVAbHSkLaXVSU3wyA2/4jHtz8Ph5zp3XwHVTnTmBU0Mkj08kiCRZhP7WOu4WHVy3wndypnseVZ48yffYnk1f1ILNjZLLjqIuQqQxWpM8+WJNzWFF+M+DGWZZLytmjsJydSmF1k+83quKuMANdSG+ZwoXY/q2UpTYD2EZR+nlBn/2CVfOxqe9YGL1lSvBoxKkTGa/9sh8iZWreR+spzRzPKMsozr5ynm/0YmMBq+6dOmwvgdU736s23jpwyPTBOc7+HS/7zi7JIET6EAEJkylYXUN9eV7XdflGXjk1jc8O62FoT79eMpVBOpe0ex4MaR35gKbXdoeuKP0WaT8dzbicSlyNNZTnTe5a2/fZr+e5PgdkiWeRMpXBC/fZP+G7f8kLNDdU+fvrABjYiqtoaH6BJfqN6kWkTMFqTOfRF7ZS0+N3v55ncy7TAWpEkTOFj3l/z198/xx7LpoCt7/CZ2o1prNiq5OGqmLfyTTwnXwsr6HRVUnOMJ483uL1er2hd0aLxWJhCB++F5/hrl1IUu7TwHxq2lb1uBzlM1cFk9KLeBcb5Y1bWZKW4LtEM9AZ3bge2//6b5wJj9L8UoG/BekQjpKbyFx3pm/ZG+6Ijz9UTl+msUuZRp8yjT5lGn3KNPqUafQp0+hTptGlPKPvZDNVbR9J6v/H3BkpUP8yO/b7O1W3v0PdOhdM/yY3TwwzsaSIiIiIiMhppAIvkrFf5OrkFOA9mj/w9av57E+7qXEbZN04na+lfjF0CxERERERkdNKBV5En2Ps5Clk4WJd3Tu0c5z33t7FuyRxzYSLGBW6uoiIiIiIyGmmAq8X1rETuMYAd81u/nTiADvW7wDSue7K80JXFREREREROe1U4EVwReplXJT4Ja6bfgW8u4u339pP8x43ZE1h8iVjOPv8i0I3EREREREROa1U4PXqIibfeC2wg6qSUta5wbhmAmOtZ3D2uZqAU0REREREhhcVeL0azdgJEzFw84bzDdwYpKYkaV4mEREREREZllTg9cpK4pXpTO/6fwrTrx6v0EREREREZFhSrRLWFdxw+cWcAXDJl7kxy/DdbfwL137pLOAMLrpsIleEbCUiIiIiInI6qcDri/VCJlyT5Pt36kTGJygyEREREREZnixer9cbeme0WCwWhvDh45IyjT5lGn3KNPqUafQp0+hTptGnTKNPmUaX8oy+k81UzVEiIiIiIiIxQgWeiIiIiIhIjFCBJyIiIiIiEiNU4ImIiIiIiMQIFXgiIiIiIiIxQgWeiIiIiIhIjFCBJyIiIiIiEiNU4ImIiIiIiMQIFXgiIiIiIiIxQgWeiIiIiIhIjFCBJyIiIiIiEiNU4ImIiIiIiMQIFXgiIiIiIiIxQgWeiIiIiIhIjLB4vV5v6J3RYrFYQu8SERERERGRPgy2TFMLnoiIiIiISIxQgSciIiIiIhIjVOCJiIiIiIjEiCHvgzeEDx+XlGn0KdPoU6bRp0yjT5lGnzKNPmUafco0upRn9J1spmrBExERERERiREq8ERERERERGKECjwREREREZEYoQJPREREREQkRqjAExERERERiREq8ERERERERGKECjwREREZZo7TYp+NxTIbe8vx0IV+kdfxuF1s2VRBfpIFi8V/m1aCfYsLtydoVTwtdrID64TeppVgd7TQEbxJCA8drseYFubvGF4i59Ut8jpDn2k7LQ47JdOS/OsmMa3EjqOlPXRFEemDCjwRERGJGZ7WWu5OS2fmrCKq3aYFzjIKZ6aTdtda9nWEVCSROMsozMxlUe37RNrC425gxZJynKELYsjQZ3oEV8XtpGQWUuYMPIEbZ1khmSm3U+E60rWmiPRNBZ6IiIjEiEM4n1iB3Z1F8ZqdtHV68Xr9t2PN1JfnQfVSFm1oCSnYDLKq9tIZWNfrxevt5FhzDcW2v2Jf+DTO9tAC5gTuXau5Ky2L0q6iJBYNfaaeVgc/r9yGkVdJffNR/7pHaa5Zio1tFC2rpSU0fhGJSAWeiIiIxIb2d6hb58IoLuH+/CkY5qOchGSmL17Ko1lQv/4N9vdZMFhJSJ7J/Q/Mw3DXU9d4uHuRpxXHshkkXbeQ7dMfojRvsnnD2DLkmXroaG7kJfcsHr3/e0xPTvSvm0hyzmIeKE6D+pfZsT/SZaUiEkoFnoiIiMSGhCRSUg3cbx3gYLhiwzqJgro2vHUFJA/oCOhyUsYndP+3o5m6DWMpr2+mZe0Cpow907xybBnyTK0kZqygzbuBguQxIeskMD7lcjAmMmHs6JBlIhLJgD6KIiIiIsOW9XKy5+dg1Bdiu6uCTbW/xuU+EbpWP3noaNnMTx5ZgzvrJqZONBUfiRms3L+WJdOTMZV9selUZRqO50OaXt+L8Y10UhJ0yCrSX/q0iIiISIwYzbicSlw7VzF9exGzcm8mPelMLBYLSfkVbKp10hJ2MBA39YVXMipoxMdRnJ2SSxnzqPnZbQNsnYolpyvTE7RuLmeh/TIWfz+Dcb2uKyJm+riIiIhIDBmNMWUBa9s6Odb8KjU1NWwsz4PqImblTiMl+W7s+wYw9L7Txc6mtjDD+seTU53pCdyOUu7MfY3pVT/lnrRzQ1cQkV6owBMREZEYZCUh2UZOTg63LVlLW2AEx5SXKFy0KWRUxnAjPgZGiRzLutw7ecRxyLxBnDoVmfqKu9szN3Fp1X+yumBy7F8GKxJlKvBERERkmBnN2AkTMXiP5g8itfN08EHze6YBODy0O5aRZEmnJGzhYCUh+ZsUzp3a/1EZu0aJbGNd3TsMoI1qGBoBmXa0sL3ibtIy32BKzUYVdyKDpAJPREREhhkrCeMnkkobu3a/F/5Svo732L2rDVInMj7BatrG1bNwiIKIo0iOGMM7U497O8tm2MiqhKKdayjNmaTiTmSQVOCJiIjIsGOdeD1zssBZVMiCijrTQB4eOloc2B95gCInZM25non+oxnrxEzmF0zGXXYnt5bYcbSYSpKOFhz2HzG/cCP0ZwRH/C1KlaUsrw9+npFq2GbasYvK2/Mpbc6h5nfPct8UQweoIifDO4SG+OHjkjKNPmUafco0+pRp9CnT6Itupp3eY3vXePMMvBD+ZuSt8e491hm8VVu9d6nN6LFu180o8FbtPdq9fnOVNyt0ndCbrdLbGPI83T7yNhSneWGWt6r5H6ELTxoxn+kn3g9qFniN0OVBtzRvccNHQX/TySCqmYryjL6TzVQnSERERGQYspIwKZ/nXI1srirGZl5kK6ZqcyOu5/KZFDI/mtWYzoqtThpqnqHYZpiWZFFctZVG15MUTEo03d8b/zYvLCAtJuZhG46ZttO887e4Q1cTkUGzeH1V4pCwWCwM4cPHJWUafco0+pRp9CnT6FOm0adMo0+ZRp8yjS7lGX0nm2ksnI4SERERERERFXgiIiIiIiKxQwWeiIiIiIhIjFCBJyIiIiIiEiNU4ImIiIiIiMQIFXgiIiIiIiIxQgWeiIiIiIhIjFCBJyIiIiIiEiNU4ImIiAyJ47TYZ2OxWPq4pVPiOISnxU52j2Xhbklk2/fh6Xp83/bhBdaZjb3leOjCEeAEbteL2EuyTa8/lfyK9Tha2oNX9ezDnp0UJq8wt2w7LZ7gzelowVH7LCXTTI+RlE/Fpl/jcp8IWXkkU6YisU4FnoiIiAw/nlYcy2aQlD6DwrJ604Imqou+TWbKDeTbm+gwLRmcE7h3rSY/OYXM3O9S5nR3L3JXUzTrZtLTvod9X0jxMxIpU5G4oAJPRERkSKVR3PARXq83wq2RlRkXYk0uoC7o/o9oKE4DYykNRztN97dRVzApxn/Aj+CqnE9maT1GXjkbG5o5Fnj9nW00bn6GYttfqS78Dotq38cDYJ1EQV2bKadOjjYsxQiXf10Byf4APa0vsnzmQqrdWRRXbaWx7ZPu9Y4101BVjM1tp/B7Vbg6QpuoRhJlKhIvYvv3QUREREYcT0sty4p2Y1taj+u5JdyWkUxCYKHVIO3Wu1m5dTPltr9iX/g0zvbBFgmHcD6xAjsFVO3dyMqCW0gzRncvTkgmo+ARflGzAMP5PBt2HTZvPKIoU5H4oQJPREREhpFDOKt+Tr2Rww8W3IgR6UglIZ17KoqwueupaxxckeBp+RUry9rIerSIeZMSQxf7jWbczPvZunkZ15/zqa9la8RRpiLxJNJHXEREROTU8xziwFttkHotk80tPz1YSfjS1UwxXKyre4eB9+by0PHBfvYwlTlTJ/R+QGQ1SLs1h1vTjN7XG66UqUhc0WdKRERkSLkoy7yo56iDvY0+OCC9Pf7nSSncGLrB8NbRRvMeN8Y1Exjb11FKQhIpqQbutw5wcMAZnuDggf2Yhv+IXcpUJK709TEXERERiS+Rpgc46WI8jilTkVNGBZ6IiMiQCjPiYITRBwent8f/B81Vs0I3GN4G0oI0kJapHkYzdsJEjNC7Y5EyFYkrA/7oioiIiAwZ64VMuCYJ9uymqdfJsD10/OltdrkNUlOSukeE7DcrCeMnksoO1u84EDzQR+j0AJ17qcoawWWLMhWJKyrwREREZBi5EFvh98lyr2bhgy/SGqnFqaORp5aU4zTmUXJb8qAOaKwTM5lfcAH1y8tZE9OTbitTkXgymM+uiIiIyJCxJuewovxm3PZcvnJXBbUud3drkMeNa8uzlMyYSZHzAgpWzceWOMjDGetlzHz4xxRgp/DKWZTYX8QV1MLVTotjC5sqS1leP7KHDlGmInHEO4SG5OE793qrsgwv0Pctq8rb3On1djZXebMwvFlVe72dgYdprvJm+dczihu8R0Oepov5+fyP51/gPdbc4K0qzup+Pluxt6qh2Xss+BGiaigyNWfR+607w6HJ1KzTe6yx0mtjlreq+R+hC6NqKDIdPvup1+s91uytL8/zGoHHySv31jS2dT3HUBiKTIfTftrZttO7puuzb3htxc94N8dtpv/wNlfN8q+X5i1u+Cj0abp0P1/we9JD5wFvTcHkHrlH21BkGsycTe+38PviR96G4jQvxlJvw9FwQQQev7fcA+sM/XepN9qZdn7gbVhq+o3tcZvszava08tvbqf3aMNSr9FrPl7f783eNd48I/TxQ96jvEpvfXPPd2moKdPoi2qmojyHwMlmOsjTM7Glt07Hnv1vsL7HGSYPHa7HmZGSSWFZfffdzjIKM23MqNhFh3n1ODTwTIN53A2sWFKOM3RBHBtUph1N2BfkklVU3TVstbu6iNz0u6l0HQlZOf4MJlOPezvLb5/JvK7Pvhtn2XeZqUyBNt46cCjCpMXH2b/jZUzfmBGcoHVzOQvtTaELJN5Yx5GxYittjVupKs4yLZhMXvkvaWh+nbUFkwfRTyyUlYRJ+axtaaah5nnK8yablk0mr/x5Nje28cHa+5ieHGni7hFCmYrEh9CKL5qG+OH9+j6b1POMc/d919uu9xoRz2z6z3xeb/PaDNNZ/MDZZSPPW14faLHr9B5rrvEW24whPVN6ajLt66zxEGTa5RNv285VprN+kR4nek5NpqdhP+16zuAzsp1t9d6lNiNM9tFzajI9Hfvpx97G8pu9kOUtrtnrz9S0z8Zlpt2tSDbbFZEz6Nzrrcq6wp975Ba8zg9qvAWBz3+kx4qSU5NpfFGm0adMo0+ZRpfyjL6TzTTuW/ASsmfwHSPMaE8AngPsWL+brBnZXGu+v+Nddr70V7IeXcri6cn+M11WEpJncv8D8zDCjR4VRwaVKYCnFceyGSRdt5Dt0x+iNOiMX3wbXKaHaayrx23MIP+2L3edkbUa/8q8uVOh/mV27D8etEU8GVSm7bvZULkNo7iE+3Mm+TMdjZGeyY2p8T4a3BfJvvkmjAj7la9FNJUZN/9z6KJuHbuovLOY9+59knKNriciIjIocV/gcfFXuWluEvXr32B/yFGe74DkWuZkTOYM84LEDFa2tVFXMCkkwMDwwElcM+HC+A13MJkCdDRTt2Es5fXNtKxdwJSxZ4auEb8GlWkC41MuD7oniDGRCWNHh94bPwaTaWIGK9u8tK3MoPuionZaGl7itT2QNed6JsbtB/9zXPy1m5gbtmj2X56Z9U0yro50OdYRXE89TBELqPj+1zg/dLHIsOCh3bGMpNDJuiPdNIl3PyhTkWiL20ORbhfzleysMGedfQcke4rv4bZJZ5nu780J3E272WN8letSIh3ExINBZpqYwcr9a1nS1Soq3QaT6WiSrv4XbO6trN30x65+oR73f7Fm3Q6MuV8nfbCjpMWEwWRqdghHSToWyzmkZL3M2NLNrJkXetInzpx7NdnhimbPAXasb6W45FYmjTLd38VDh+s5lhRBecVdpCXEdYoiIiInRb+iWElM/3rPs87+A5K52VeZztT3ztP6Ig8urCVlcR5Z4+K4ZSSKmUrAYDK1kpC2gBd23gPLUznbf/ZzVFI+b05ZhfMBW5ht4slgMjXxHOLAW23+/9RTNu8B/mPzvjgfYOkC0sMUzZ79b7B+z41kp0dol+to5Kklz3Np1U+5J+3c0KUiw4iVxIwVtAUm6+7rVldAso60+qBMRaJNHxGAxKtCzjp7aHdWs7y3A5IQHvd2lt+5kJeml/LkPelqgYpCphJiMJl2vMebNb+iOmgwSDfOdVvY9scPe/Y9izeDyTTAOomCujbfAcexvdQUQ1nuEp6K65E0wxXNh3BW/Zw9kVqMPa04VjxA5eXLWDEvGqP3iYiIxLcwv7bx6PyQs86+wSmIdEASwjdsej5rLi3FsXouk3R50UlnKuEMNNNDOB65k9xdadQ0H+0++3lsLzVzD7L4ukWsaek5GEZ8GWimESRMIuf+EoqNbVRu2E176PJ4Elo0t79D3ToitIieoHVzKXeu+RKrHr6FcQOIXEQkJrU7KEkK6XeYtAxHe9yfkh28OMxUP6fQ86xzrwckZu20bH+Mu9L8l7ypuDMZbKYS2QAzbX+HunVtZM3NY6Z5nqGuYiTcYBjxZoCZSj+Yi+a/0974CuvICt8i6nmPuqdrcbtXkzv+zO4f3lFXUljvhvpCUkYlkW3fF+f7qYiISP+pGgnoOuv8XzTu7OWAJMDTimPZLFKy7FC0kRdKc0hWcRdsoJlK3waQqefgAd7qOU+3iZs9zW1x3mdsgJm22Mm2WEgqcfRopfPlbZCakhTnlxmai+Zd7BxMi6iISLzyj9Yc1O+wbQUZ+g4dvDjMNHZf2YAFzjo/TcmKDX0ckBzBVTmfzNI2Cmpe5Ln7bsCItGpcG0im0j/9z9Q68XrmZMGe115ks8ttGkSkFcdPV1LmTlNLFQww00zmF0zGve55Nu0zlXgd+9hctZ56pjJn6gR9sQaK5qofs6K3FlFzP0bzrXMvVVkGZFXR3BluSpqR4jgt9tk9h3nvukQon4pNTlo6utsnAycReqxrsWCxpJJfsR5HS+jpBcDjxrXlBSryU03rZ1NifxGX+0To2iNabydaAnzrhGn9jaOcBizcZWw9brOxmy7t97hdbNlUQb55u2kl2Le4cKvZXeS0GZm/mUMicNbZhdN5buQDEsDT6uDnlduAJuy5ExjV4wuw9x+e+NH/TKW/BpCpNZnZK4pIqS4iNz2pez8dNZ7M0nqMgmXca7swdKs4NJBML2Pmwz+mADuFV57T/Zk/+0pyy9rIq3qQ2cljQreKQ/6i+Q0nzl5aROOeu5qiWdOwLdpMa78OhpuoLvo2mbZl1LaaihHP+9TenUX6zDsoqm4yrV9PWeEM0tO+h918QiJeKaeo8rTWcndaOjNnFQUP5OUso3BmOml3rWWf6eSFiJw6KvDMEq8ie24aGL0dkHjoaG7kpV4vfZMu/cpUBqTfmVpJSFvE1uYGqoqzuu828iivacT1bI4GtQjod6ZgHZfDs66drDFlauSVU9NYz3MFGgXSJ1A0o/kWAZhFVfM/erZUHttLTXEWbvsKnnAeMq1vkFW1l87Q9b1Haa5Zis29moVP7PCfRPTQ7nyahfa/YiuuprHtk+D16yvJw07hok1xPjm0cuovo7iBoz32vcBtAwXJY3yj4z6xArs7i+I1O2nrNO/XzdSX50H1UhZtaFH/WZHTwTuEhvjh45IyjT5lGn3KNPqUafQNfab/8DZXzfLCLG9V8z9CF/ocbfAWG3iN4gbvUa/X29lc5c3C8GZV7fV2hq7r9Xq93o+8DcVpXoyl3oajnWH+H6off0MUDX2mgYy6MwunZ47DK6eBOBWZer0998Ve9bVu515vVZbhJavK2xwu7tPslGUaJ5Rn9J1spvF+WlVEROS0c791gIMDaepw7+fAwRNAAuNTLjf9P9QYkgs2mFpe4pVyiqqEJFJSjcj7baB/rSYlFzkt9LETERE5zYxrJjB2IL/IxkQmjB0NjGFi9rcpMDZSaJtPxaZatpgHVRI/5RRV1svJnp+DUV+I7a4KNtX+WoPUiAwjA/k5ERERkajw0NFSR8UPFvV/RNuOFrZX/B/uLHMF9W309QvdQeX03RTNymVmYFClpHwqNm0JP+pmDHCXZXJOmEHOLBYLo1IKqQ9ZP15zGqiIuQZNDD2acTmVuHauYvr2Imbl3kx6km8uy6T8CjbVBo8OKyKnlgo8ERGRIbWRwpTPhxwwj+LslJsoqm4KM6Ktm/rCK3uO0Hx2CllF1biNBay6d2pQQWg1buC+tXvwHmumoaaGmo3l5FFN0ayZZKbcQL69SXNeKqcoG40xZQFr2zo51vwqNTU1bCzPg+oiZuVOIyX5bo1KKnKaqMATERE5HWzFVG0eyIi2WRRXbaXRVUnOuNGhC30SksnIySHntiWsbQuM1JlEdeHDbDDNXxYLehvtsbO5CtPYwT3FUU4DFTHXiBNDW0lItpGTk8NtS9bS5u3kWHMNxSkvaVRSkdMk3CdVREREoibCNAmvrqTg1jSMHr/EkaZJqGNlwS2kGabizj85dcS5VxMmMbNwDlnsYP2OA/Hb50w5RZGHdscykizplDjM03sEWElI/iaFc6dC/cvs2B/fBbPI6dDjZ0VERERGiMBohuteobGrf5T0oJyiyErC+Imk4mJd3TvhC2YROa1U4ImIiIxUgdEM3aVk3roUu6PF1IesnRaHnaXzl1PPVOZMnRC/P/rKKaqsEzOZXzAZd9md3FpiDx6gpqMFh/1HzC/cCFk3MXWipp0QOdX0HSYiIjJijWbczKX8YmkWOMsozEzh7K6BWc4hJbOQMucF5FU9yOy4nt9NOUWV9TJmPlrJUhs4ywrJTDknaDCgzMIynEYBVY/fpnnwRE4DfexERERGMus4MlZspLmhhqpi89AiBrbiZ9jcWM9zBZNJMC2JS8opqqzGdFZsddJQ8wzFNsO0JDAY0JMUTOpz8g8RGQIWr9frDb0zWiwWC0P48HFJmUafMo0+ZRp9yjT6lGn0KdPoU6bRp0yjS3lG38lmqhY8ERERERGRGKECT0RERKTLIRwl6d19ynq9JZFt36dpFXrjn6KiZ3bhbrOxx/k8hCLRoAJPREREREQkRqgP3gijTKNPmUafMo0+ZRp9yjT6lGn0KdPoU6bRpTyj72QzVQueiIiIiIhIjFCBJyIiIiIiEiNU4ImIiIiIiMQIFXgiIiIiIiIxQgWeiIiIjCAncLt+zaaKfJJM0xVMK3mWLS535CkLPG5cW56lZFpS97D8SflUbHLS0hFmq34N7x8rw/oPMlNO4Ha9iL0k25RJKvkV63G0tIeu3M8pKDT1hMjJUoEnIiIiI8QJWmsXk5Z+M7OKqnF33e/GWfZdZqZncZe9iY6gbcDj3s6yzDTSZ36XMmf3VrirKZo1jZTku7HvC1eQxIPBZYqnFceyGSSlz6CwrN60oInqom+TmXID+eG2E5EhpwJPRERERob2HTyxcDVuWzFrGtvo9Hrxer14vZ0ca36Z8jyoLnyYDeZWtY5dVN6eT6nzAvLKf0lD81H/Nl462xrZXFWMzW2nMGMZta0nzM8GgFHcwNGu5wm9baAgeUzoJiPLYDLlCK7K+WSW1mPklbOxoZljge0622jc/AzFtr9SXfgdFtW+37M1zlhKw9HOMHl68XrbqCuYpANUkZOgz4+IiIiMAB7aG19hnTuN4geKyE8zTAcxVhKSs1l8/31ksYP1Ow74i4rjtGyooMiZytKGl3luyRwykhO7tzLSuLWglK2Nldjcq1n4xA7iqx1vMJmCp6WWZUW7sS2tx/XcEm7LSCahazODtFvvZuXWzZTb/op94dM423uUeCIyhFTgiYiIyAhgJWH8RFJp460Dh3q2CgHW5ALqzC1A7W9QtXwjRsF8FtjGRTjosZKQdhcV5TfjXvcKjXFVjAwiUw7hrPo59UYOP1hwI0b4UCEhnXsqirC566lrPBy6VESGUKSPpYiIiMiwYp2YyfyCC6gvnMVdFS9Qu8WFO1xV4uc5eIC33AapN3w5ciECQCJfuvYqjDgsRgaaKZ5DHHirDVKvZbIxOnSpiZWEL13NFMPFurp34qxlVOT06vXrTkRERGTYsF5GzrP17Ky8lu1Fd5A7M52kUYGRG1+g1tFiGtTDQ8cH+9lDEtdMuLCPA57ILVnuskzO6THSowVL0jIcsdDaN6BMgY42mve4Ma6ZwNjeQ4WEJFJSDdxvHeBgUKilZJ4zqmemlnRKHIdMK4rIYPT10RQREREZPqwGU+5bS5v3KM0Nm6mped43EEjRHeRmppCcv5Z94aY9kMiUqUhMUYEnIiIiI1AiyRm3kpNzO0vW7sHrPUpzzVJSqpeyaEMLnl5a5XqK3NoXcRTNthVkJMbaYVRfmfbSKhdOpNa+iKNoNrIy40LTiiIyGLH2zSQiIiIxyT9JdsRLIxNJnpnH3CyoX/8G+z1gHTuBaww3e17/Y+/9ymjnT7vfwc3lpIzvGg8yDgw8U6wXMuGaJNizmyZ3z2klunno+NPb7HIbpKYkdY+yKSJDTgWeiIiIjAAJjE+5HAYyEEri9RQ+Ogu3/Uc8uDnMfGzgK0Rcz7GkaBtG8T3cNtLntRuQQWTKhdgKv0+WezULH3yR1vChQkcjTy0px2nMo+S2ZB1wipxC+ryJiIjICDCGidnfpsBwUZZ5ByV2By1d/cI8dLQ4sC9dRGE9ZM25nolW3zbJs5f45mPLvYW7KmpxmVqdPG4XW+xLmZG+GKexgFX3TqV7lrx4MJhMwZqcw4rym3Hbc/nKXRXUutzdxbPHjWvLs5TMmEmR8wIKVs3HFnOXsooMbxav1+sNvTNaLBYLQ/jwcUmZRp8yjT5lGn3KNPqUafQNfaYncDtKuT3zIZyhi/yMvDU4Vs9lUkJ3UeFxb2f57fmUOt1B63YxCqhyPEbBJFN51+6gZFIm6+Y2sG9lxmkr/IZrpnhacSwvILO03ryqyWTyqv6T1QWTTZdnHsJRchOZ67Jo2PfoaevDOPSZxhflGX0nm+np+WSJiIiIDNhojIwH2Nr8KjVVxdjMi2zFVG1uxPVcfnAhAliN6axocNG4+RmKbUb3AiOP8o2v0tzybHBxF1cGlynWcWSs2Epb41aqirNMCyaTV/5LGppfZ21QcScip4pa8EYYZRp9yjT6lGn0KdPoU6bRp0yjT5lGnzKNLuUZfSebqVrwREREREREYoQKPBERERERkRihAk9ERERERCRGqMATERERERGJESrwREREREREYoQKPBERERERkRihAk9ERERERCRGqMATERERERGJESrwREREREREYoQKPBERERERkRihAk9ERERERCRGqMATERERERGJERav1+sNvTNaLBZL6F0iIiIiIiLSh8GWaUNe4A3hw8clZRp9yjT6lGn0KdPoU6bRp0yjT5lGnzKNLuUZfSebqS7RFBERERERiREq8ERERERERGKECjwREREREZEYoQJPREREREQkRqjAExERERERiREq8ERERERERGKECjwREREREZEYoQJPRERkSBynxT4bi8XSxy2dEschPC12snssC3dLItu+D0/X4/u2Dy+wzmzsLcdDF4qISAxSgSciIiIiIhIjVOCJiIgMqTSKGz7C6/VGuDWyMuNCrMkF1AXd/xENxWlgLKXhaKfp/jbqCibpB1xERMLS74OIiIiIiEiMUIEnIiIiIiISI1TgiYiIiIiIxAgVeCIiIkPKRVnmRWFGw/Tfsu20eEK3GYjeHv/zpBRuDN1ARERimAo8ERERERGRGKECT0REZEj1MYpmXQHJJ/Vr3Nvj/4PmqlmhG4iISAw7qZ8UERERERERGT5U4ImIiIiIiMQIFXgiIiIiIiIxYuQVeJ592LOTwowUFubmH5nM02In25JEtn0fgYHKfPf51ksqcdAe8jRdzM8XMtKZx72LtSXZ/udLYlrJs2xxubueY6QwZ9H7rTvDocq0m4cO12NMs8zG3nI8dOHwN2z2Uw8dLQ7sXfupBcu0EuyOFjqCH2EYOU6LfXbPnMLeAvtHYBvz/mJ+nHRKHIdCnqdbd87B+Qc7gqvilgj7rId2xzKSevx9fT/36RSdz360cwY871NbmBoh65Got1EufbdeP98iIiIDMPIKvCHgfusAByMcRHj2v8H6enfo3Xjc21l++0zmldX773HjLPsuM9PvptJ1JGTt+DOYTM087gZWLCnHGbogjg08Uw8drseZkZJJYdd+CjjLKMy0MaNi1zAu8qKtjbcOHIpQUBxn/46XMSUUxgncjsdZUrQtdIHfCQ4e2E/oOxB/TjZngBO0bi5nob0pdIGIiIj0w8gr8KyTKKhrM40Q1snRhqUY4UYR63NkMoPrbddj1L/Mjv3hWon8ByTX27AZ5vuP8PvnH6fUmUpxzV6Oeb14vZ/QtnMVecY2ipbVjqizztbkAuqCRl37iIbiNDCW0nC003R/G3UFk/rYaQabacAJ3LtWc1daFqXOEXy4PBz2U89fqP+5HaeRR3l9s38/7eRYcw3FNnAWVbBhWLaOjiG5YENwRkcbKDbAKG7gaNC+uoGC5DGhDxAiDZvtLOrXv8H+cJ9LzwF2rN/tyzh0GYDHza7H7iYt86FeTjh08EHze2E+M1683kZWZlwYusGwEN3P/knm7OdpfZEHF66OkWI5zL4c4da2MoPE0M25kIyVjXjbVpCRGC79wOP3to8F1unPZ0VERGJBuF+MuJKQPYPvGDtYv+NAz7PO/gOSrBnZXGu+v303Gyq3YRSXcH/OJBIAGI2RnsmNqb0dusSHQWUK4GnFsWwGSdctZPv0hyjNmxy6RtwaVKYd77Lzpb+S9ehSFk9P9u+nVhKSZ3L/A/MwiPB4MeeLZN98U8QC2df6mcqMm/85dBEe93aWZaZx3eLdTC99iLxIH2/PIQ681QapExmfEK9fq4PPuUvHLirvLOa9e5+kPCtS2CIiItKbeD0S6XbxV7lpblLYs86+A5JrmZMxmTPMCxIzWNkWesa1nZaGl3htD2TNuZ6J8ZzsYDIF6GimbsNYyuubaVm7gCljzwxdI34NJtPEDFa2hWt5sZIwfiKpJHHNhAvj4Evgc1z8tZuYG7ZA9rd+Zn2TjKtD2088dOx9lQ2XFlHf/Dprv/+vjA1Zo0tHG8173BjXTGBs7AcawWBzDjiC66mHKWIBFd//GueHLhYREZF+idtDkW4X85XsrDBnnX0HJHuK7+G2SWeZ7g91CEdJOhbLOaRkvczY0s2smRd6QB1vBplpYgYr969lSVdrk3QbZKZhncDdtJs9xle5LiXSwXaMOfdqssMVyJ4D7FjfSnHJrUwaZbofACuJGSvYv/Y+pif3npPn4AHechukXnSYNyvy/YOtpJJfUYvLfSJ09dg1qJzxFdOu51hSBOUVd5EWt62gIiIiJ0+/olhJTP96z7PO/gOSudlXhekXYRK4NAuAesrmPcB/bN4XR4NXhHOSmUoY0cvU18eplpTFeWSNGx26OEZdQHqYAtmz/w3W77mR7PSTaS/y0PHBfvbgpr5oFjcVVfv7jzVRXZRLetpialvjpcgbZM4djTy15Hkurfop96SdG7pUREREBkAFHkDiVSFnnT20O6tZ3tsBSYB5MI1je6kphrLcJTwV7yNpnkymEl4UMvW4t7P8zoW8NL2UJ+9Jj6OW0nAF8iGcVT9nz9yvkx52AIv+CoygOZm8qj3+wWy83QMvsZqFT+yIkyHwB5GzpxXHigeovHwZK+ZNjqN9UkREZGiE+bWNR+eHnHU+TGNdPUQ6IIkkYRI595dQbGyjcsPuODmgiyRKmYrJyWXqm9ojnzWXluJYPZdJ8XYZXGiB3P4OdesYUOtneIFRCvewtsBcoIzGmDKH/LlpuNe9QmN7SOfJWDWgnE/QurmUO9d8iVUP38K4ONsl5VQLdKkwz0HY+9yN0hdlGnXtDkqSQubKTFqGI15+Q4ZCHGaqn1Poeda51wMS6R9lGn2DzbSdlu2PcVdaPm9OWYUzHos7CCmQ/0574yusI6vfrZ/SXwPI2fMedU/X4navJnf8md0/vKOupLDeDfWFpIzqY1J0ERERCRKPR3nhdZ11/i8ad/ZyQAJ4WuxkWywklTh6tNJ1DbaQkqRLjQaQqfTTQDP1tOJYNouULDsUbeSF0hyS47K4I6RA3sXOAbR+9sqzD3t2EpZse+T5L+Nq+oQhylnkpPnnFQyag7C3OQSlb8o06vwjtQdlGnEuTOmXOMw0dl/ZgAXOOj9NyYoNvR6QWCdmMr9gMu51z7Npn6nE69jH5qr11DOVOVMnKNwBZCr9NZBMj+CqnE9maRsFNS/y3H03YERaNV4ECuSqH7OiX62f/WCdwNQ5U6H+MX6ypsk0wNIJ3I7VPFLWFn9Tp/Q3Z3MfZvOtcy9VWQZkVdHcGW6qj5HiOC322SGXr5kvEcqnYpOTlo7uMwOBE4g91rVY/COzrsfREnpqEfC4cW15gYr8VNP62ZTYX4yvkVxFRGSE/mYOicBZZxdO57mRD0gArJcx8+EfU4CdwivP6f4xPftKcsvayKt6kNnJY0K3ikMDyFT6qf+Zelod/LxyG9CEPXcCo3ocLIZvhY5t/gL5DSfOvlo/+20MybMfpCoPqgtTObsr3zNJynyI5rxSHp+dHGdftkORcwxyV1M0axq2RZtpjdT6G6SJ6qJvk2lbFjwyq+d9au/OIn3mHRRVN5nWr6escAbpad/Dbj4ZKSIiMS2+jjn6kngV2XPTwOj7gMQ6LodnXTtZU5zVdZ+RV05NYz3PBQ20EOcGkKn0U78y9dDR3MhLvvH6pUugQAaj19bPAUqYTMHqGhqqirEF7jPyKN/4apz2eRyinEesWVQ1/6NnS+WxvdQUZ+G2r+AJp3lQCoOsqr10hq7vPUpzzVJsbvPIrB7anU+z0P5XbMXVNLZ9Erx+fSV52ClctCnyJcQiIhJTLF6v1xt6Z7RYLBaG8OHjkjKNPmUafco0+pRp9A19psdpseeRUghVzdUUhLuyo91ByaRM1s1tYN/KDBJa7HwjZTlUOXgp7KWph3CU3ETmuiwa9j1KRuLhkP+HbtGPvyGKhj7T+KNMo0+ZRpfyjL6TzTT0l0BEREROMfdbBzg4kBY2934OHDwBJDA+5XLT/0MFpvHYMOTFnYiIDA8q8ERERE4z45oJjB3IL7IxkQljRwNjmJj9bQqMjRTa5lOxqZYtLremlRARiWMD+TkRERGRqPDQ0VJHxQ8WUeZO63XApC4dLWyv+D/cWeYK6tvo6xO+g8rpuymalcvM9CTfoEpJ+VRs2hJ+1E0REYlZ6oM3wijT6FOm0adMo0+ZRt/QZxro/7YxdEEQo6CG3z2bwzirb5qEb6QUUh+6kpmxgJrfVZIzbnToEuhowVHfxBHPe2y5t4hqN8Bk8qr+k9WnYACwoc80/ijT6FOm0aU8o+9kM1ULnoiIyOlgK6ZqcyMuf3HXtyyKq7bS6IpQ3AEkJJORk0PObUtY2xYYqTOJ6sKH2dByPHRtERGJQf36SREREZHBijBNwqsrKbg1DaPHL3GkaRLqWFlwC2mGqbhrd1CS1MuclgmTmFk4hyx2sH7HAfXNExGJAz1+VkRERGSESEgiJdXAve4VGttVvomIiAo8ERGRkct6OdnzczDcpWTeuhS7o4WOroXttDjsLJ2/nHqmMmfqBP3oi4jEAX3Xi4iIjFijGTdzKb9YmgXOMgozUzjbYsFisWCxnENKZiFlzgvIq3qQ2ZoHT0QkLqjAExERGcms48hYsZHmhhqqirNMCwxsxc+wubGe507BCJoiIjI8aJqEEUaZRp8yjT5lGn3KNPqUafQp0+hTptGnTKNLeUbfyWaqFjwREREREZEYoQJPREREREQkRqjAExERERERiREq8ERERERERGKECjwREREREZEYoQJPREREREQkRqjAExERERERiREq8ERERERERGKECjwREREREZEYoQJPREREREQkRqjAExERERERiREq8ERERERERGKExev1ekPvjBaLxRJ6l4iIiIiIiPRhsGXakBd4Q/jwcUmZRp8yjT5lGn3KNPqUafQp0+hTptGnTKNLeUbfyWaqSzRFRERERERihAo8ERERERGRGKECT0REREREJEaowBMREREREYkRKvBERERERERihAo8ERERERGRGKECT0REREREJEaMvALPsw97dhIWi6XvW7adFg94WuxkW5LItu/DE3iYFjvZ/vWSShy0hzxNF/Pz+R8vLM/71Bam9r7OMGXOovdbd4ZDn6mHDtdjTLPMxt5yPHTh8Dds9lMPHS0O7CXZ3c83rQS7o4WO4EcY9obTfupx72JtV6ZJTCt5li0ud9dzjBTRyfQ4LfbZ/vXSKXEcCn2aLt3PF/yeANDRwvaKfJIC701+BbUjMFMREZHTbeQVeEPA/dYBDkY4ivDsf4P19e7Qu0OcoHVzOQvtTaEL4tbJZupxN7BiSTnO0AVxbOCZeuhwPc6MlEwKy+q773aWUZhpY0bFrhFX5EXbwDMFj3s7y2+fybyuTN04y77LzPS7qXQdCVk73rTx1oFDEYqy4+zf8TKmPbFbRxP2BblkFVUTSNxdXUSuMhURERmwkVfgWSdRUNeG1+v13zo52rAUgzSKGz4y3e/FW1dAcq+v0OB62/UY9S+zY3+4ViL/Acn1NmxG6LJuntYXeXDh6q4Dk5HGmlxAnTk370c0FKeBsZSGo52m+9uoK5jUx05zspmewL1rNXelZVHqHKmJDpP91PMX6n9ux2nkUV7fzDH/33GsuYZiGziLKtgwglpHh8d+eoTfP/84pc5Uimv2+jP9hLadq8gztlG0rDZCi/TwFN1M07DZzqJ+/RvsD5eB5wA71u/25R68gPZdL7C8GvKq9vgz9dLZVs9S2+4Rl6mIiMjp1vvvdRxIyJ7Bd4wdrN9xoOdZZ/8BSdaMbK4NXRbQsYvKO4t5794nKc8KW7HEnUFn6mnFsWwGSdctZPv0hyjNmxy6RtwaVKYd77Lzpb+S9ehSFk9PJgEAKwnJM7n/gXkYRHi8ODGoTNt3s6FyG0ZxCffnTPJnOhojPZMbU+P98/9Fsm++KWLR7GsRTWXGzf8csuQwjXX1uI0Z5N/2ZX+mYDX+lXlzp0KExxMREZHw4r7A4+KvctPcpLBnnX0HJNcyJ2MyZwQv8juC66mHKWIBFd//GueHLo5Xg820o5m6DWMpr2+mZe0Cpow9M3SN+DWYTBMzWNkWruXFSsL4iaSSxDUTLozfL4FBZ+qlbWUGiV13ttPS8BKv7YGsOdczMW4D/RwXf+0m5oYtmv0tolnfJOPq7uR8EhifcnnIfSbGRCaMHR16r4iIiEQQt4ci3S7mK9lZYc46+w5I9hTfw22TzjLdH+Chw/UcS4qgvOIu0hIUZbdBZpqYwcr9a1nS1dok3QaZaVgncDftZo/xVa5LCT3Yjicnm+khHCXpWCznkJL1MmNLN7NmXmgxHWfOvZrscEWz5wA71rdSXHIrk0aZ7gdgNElX/ws291bWbvpjV79Qj/u/WLNuB8bcr5OeGNepioiIDIh+NbGSmP71nmed/Qckc7OvMp2pN+lo5Kklz3Np1U+5J+3c0KVxbpCZSi+il6mvz2gtKYvzyBoXzy0jJ5mp5xAH3mrz/6eesnkP8B+b98X5wDUXkB6maPbsf4P1e24kOz3cdQ5WEtIW8MLOe2B5Kmf7R9EclZTPm1NW4XzA1vv7ICIiIkFU4AEkXhVy1tlDu7Oa5ZEOSDytOFY8QOXly1gxb7Jam8IZaKbStyhk6nFvZ/mdC3lpeilP3pOuffdkMjUPpHNsLzXFUJa7hKfietTHcEXzIZxVP2dPby1xHe/xZs2vqA4aV8mNc90Wtv3xw559JEVERCSiCL+28eb8kLPOvk7/hD0gOUHr5lLuXPMlVj18C+NCF4vfQDKV/jm5TH3D++ez5tJSHKvnMkmXFZ90pl0SJpFzfwnFxjYqN+yOPLdePAgtmtvfoW4dvbSIHsLxyJ3k7kqjpvlo98idx/ZSM/cgi69bxJoRNNpr9AQuATbPR9j7PIPSF2Uafco0+pRp1LU7KEky52nBkrQMR3vsnj4cwBFMLAs569zbAYnnPeqersXtXk3u+DO7d5RRV1JY74b6QlJGhZnEN+4MIFPpp8Fm2k7L9se4K81/yZuKO5PBZiqRmYvmv9Pe+ArryIrcItr+DnXr2siam8fMZFPqXUVzuEFbREREJBId5QV0nXX+Lxp39nFAIv2jTKNvoJl6WnEsm0VKlh2KNvJCaQ7JKu6CDSBTT4udbIuFpBJHj1Y6z8EDvOU2SE1JivNLX81F8y529tEi6sst9F4zN3ua2+Kwb+OFZKxsDJ4z09vIyowLQ1eUflOm0adMo0+ZRp1/BOygTNtWkBHhdykWxO4rG7DAWeenKVmxIfIBSY8JrP23zr1UZRmQVUVzZ7ih6eNRPzOVARhIpkdwVc4ns7SNgpoXee6+GzAirRrX+p+pdWIm8wsm4173PJv2mUq8jn1srlpPPVOZM3WCPvuBornqx6zoo0XUOvF65mTBntdeZLPLbRrsphXHT1dS5k7rdXsREREJFvfHId0CZ51dOJ3n6oAiKpRp9PU/U0+rg59XbgOasOdOYFTQ9fy+W7iWqPjT/0yxXsbMh39MAXYKrzynO8uzryS3rI28qgeZnTwmdKs45C+a33Di7KVFFABrMrNXFJFSXURuelL3fjpqPJml9RgFy7jXpjPXIiIi/aUCzyzxKrLnpoHRxwGJ9J8yjb5+Zeqho7mRl3q99E269CtTH+u4HJ517WRNcVbXfUZeOTWN9TxXoFF1fQJFM/2Yx85KQtoitjY3UGXKFCOP8ppGXM/maDArERGRAbB4vV5v6J3RYrFYGMKHj0vKNPqUafQp0+hTptGnTKNPmUafMo0+ZRpdyjP6TjZTnRcVERERERGJESrwREREREREYoQKPBERERERkRihAk9ERERERCRGqMATERERERGJESrwREREREREYoQKPBERERERkRihAk9ERERERCRGqMATERERERGJESrwREREREREYoQKPBERERERkRhh8Xq93tA7o8VisYTeJSIiIiIiIn0YbJk25AXeED58XFKm0adMo0+ZRp8yjT5lGn3KNPqUafQp0+hSntF3spnqEk0REREREZEYoQJPREREREQkRqjAExERERERiREq8ERERERERGKECjwREREREZEYoQJPREREREQkRqjAExERERERiREq8ERERERERGKECjwRERERkQE7Tot9NhbLbOwtx0MX+kVa5wRu16/ZVJFPksWCxWLBYkliWsmzbHG58ZjW7H6MwHrmWxLTSuw4WtqDtujpCK6KW7Bk22kJfvDhxbMPe3ZS739nxHVORabttDjslExL6se6p48KPBERERGRU+YErbWLSUu/mVlF1bi77nfjLPsuM9OzuMveREfQNpG4cZYVkmlbRm3ridCFfidwOx5nSdG20AUx5FRkegRXxe2kZBZS5gw8g3/dlNupcB0xrXt6qcATERERETlV2nfwxMLVuG3FrGlso9Prxev14vV2cqz5ZcrzoLrwYTb0aBWcRVXzP/zrBm5Haa5Zis29moVP7KBHO5LHza7H7iYt8yGcoctiySnI1NPq4OeV2zDyKqlvPhq8LtsoWlYbudXxFFOBJyIiIiJySnhob3yFde40ih8oIj/NMB2MW0lIzmbx/feRxQ7W7zgQcllhOIkk5yzmgeI03OteobG9ewuPezvLMtO4bvFuppc+RJ4RtGEMORWZeuhobuQl9ywevf97TE9O7LEu9S+zY39oAXl6qMATERERETklrCSMn0gqbbx14FDYYsOaXECdt426gkkDO1BPncj4hMAWHjr2vsqGS4uob36dtd//V8aGrB47TkWmVhIzVtDm3UBB8piQlRIYn3I5GBOZMHZ0yLLTY0CvUUREREREBs86MZP5BRdQXziLuypeoHaLC3e4qqRf2mmpreSRsjay5lzPxK4je19Bsn/tfabWpth1ajKNwPMhTa/vxfhGOildBfbpNTz+ChERERGReGC9jJxn69lZeS3bi+4gd2Y6SaMsWCyp5Fe8QK2jJcJgIBspTPl8yIiP55CSuwaKV/Gz2cnxe2B/2jI9QevmchbaL2Px9zMY1/vKp8ww+TNEREREROKE1WDKfWtp8x6luWEzNTXP+wYCKbqD3MwUkvPXsq+jv01Qbpy7GmlqC1/CxI1TnukJ3I5S7sx9jelVP+WetHNDVzhtVOCJiIiIiJwWiSRn3EpOzu0sWbuna1TGlOqlLNrQEtKfLNyIj/5RIi/dSq7tpzhMg6zEr1ORqa+4uz1zE5dW/SerCyaTELrKaaQCT0RERERkwEYzdsJEDN6j+YNILT0dfND8nmkAjkM4StKxJC2LUDgkkjwzj7lZUL/+DfaHWyWIaZRIdz11jYdDVxhZrBcy4Zok2LOfDyK1tnW00bzHjXHNBMZaOfWZdrSwveJu0jLfYErNxmFX3KECT0RERERkMLpHb9y1+73wfbw63mP3rjbTaIz+ERfDFQ4nLfIokiNHIJ932P2nHrP6+UYH/dPb7HIbpKYk+QurU5epx72dZTNsZFVC0c41lOZMGnbFHSrwREREREQGxzrxeuZkgbOokAUVdbR0tTp56GhxYH/kAYqcmEZjHMPE7G9TYLgoy7yDEruj5zZLF1FYb96mNx46Wuqo/Mlj1DOVOVMnjPCD+zFMnHoTWWyjaMYiKrabB0dpp8WxhkeWlOMMeq2nKNOOXVTenk9pcw41v3uW+6aY59sbZrxDaIgfPi4p0+hTptGnTKNPmUafMo0+ZRp9yjT6optpp/fY3jXePAMvhL8ZeWu8e491mrb5xNvW8JDXFmbd8Nv8w9tcNavHOsE3w2sr3+k9ZnqWIEcbvMUGXrKqvM3mPyUKiGqeXq/Xe9S7t6rAa/R4jYHbZG9e1Z6Q1zrUmX7i/aBmQS9/E15I8xY3fBT0Vw0WJ5npsC08RURERESGNysJk/J5ztXI5qpibOZFtmKqNjfiei6fSUHzo43GyHiArc2vUtPvbXphK6Zq81ZeWDxlWF4uOHCJTCp4ElfjVqqKs0z3G9iKn2FzYz3P9ej3NtSZttO887e4Q9cbpixeX5U4JCwWC0P48HFJmUafMo0+ZRp9yjT6lGn0KdPoU6bRp0yjS3lG38lm2s8yVkRERERERIY7FXgiIiIiIiIxQgWeiIiIiIhIjFCBJyIiIiIiEiNU4ImIiIiIiMQIFXgiIiIiIiIxQgWeiIiIiIhIjFCBJyIiIiIiEiNU4ImIiIiMeO20bH+M/CQLFosFS7adFk/oOj6eFjvZFgtJJQ7aQxeeVh46XI8xzTIbe8vx0IXD2Ancrhexl2T7srdYsFhSya9Yj6MlJGHPPuzZSab1ermFew87WnDUPkvJNNNjJOVTsenXuNwnQlYewTxuXFvCvU4nLR3BoQT25x759bglkW3fR8jWdLQ4qbWXMM20blJ+BZu2uHCH5j9CqMATERERGeE8LZv4QdZiqt2+/xvXTGDsCDvK87gbWLGkHGfoguHM04pj2QyS0mdQWFZvWtBEddG3yUy5gXx7Ex2mJYNzAveu1eQnp5CZ+13KnP43GsBdTdGsm0lP+x72fcOrZB8Mj3s7yzLTSJ8Z7nVOIyX57ui8To+bXY/dRXLKNHILy4L2O3d1EbNmppN211r2hRSUI8EI++iLiIiISDAPHR/sZw+TKag5QKfXS9vKDBJDVxu2fMXLXWlZlJoP6Ie9I7gq55NZWo+RV87GhmaOeb14vV68nW00bn6GYttfqS78Dotq3/e1HFknUVDX5lvH68Xr7eRow1IM0ihu+Mh0vxdvXQHJ/iN1T+uLLJ+5kGp3FsVVW2ls+6R7vWPNNFQVY3PbKfxeFa4RWJB06dhF5e35lDovIK/8lzQ0H+16nZ1tjWwOvM6MZdS2+losrckF1Jlz835EQ3EaGEtpONppur+NuoJJ/uLnBK2bf8LMxdW4bcVUbW6krbP7PTnW3EBVcRbu6qV876nGKBTop5YKPBEREZGYcCYXnvuFkXVwF2gBu24h26c/RGne5NA1hi1PSy3LinZjW1qP67kl3JaRTEJgodUg7da7Wbl1M+W2v2Jf+DTO9sEWXodwPrECOwVU7d3IyoJbSDNGdy9OSCaj4BF+UbMAw/k8G3YdNm88ghynZUMFRc5Ulja8zHNL5pCR3H2awmqkcWtBKVsbK7G5V7PwiR2Dv8S4fQdPLFwNeWvYu7WUglvTMLo+OFYSkjMoKH2GmoILcFZuZteg37vTY0R9B4iIiIiIiWcf9uzxnJNZihsXZZkXYTH3YetoYXtFPkkWi69f2GOvR+hXdAK3q5aK/NSu/krTSuw9+pB53C62hOmvVOtyd/Vt8vWJSiLb/lv2mfsFJuVTURvSr6mjmboNYymvb6Zl7QKmjD3TtHA4O4Sz6ufUGzn8YMGNpuIgREI691QUYXPXU9c4uMLL0/IrVpa1kfVoEfMmRWqXHc24mfezdfMyrj/n05B+ZiNE+xtULd+IUTCfBbZxEYoUKwlpd1FRfjPuda/QOKjC6zgtm56izD2LR++fw6SE8M+E9TJmPrqGzaumcs7fPgtdOqxFeEUiIiIiMqJ17KJiho2somp8Fz42Ub14FneWNhA8HMcJWmsXk5aeS1F1k/8+N86yQjJt3ZfC+S6fm8HMMP2VctMXsSZkYJSOdf+HDFO/QNzVFOXOY/lm/+WKAIkZrNy/liXTTa1fI4HnEAfeaoPUa5lsbk3rwUrCl65miuFiXd07g2hxClx+O5U5Uyf0fuBuNUi7NYdb04ze1xumPAcP8JbbIPWGL0cumAFI5EvXXoUx6KK5gw+a34Osm5g6cUzowiBWI41bc74Z3GI6AvQan4iIiIgMY9ZJFNR9ENKPawMFyfgvd7uAvPKXaT7W6e9btIopf341eCAT/+VqbiOPyp1tdHq9eL1H2VtVgOGu5em69/CYLp8rrtnb3dfM+wltDQ9hYwfrdxwwtRy5ecOZwNw1O/19mwLrNWF/uoH9g2l4GU462mje4+7fYDYJSaSkGrjfOsDBAb/uExw8sN9foMeyQCGbxDUTLuyjQLGSMH4iqbTx1oFDA2+tDBTnMaz3/ERERERk5PEcYMf6HZB1H/cvziY5wervWzSTByqKsHWvSHvjK6xzG2Q9upRFUwKtP4lMKqiirWtgijEkF2zA661j5cxzaN5SS21tLbWbnuCHdz6EEzd7mtuCBqMwiku4P3+KvzVmNIZtDnOzDNiznw9G8kAgw0WkKRfCTa8g/RJ+yoVw0ysMbyrwRERERGJNxBamwCWDgf8HWoj60XLiacWxLBvLqCTSZ+aSm5tL7qyi7kswgxikpiSNrMsuB2IgrXIR34v+GM3YCRPperti1kBa5QbS2heG9UImXJMUem9MGXAmIiIiIhJvjtOy5r7uKQFqaqipqWFzYxufNleRFbp6rAsUCXt209TrBOMeOv70Nrvcgy14A4VP6CWwgctzTVMudO6lKmvkloLWsRO4xnCz5/U/RhgIKKCdP+1+BzeXkzJ+4IlCAuNTLof6l9mxP7jfaOiUC50jdN9WgSciIiISawItTLve5k8hl0P6BrMI/C/QQtRHy0nXJZ9VOJ9bwm05OeTk5HBr2iX8/YP97AldP+ZdiK3w+2S5V7PwwRdpjRRcRyNPLSnHacyj5LbkQR14WydmMr/gAuqXl7MmGhN8D1eJ11P46Czc9h/xoHkgniAeOlzPsaRoG0bxPdyW3PsgKeGNYWL2tykwNrL8J+tH5ETmfRnMfnZ6RbreONzNfw1y93C93dfPmq+xTSpxRB7VyPx8Qdc0H8JRkt7zOS0WLEnLcAxq2NbTI/z1xuFu3RkOTaZmHjpcjzHNPNTzSDJs9tPQIbJ7Dmc9Ugyn/dTj3sXakuyu55tW8ixb4jbT47TYZ/vXS6fEcSj0abp0P18f/Rk871NbmNojdxEZAOvlZM/PwXCWs+SRzbR0eHy/rS21LJ2/nPruFUlM/zpzDTf1y0t5fFfgu8w3+Xh+Ush34In9NO0PfHO207L9cX5wZ2kcDALSkzU5hxXlN+O25/KVu0J+Wz1uXFuepWTGTIqcF1Cwaj62xEEedlsvY+bDP6YAO4VXzqLE/iKuoFbDdlocW9hUWcry+pH8TowhefYS37yBubdwV0Vt0Ov0TdGxlBnpi3EaC1h171QiTRrRF+u4W3h41QKonseVM5Zi3xI6fUcLjtoXqPzJY6bPysgxyD0ttvR2/bRn/xusD/dhiYMReE7GoDI18bgbWLGkPHiUrzg3qEw7mrAvyDUNkR0YzvpuKl1HQlaOP4PJ1OPezvLbZzKvLPCV78ZZ9l1mKlPotQXgOPt3vNyPH8oTtG4uZ6E9MFS7iAzOaMZl3cOjeRfgLMsl5exRWCyjODvlRxyckmMaZAVInMq9qxZguKtZfF0SoywWLJYzSbpuIdXumylfkUPyGYGCsZTclHP8J3XOIcU8DULcOZe0xU/TsDTL/9sayM7i76f4XcqcF5BX9Z88nnPZSR10W8fN5HHHGvKMesoKZ5CedKbpJNw5pGTOZFZRNeRVUv+z20g+mSc7nRKmsPiFtSy1/ZXqotyg1zkqKd03RYdRQJVjBTnjTmbqgtGMy1mBo6oAw1lG4cx0kkaZTmyenUJm7h0UVUNe+XP8bPbgWl9Pl5H0t/qEXm/s7QwZGrj7ullvXUEfO7jB9bbrMcJcg+vjPyC53oYt9JLmQIfZ4gaOmp/T68XbtoKMwZ6lOQ1Crzf2ej+ioTgNjKU0HO003R8YSas3J5EpdJ0xvCsti1LnCP7FGBb7qYf2XS+wvBryqvZ0DWnd2VbPUttuipbVjqjWkeGxnx7h988/TmnQMOGf0LZzFXnGtjjPNA2b7Szq178RfvhzzwF2rN/tyz10mYmn9UUeXLg6LlsDRKIuYTIFq2toqCr2F3STyat8ihV3XUvwofFoxuVU4mqsoTxvcte9Rl45NY3Psjjt3O6JtNcEHgvf45X/koa9b1KVZZzExNMjmHUcGSu20ta4lapic28tfzbNr7O2YPIg+t6FspIwKZ+1Lc001Dwf9D75nut5Nje28cHa+5iePNh2reHBakxnRYOLxs3PUGz+ETbyKN/4Ks0tz1IQccL3gUhkUsGztDS/Ss3GcvLMP05GHuUbt9HY5mLtksAotCPHyPprh0BC9gy+Y4TpuEr3AUnWjGyuDV0UmIxxUB1mY9tgM/WNzjWDpOsWsn36Q5QGfXnFt8FlepjGunrcxgzyb/ty135qNf6VeXOnhu1cHE8GlWn7bjZUbvMN/Z0zyZ/paIz0TG5M7a1siQdfJPvmmyIWzb4W0VRm3PzPoYu6deyi8s5i3rv3ScpH8EABIqeelcSMFbR5G1mZcWHwooRkMgpW8qrXi9e7h7X33cC4Sb6TO20rM0yXuI3GSMthydo9XSd32tYuIcc8abbVIC0/8Fj+x1syh4xJX/Wd1PSf4PadPApzYihw8jPiifALyVjZ6J/HbzB9q06X0Rhpt1Cwss50YsyfTZ/FVi/vXTgJyWTk3B70Pvme6/YRO8F5WFaDtFvvZuWrppPlbWtZcputH8WWfz+KuJ+ZWUlItpFz2xLWtplOeLatZcltI2+C84C+XnXsu/ir3DQ3KexZZ98BybXMyZjMGcFLTm541lg3qEyBjmbqNoylvL6ZlrULmDL2zNA14tegMvWPEhWJMZEJY0fmF1dUDCbTxAxWtoUeFLXT0vASr+2BrDnXMzFuvxA+x8Vfu4m5YYtmf4to1jfJuDrSwc4RXE89TBELqPj+1zg/dLGIiIj0S9weinS7mK9kZ4U56+w7INlTfA+3TTrLdD+mOWO+yEVHfkNFfqrvet2kfCpqQzppxqXBZOo/eN6/liXTk9Uq2sNgMh1N0tX/gs29lbWb/tg1+azH/V+sWbcDY+7XSe/zzFYsG0ymZoGBls4hJetlxpZuZs28vi5jjHHnXk12uKLZc4Ad61spLrmVSaNM93cJjIoG5RV3kdbn2VkRiR+9DGrX49bHAE5xw0O7Y1nX4Gp93jSgVT+MrP1Qv6Jdo0eFnHX2H5DMzb4qzAg9HXzQ/B6wmaLcXIqq/YMBuKspyk0n7e7ayMPlxoXBZCq9G0ymVhLSFvDCzntgeSpn+794RiXl8+aUVTgfsIXZJp4MJlOToIGW6imb9wD/sXlfVyEdny4gPUzR7Nn/Buv33Eh2eoR2uY5GnlryPJdW/ZR70s4NXSoiIiIDoAIPIPGqkLPOHtqd1SyPdEASOLAzCqjae7T7et3ONnZW5oF9BU84Iw8VHhcGmqn0bTCZdrzHmzW/ChnhzI1z3Ra2/fHD03p2aVgYTKYB5oF0ju2lphjKcpfwVFyPpBmuaD6Es+rn7InUYuxpxbHiASovX8aKedEYiEBEYkugX56pf1TEW5h+f3Ep0K8vNJ8Itz4He5ORth+ezuceRs4POevsG5yCSAckXZ2Eq4JH8bEaTCnMZ67hYl3dO5Hn14oLA8xU+mGgmR7C8cid5O5Ko6bZdCLi2F5q5h5k8XWLWDMS5xiMqoFmGkHCJHLuL6HY2Eblht3x/dkPLZrb36FuHRFaRE/QurmUO9d8iVUP38K4AUQe+8JdDtT7PIPSF2UqIvFBP6fQ86xzrwck0j/KNPoGmGn7O9StayNrbh4zzaN4dRUj4QbDiDcDzFT6wVw0/532xldYR1b4FlHPe9Q9XYvbvZrc8aY5nUZdSWG9G+oLSRl1+vsyiIiIjCQq8AK6zjr/F407ezkgATwtdrJ77UCp6RNgYJlKPw0gU99UHqH3mrnZ09wW533GBphpi51si4WkEkePVjpNnRJgLpp3sXMwLaIS4XKgfg6jLhEoUxGJD/rF7RI46/w0JSs29HpAYp14PXOyoH55OWv2mQ7zPK04frqSMvdU5kydoHAHkKn0V/8zDeyne157kc0ut2kQkcB+mqaWKhhgppnML5iMe93zbDJ/9jv2sblqPfXosw+mornqx6zorUXU3I/RfOvcS1WWAVlVNHee/r4MIiIiI4l+M7sEzjq7cDrPjXxAAmBNZvbjpeRhp/DKc0yXFY0ns7SNvKoHmT2iJugcKgPIVPppAJlak5m9ooiU6iJy05MYFbSf1mMULONem85cDyzTy5j58I8pCP3sn30luWX67HfzF81vOHH20iIqIhKrerviIyDSFWEet4stmyrITzL1F51Wgn2LpuKi3UGJOZewt9nYTWMMxGOeKvDMEq8ie24aGH0dkFhJmDSX1c4Gqoqzuu418srZ2FDD6gKNBNel35lKv/U7UysJaYvY2hy8n2LkUV7TiOvZHA1qEdDvTME6LodnXTtZE/LZr2ms5zl99v0CRTOab1FEZAA8rbXcnZbOzFlFwSNgO8sonJlO2l1r2dcRo1XJEIjXPC1er9cbeme0WCwWhvDh45IyjT5lGn3KNPqUafQp0+hTptGnTKPvVGTqabHzjZRC9hQ3sG9lRtgrQ3zrLIcqBy8VTMLKIRwlN5FZdgHFax7h3+ZOwQicH+toYftTPyG/aDupXesPD6cizy7tDkomZbJubuRcu43MPIlCpsPptYiIiIiIxKf2d6hb58IoLuH+fFMxApCQzPTFS3k0C9PcrdKrOM5TBZ6IiIiIdOtowWEvYVpXn6ZsSuwOWkIvZetowRHUtynCev5+ULUV+SSZ+0A5WjSSs1lCEimpBu63DnCwZ4TdA1NpYvL+ieM8Y+zliIiIiMiged6ndlEumYVlOLvurKesMBPbos20Bg6UO5qwL8glM6hvk2+9lBmP4HCf6No60A8qt6iarlWdZRRm5rKo9v0IU07FIevlZM/PwagvxHZXBZtqf43LlKMMUBznqQJPRERERADw7G/gaftfsS2tp60zMHXJBzQszcJt/yV1+48Dx2nZ8DCF1X/FVlxNY9snvvWONVNfnofhfIg7/2OHf/TIQzifWIHdPZm8yh3+x+zk2N415BlN2J9uiLnL48zcZZmc02OUR99tVEoh9UFrj2ZcTiWunauYvr2IWbk3k550JhaLhaT8CjbVOsO2jsajiLkmLcPRHsgofvNUgSciIiIiAFjHTuAaw43zzVd4aXMttVtcuBlHxoo6vN4NFCSPAc8BdqzfAbYiKh64gzRjtG/jhGSmL36YVQWTca97hcZ2T1c/KLLu4/5FN/j7QVlJmJTP2jZvTF4ed3JGY0xZwNq2To41v0pNTQ0by/OguohZudNISb4bu3keVulDfOapj5SIiIiI+CSmc9ejBRjOMgpzc8mdmU7SKH+LR6DPXEcbzXvcGFOu5ksJIYeS1kuYfMOV4N7PgYMn8Bw8wFtuMK6ZwNg4POo0ihs46vW3hIbcOpurME1iFMJKQrKNnJwcbluyljZvJ8eaayhOeYnCRZtoic2Gp36LmGvbCjLCTs0TX3mGS0BERERE4lIikwqexNW4jY3leRj+e93VRcxSn7kh5KHdsYwkSzoljkOhC/0FyjcpnDsV6l9mx/7uibwlnPjOUwWeiIiIiJiMxkj7pr+lw9e3rmFjeXefubP8oxPueps/hfZh8nxI0+t7wZjIhLGj/Zd8EnkkQ/GzkjB+Iqm4WFf3jr//ogxefOepAk9EREREwD/5drYllfzHXscdKMgSJjJl8kWA/1LLMyYwdc5UcJaz5JHnu0cm7Ghhe+WDLLQ3Ycz9OumJVki8iuy5aVD/GD95vPsxPe7XeSw/FYtlNvaW2Go9GSzrxEzmF0zGXXYnt5bYcbSYypKOFhz2HzG/cCNk3cTUiWPMm0oYcZ2ndwgN8cPHJWUafco0+pRp9CnT6FOm0adMo++UZ9p5wFtTMNkLhLnd7C1v/Ni33rE93qq8COvZHvI2tH3S/ZAf1HgLjDDrYXht5Tu9x7qf/ZQ4FZl2Nld5s8BrFDd4j4Yu9POtY3izqvZ6OwP3tdV7l9qMMFn5b0aBt2pvpEc8PU5Fnl2ONniLjd5zNRuJeXqjkKla8ERERETEx3oZOY/X0FBVjK3rTgNbcRUNzS+wJO1c310JkylYHbpeFsVVDTRvfYCMwMiagHVcDs+6Gqkx9enDyKO8ZisvLJ5CQteaYjWms2Krk4aaZyi2daXlz3Yrja4nKZiUaLpfehOveVq8vipxSFgsFobw4eOSMo0+ZRp9yjT6lGn0KdPoU6bRp0yjT5lGl/KMvpPNVC14IiIiIiIiMUIFnoiIiIjISNLuoCTJgsXSn5sGsulTjOWpAk9ERERERCRGqA/eCKNMo0+ZRp8yjT5lGn3KNPqUafQp0+hTptGlPKPvZDNVC56IiIiIiEiMUIEnIiIiIiISI1TgiYiIiIiIxAgVeCIiIiIiIjFCBZ6IiIiISDR53Li2vEBFfqppeP1sSuwv4nKfCF27m8eNa8uzlExL6t4uKZ+KTU5aOjyhawOHcJSkm54j3C2JbPs+wm09opyqTPs1ZcLwnipBBZ6IiIiISLR43qf27izSZ95BUXWTaUE9ZYUzSE/7HvZ97ab7fTzu7SzLTCN95ncpc7q7F7irKZo1jZTku8NuFxeU6YCowBMRERERiQoP7c6nWWj/K7biahrbPsHr9fpvR2muryQPO4WLNtFibjzq2EXl7fmUOi8gr/yXNDQf7dqus62RzVXF2Nx2CjOWUdsaprXKWErD0U7Tc5lvbdQVTBrBB/2nJ1OjuIGjPbIM3DZQkDwmdJNhY+S+1yIiIiIiw8phGuvqcRvzeOD+O0gzRpuWJZI8/Xvc/+gsqH+ZHfsDl/gdp2VDBUXOVJY2vMxzS+aQkZzYtZXVSOPWglK2NlZic69m4RM7iL02p94o04FSgSciIiIiEhUJjE+5HNz7OXCwZ6sQjCG5YENwC1D7G1Qt34hRMJ8FtnERDs6tJKTdRUX5zbjXvUJje5i+YzFLmQ5U+NcrIiIiIiIDNIaJ2d+mwNhIoW0+FZtq2eJy9zrAiefgAd5yG6Te8GWMXo/ME/nStVdhuOupazwcujCGKdOB6vUli4iIiIhI/1nH5fCsaweV03dTNCuXmelJjOoauXELjhbzxYAeOj7Yzx6SuGbChX0cmFtJGD+RVNp468Ch4ALHXUrmOaPCjPaYTonjkHnNEel0ZOouy+ScHnlasCQtwzHMW/t6f80iIiIiIjIgVuMG7lu7B++xZhpqaqjZWE4e1RTNmklmyg3k25voCN1IeqVM+08FnoiIiIjIUEhIJiMnh5zblrC2zYv32F5qipOoLnyYDS3He21B6qmXlqmIo2g2sjLjQvOaI98pyjTiKJptK8hIHN4l1PD+60RERERERgr/JNlJJY7wozImTGJm4Ryy2MH6HQfwANaxE7jGcLPn9T/i7rUaaedPu9/BzeWkjE8IXRi7lOmAqcATEREREYmGhCRSUo2BjcqYeD2Fj87Cbf8RD25+P0KLk4cO13MsKdqGUXwPtw3jOdiiTpkOmAo8EREREZFosF5O9vwcDHcpmbcuxe5oMfULa6fFYWfp/OXUM5U5Uyf4D8THkDx7CeW2v2LPvYW7KmpxubunA/C4XWyxL2VG+mKcxgJW3TuV7hnd4oAyHTCL1+v1ht4ZLRaLhSF8+LikTKNPmUafMo0+ZRp9yjT6lGn0KdPoG/JMPa04lheQWVofusRvMnlV/8nqgsmYLwr0uLez/PZ8Sp1u070mRgFVjscomGQuRQ7hKLmJzHVZNOx79LT0DRvyPDnFmbY7KJmUybq5DexbmXFaCr+TzfTU7wUiIiIiIrHKOo6MFRtpbqihqjjLtMDAVvwMmxvreS6kEAGwGtNZ0eCicfMzFNuM7gVGHuUbX6W55dmQ4i6OKNMBUQveCKNMo0+ZRp8yjT5lGn3KNPqUafQp0+hTptGlPKPvZDNVC56IiIiIiEiMUIEnIiIiIiISI1TgiYiIiIiIxAgVeCIiIiIiIjFCBZ6IiIiIiEiMUIEnIiIiIiISI1TgiYiIiIiIxAgVeCIiIiIiIjFCBZ6IiIiIiEiMUIEnIiIiIiISI1TgiYiIiIiIxAiL1+v1ht4ZLRaLJfQuERERERER6cNgy7QhLfAk+iwWy6DfbAlPmUafMo0+ZRp9yjT6lGn0KdPoU6bRpTyHHxV4IiIiIiIiMUJ98ERERERERGKECjwREREREZEYoQJPREREREQkRqjAExERERERiREq8ERERERERGLE/w9PCvGWRyL0jAAAAABJRU5ErkJggg==;" vertex="1" parent="1">
          <mxGeometry x="30.889999999999986" y="190" width="662.38" height="320" as="geometry" />
        </mxCell>
        <mxCell id="Ync8aqMZyCeplK1bt3V_-3" value="" style="shape=image;verticalLabelPosition=bottom;labelBackgroundColor=default;verticalAlign=top;aspect=fixed;imageAspect=0;image=data:image/png,iVBORw0KGgoAAAANSUhEUgAAA/EAAACFCAYAAAATmnjfAAAAAXNSR0IArs4c6QAAAARnQU1BAACxjwv8YQUAAAAJcEhZcwAADsMAAA7DAcdvqGQAAEE3SURBVHhe7d19eBNV3jfwbwICYkWKIkxQ4Ka1Rbeoayv4wr2GIq27iLAtiG+k2N4qK6i7PLQV1hd0XSqkWxeFFfRphKKugOlWEZViS90HUTBBkSq0FhaUNnijBUrk1WaeP2aSTKaTNGlTmtDv57pyXW1m5mQyOb+Z+Z05c0YniqIIIiIiIiIiIop4evUbRERERERERBSZmMQTERERERERRQkm8URERERERERRgkk8ERERERERUZRgEk9EREREREQUJZjEExEREREREUUJJvFEREREREREUYJJPBEREREREVGUYBJPREREREREFCV0oiiK6jeJiIi0/PntWvVbRERdxl8nJ6jfIiI663glnoiIiIiIiChKMIknIiIiIiIiihJM4omIiIiIiIiiBJN4IiIiIiIioijBJJ6IiIiIiIgoSjCJJyIiIiIiIooSTOKJKEL8AkfpDOh0uiBfY1Bod6oL8c9Riiz3svGFsP+inkHL9yjNig9xmRA5a1FpyccYz/cagazCUtgdp9VztuTaj9KcEcGtn2s3LOkG6HQ6xBfaEWjWwJrh3Po0FkxJDPJlwmd7jgNwoGbJOPm9p1FzuFkurhqfzfJd5sXXP0OLb+/aix3PjfYte0k5QqgBQVCs4ywLDsqrSGdzu5zNz6Kodbgc6+T9wMvvVoPPSiairoZJPBFRJ3E5NmLeBCPG5ixClefdapTkZiIleTZK61uksgqnUV9mxixLtXqChibsXmHGE+UO9YSI5Pz3FjQcd/m+eXA7du045PteNDi5FzWVW8Pc2BAluvJ3p/BhPSIiaoFJPBFRpziCL95YjIIqB4A0zK04gGbxFBoq5sMIAI6lmPXUe6hX5bJurvr38NSspWg9LW9Cbenz+EOOJYh5I8Th73D0yBnFG81wfr8TexXvdAwBibM2Yt7aGsxbko2B3dTTQ3EGzro3se7R38L6zVH1xHNce757OH8Dim4B6lFsGiasrcG8tTX4wx1J0PlOJSI65zGJJ6II0R1CxjKIouh9nbHBHCdPNlnRoJwmbsKc5BhVGVHEdQK4YiLyjAKQNhXTjYOgRw8Iv7kd4+Xv7PjAhhqnVhZ/BF/80wJLK1m5y7ENK/OnIDGzQHGlv726IWbUM1KS5X69ZUXqAHnyLS/hUeW0tSW4Ia63qgx/BmPwr5IA2LBrd73i/Sb8+G0wPQ4iSHMNqv/+DHYeVk/oArryd6fwYT0iIvKLSTwRRTWXw47SwiwYfO6XT0e+pRK1mgmwzFmLjYrlDFmFKLU7EGAJldNw2EtRmCXfk67TQTcmH5Z37HAEU4heQPLEB7BwUwPEDdlICHpv7ILT/hrm5K5XT/D1ix1F/z0K0xeVAxBwk/EmCOp5Io6AuN+MxzAcwt5v6rzdZ4/X4D//rgZi78f4GZN9F4ELZ/aswOvu++QffBY1je6r+KfQWPlH7732L5cjUJXwdz+2uMeClxX33zYfrkbNu/l40V3uEgtq9ni7+ot7LHj5rkxU/iC/8fEj0rw+9/CfgXNPOT5bMsF7j//8Quz4vFq1jsdx8F2TPM/TqGn4BjvcyzxYhH3HXSGvn4dqPumVg02Vn6HxZMAN5Vdr3927ruOwbmstfqr8s/z5mdhUfdjvbyBxorH6bWya7x4bIQebqr6Cs9F7f3TLcRLasIzrEA5utWDdg+5tMhqvv74G36q3oXI8hyUforH+X55lNMd1aMGJxur3fevAg/n4bKu6DshO7sO+T5XrJf22u6v3QdlvBW2os771zITP9hxV1c8JWPduOQ4eVn9SCNvLzc/3CCmGAt4T78KZhq3Y7VO3J2Ddu+9jX4O6U347vjcRUScK+rSRiCjSuOpL8UByCjJzS1RdxcuxKGcsEicshl3rbPj4vzBnvBFpiuUcJbnITJmOJyrrg0jkm7Db8gckp2Qit0RxhbhqEXImpSD5/pXYrfW5rXE5sO2lF1G0BwAEGGdPwsg+qt2004Zlc8yoggCj+Q0Um9xdFfxJgqm4HOsLf49gr4d3Jt0ll2FALICvqvGj+774Iwfww2EAg4fgot7dVUvocV5cBm6dZpT+PVyOzzfvkpKaxo/x6VsfSO/H3ov0qWMQ086j3pn/rMJ7+ZmwrirzJH7OjxfCuvBlReNBa5z4qXI+LI8/gsqPa71vf/0q1i/KhOUf/8JPmkl0NT5/5TGsdy8zeDD69PL9QkGvX2M51qvmk2zGpy9nYdnzJTiouQ7hcgKHP3gab7z8tvz5l6Nfv0A11ImfKgvw+jN/xqdfu5O9zfh06RRYXnwd2hdr27DMyVrs+Ec2LIULFVeAD+G7d57E2sezsa6ytkXCDAA4+Cbef+ZxeZn+uNRwKXqo51Fy/YB9/3wMy575k28dOFyGysJMWJYrG5xcOFP/L6x7NB1vFinXS/ptS5+5D6v/+Yl24h9KnfA4jB8+mKeqn7XYueoRrHlrk+/nhLq9Dn+Cqufv0/we1sezsX6rsgdOWzjxU+WTePkxE0p96nYtdq76E9587DFUVbtbBtRC+N5ERJ2snaczRESd5UdUvbhA6lJunI+KhlNyN/tDqMhLlmapehebao6rFwQcW1ATX4Bdx5ohKu9DRzkK7luKqqZAZ2suOO3F8j3mAoxzy9HQLEIUj6LGOhdGAI6SuXhsTW0QjQFerloL0rsZMGp2CRxIgqloLd6cPRK+NwwcgX3Zs8itcgDGXBTOuBl9fab76nZrEcprPsHK7CRVORHsgmEwXD0YOPwJ/rP3qHQ1ffdm7AUQe/WVuFjzqNUHA9NmIvVX/aUE4r0y7G38CQc3W7HjMAAk4JqcHCT2O0+9YMicm7+B/o5/4tHVNZi3uhKZqQnShMPl+OLL7wEAurhs/EHrFoNZaYiBC2f2vI0PXn4bTvTH4AyLVNZaO2bMeQiDATg//hs2btnn/VCPanyHibjnlWrMW2vHw9lj0E/dxhPE+gGHse/95dK2+dUjcnk1mLf2M9wzMUma5etK7Ks/6Sk3WIG/u9IhHPi6N65++t+Yt3YXcpfMRtzAnj5z+Gj4EBvdCX/sZIz/u11abvFLGIG9OKCeH21ZpgkHy/8mN5KMxk1P/1vaLqs+QObE0VJC9/I/8E3DKfWCQM1eYIz8W65ajbRfX66eQ+EMnJ8vx7ulmwH0x+CJL2HGql2Yt3oz7s+ahBgAzsqX8PHnckJ7shr2V/8mJb2xk3BrwWbVeh3Cd6X5eK9Ke9SI4OqEUi2+/ioGN7g/Z/lLuCZWmuKsfB97Drq/f4jby1WPmreex5avDwEYjRvnfIDctTWY98o/cestCQBqsaO4GDWNZ0KoR0rK2AJibnka979S7fnNb/xVfwCbseWZAuzQ+g2D/t5ERJ1P83SIiCjyXYLUhTYpcd/0NIzYiXdKS/F24f/BfYvs8jzHcOioRiIizMSSBXdjeIweQA8IqY+h0DxemuYoxwZbo3oJhUZsW/OGdI+5MB1PPj4Wgh4A+iAh4w94xBQHwIHy1VtQF0IW7zrWiD2e/6qx8cttqK5rUs6h6EY/HubC+5Ec6LJy92T8admfMC6hj3pKBOuH88+/FP2v+hWAauzeWw8RjTj0zdcAkjB82CD/A1j1SkLyA/8HI2Llq/FvFuCjVdJIADGpj+CW6wepl2iba7Jw8++uk67o6wchIe33kM7zD+Gw83gQj7o6ivpP1+E7AIjNwOiJN8q9A2LQb9TduP6WwQAOYe+W7WhsUX8GY8RvMzE09jwAMehruFg9Q5DrF4uh91mlRGX+LAxFDb7dWo7d7z6Pd99x9yz5GSdOdHDScstUpCQNkHpTDBgcoJeEtyFHapB5GNcMipGWM9yKmydnaCR2bVjm+DfY9Z5cZyY+gJuS5Ayy1zAkjp+KEYDGeA1uY3H9bTdI36HXIPSLDdBg5PoeezbK3cJjMzA641b066UH9P0hpP5eqsOoxY6Nn6LRdQbOHWXY9vUhAP0x7K6HMDK+v1ROr2FInPyYp/Fq71tl2Kd+qgOCrRNKqs/pNxrJt4+SpzXixAn5HodQt9fBT/FFpXSFO2biA7h51DCcBwCx1+Ja4xjp9/DbsBAElwN7y61SbOG3uCUjE0LseZ7ffPS0/8FgAMAH+LjyC43bHYL83kREEcDvIZOIKOK5HLCXFiLLoEM3QwomZWZiSouu9RpGXIckQdnZtQ+uuO5q+Z5xO6zb9/t/jrrrR+z7skH621GAsRd1U9yLPxiZJXIqXr4N1T/4LaWF7slzUCeKaG7YjCJTEhwls5FmnOd9zJzre5T/wyJ3o38KM5IDXYOPVheh1/nnI+bSwYgBcPir3Tj88340fPWd3N26Dy64ZIicgKjpcd6g2zEm517E4BC++1hOlH/1CO64q/3d6N1ihl7WvrJch3F0n9yd9/ByvJl1pfd+6ClGWD+WUhDs2IlDR9VJg4D+l1ykes9X0OunvI/5wUysLXxE1f2448UONuAC9ZuajqOpwZ3YxeGyyy9RTNOjx7Cb5MRXqQ3LuG/bAOB8JwuFnt8lEQsefAQ7ASlZVo7X4DZgCC7qE+RQ+if/F43fyd371bdE9L4BY16RB4V8YjL66Z348dsd8uel4MrhqsaoXvEYet0w6e/DX+Kgo2WjZdB1wmMABlyq3jgaQtpeLpxu/A7/C2jcbqBHj6TZ8oCYm3FXqvx9QnXyezR8IXeDv2Y0Lvfp2aHHeUNTEC+3Mzg/+waN6vAK9nsTEUWAkHbrRESR4wjsRQ8gJTMXJQ4AggnmtVaU2Wqw1SzfH40L0f+iXqrlAAzsiwt99n569L6oX3D3jLt+RuOeVpsJ2kwv3IxHHs1CHOTHzL24GU3KZ8ILGXjk7mtbXkU8Z+jRY1AS/gsAdmxCTUW51I14wNUYMCBAd2sAwHmIueIGxHnOw/tj2G9+J1+5Do/z+sRIVw9lun6X4TLF/60Sj+PEQT8DfrWqH84/P3CiGNz6NeHge09472OOnYTU2S9hyvMbcP8095XHC3D++a1t7/boj9iY3v57Vvg4iVNH3L1SLkKv81XjIvSMwfktbkAPfRnxRJP2ffLBGNgHPYL7MsCpJjjdH9S3D3oEPBNr5XugJ2IG/JfqPV/B1Qkl9W+v/RmhbS8Rp38+KjdGnI8LLjhfPUP7tbZdu12M2OHStXhtwX1vIqJIoN7FERFFh6btWFMkj9CeVoyaAysxZ3IGJiYbEDjNAfDJXjT4XCR34fjRRkh3zwuI63dBcDvHODNsZ5SPvVO+liFDUJ9wB6e7YRhulv92HDyCn/EDtr7zodTDwLEUmZf1bHnlf08uUs7TQRdfCHvwHQAi00XxGHxNfwAfYdOqN6T7W2+4Cv1a+2Fd9ahZ/ZJ8HzzkLsav+xm8KwIMyEf2W8rH8SlfzyAxVv2FtZK4NlB0g8Y1f8WMZQtxw41puCLu0iCT6nAIJZHrhZ593beFHMXJE6oKfsqJEy36RrdlGa/YaVbMbfGbyC+t+7K1kkZ/evZBjLuh6UgTTmv0gPdq5XvgFJw//Ef13tnX+vbSoccFF8nb7QR+/vmEuoj2a227Nv+Ew7vlni5ERFEu2EMOEVFE+eXb7bDKF8Tjxl2DYZ692UkcPXRMMaeGPduwY6+y22kTvt3+ldwN34Brh17if+fYfQiuy5QHzlOX01SJfIPctT7dglr1SaSSsxoW+fF0hvxKeO9+d6Fplw0b5f/iRgyBfIfmuS/2IvTsqQP0sbhoqHtEK2h0v9VyBs7Pi7HBfc/tr0ZJVxsPvwHri2908EjrIeg2CANvkAeP++Er/PCD4r7z459hk/uxW8+9rXFPfHiIjm+wW27oiL16OGI9lf0UTjb9rJgzUvRGH4N7oLg9OPD9j4ppLpzeu0XjWeKhL6MTrsJwOQk8/NVuHFaMDn+6ukh+XNlovFWpPYBc0Hpdin6D5aj+7hscOqJoZHLtxY7n5MfhPViEfcd7Kb6Hxv34J+uwb7u8PrHXYqCg0fOog4S2vfTo0W8wLgUAHML/1tT5jvbe8DbekrviB/d4Pg3K7bpjM773GYjOhTP7bKiT72QJqlGQiCiC+T1PJSKKZMqr1XuKXsO79acBNKG2tAh/8Qxs589aPPHXYmxznJae91652PvcdSEN6Sn91Aso9MPIO++VR7NXlnME9leKsMgBAMnIy7+jlWe/H0fjdz8BAByLFuKvpbvhBOByVOD5v6yQGxSmYN4dv0J3XI6MlXUaV/u/g9X9iDl3r4C6OUgO+WLtL3CUzpCv7o9Bob3FHb9nR4++6NVTD6APLrlCTnQBAMMwdMhAIFBX4MZN+LhYumqP2HuR/ugLSHM/du7r/4uPyqu1Hw12NvhcFbwIg26c4B1gq9QKx+EzUhf3j17Dp4cBIAk3ThrbYuT5cFFuw8PvlaK28QwAJxq3vobNnoHtwkTrimjIeqLf8NGQ7pSuxY7if2BHvVNKzBo+widvl7a8R70ty/S+ClfeLteZHSvxyfvbpUTzZDW2u+ePzcANNwxVLRgi/eWIGydfzT9cjs/f34TGky7pN/i8DDt3SIPYDb79VgzqfT763XAXboyF3LNkObbVybdjnNyLmrcXo/LrQ/LgfVMxtHcHVRotoW6vgTfi1/LI+M7K1fj8871STJ7ci5rKD+RBCI0YeeNVLRvsgqlH+qG4cpJ7wEJlbEm/+eZV/1ceUPJepP8uueVnEBFFkbO4tyciCiMhFY96RpR3dzG/CImZBagxGnETAOB77Nzf4hIdINyExLq/YpShJ3S6njCMnS+NNo80zH19JozqZ7P70CMm+X7PaPaOkllyObFIyV0vPd99bgH+aFQOpKUhJgUzXi6ASYD0XPvMK3GhToduhjQUVDmkdal4AdMTzt6VtcjRDTGXj5ATsCCuMJ78Cp+9+KzqcXIX+z52btVifOL3+dAdQHnFfcefsWyq++q673PtnR8/g9ceTMKCKdfDsqpKSt4yZuP6qzpwgK3YG3C9u4Hj8BuwPpSEBVOSsaxwORrdPRjgwKEfj/ouFyy/3109YwgMt2HcHybLie/bWP/HZCyYciXMjz2L+ktukBtFVEJeRvmowlrsXHk3XpyaiAXTpsiJ8mjc9Oi9YUiUz0PM9Q/hjgz58XDvPIJl0670/AbSgIz/g1vTkqR72XuPxOinn5efvFCGj+bKV+qn/RbWd+TH1GU8Hr4nMAQtxO2lH4TEux7HTfKj3j4t/C3M6u8xbSaS4+TbB0KuR3r0SHoQ98q/uTe2roT5sUfwqWedHgrL4yaJiDpTe49ERESdpC+SZ78K24o8+aq4PLid1Qb7v57EaAEA9mDj+s9Rrz7p6/17LHxrHaxmkzwiPSCYzLDaVuC51EFB7Bj7InnOm6ipeAtmk+KKsWCC2boObz43Tn7sXCB6xAzPwmt2G8qKFd8BAox5xaioWYsFQa3LOarvZRjgzmPVI3j7aMLB8qVy0qB6nFyvJCR7Hiu1GVteXH4W74+PxdDxT2PCxNGed2Iu7iNf/euDgXf8DTOefgGpt8jP7IY8wNycZZg09eYQRxMPVR8MvP05ZM98wJvIxk5C6hwrsnMfxuWxAPAd/rN9p2+X56AF+u5tFYOLU+fivqf/Kj/vW17nJ1/H1HvToD1mfxuW6XU1bnj8ddwzO99n9PqYW/KR+fzzMLofo9Ze+gEYevdi7TowuwQzHjdhoKfO63HeoN9jwkIrpmiu179w390dXWf8CHV7xd4Mo5/5M55+HVPvuFoxCF9b6lEMLk6dj+znX0HGtEmKsQsSMGLaS8h+ZVnLdSIiikI6URRbPiKUiIhIw5/flh/hRBQpDpdjnfuRZre8hEe1Bp5Ta8syRAD+OlnR6EJE1Ek6o92WiIiIKEjKgdISseDBZxU9Kpz46YuPIY3P3h/DroqXk/G2LENERBQdeCWeiIiCxivx1ClOfoXPnn/Yc9uEpl/NRbayG3pbliFqBa/EE1EkYBJPRERBYxJPneZwNb7dvQ27X1vo+3i42ElIvT8DCb++Hv3UyXhbliEKgEk8EUUCJvFERBQ0JvFE1JUxiSeiSMDmZyIiIiIiIqIowSSeiIiIiIiIKEowiSciIiIiIiKKEh12T7xOp1O/RURERERERNSltTcF77AkHnIi34HFE4UV6ytR6xgnRMFhrBD5YkwQhS8O2J2eiIiIiIiIKEowiSciIiIiIiKKEkziiYiIiIiIiKIEk3giIiIiIiKiKMEknoiIiIiIiChKMIknIiIiIiIiihJM4omIiIiIiIiiBJN4IiIiIiIioijBJJ6IiIiIiIgoSjCJJyIiIiIiIooSTOKJiIiIiIiIogSTeCIiIiIiIqIowSRezVmLyrcLkWXQQaeTX4YsFL5dhVqny3feX+wojJfmiS+04xffqZFBsY6tvrJK4QDwi70Q8ToddLoxKLQ7AfwCR+kMn3kN+ZVoUn2Uq9aCdI3yuh4n7IVjpG0QXwj7L8pt2torHlml32tu8xavMfmwVNbCqf54uOCs3YDCrBHyvCOQVVgKu+O0ekY/XHDaX8AYnQ6GnFLUnw69DkmaUFu5WrEe7nVZjcpade3pQM7dKM2fhUL7EcWbIWwjZy02FmbBIH8HQ1YhSu0OqPYGnVpmi5h17UdpzgjodLervneEabEPVcROq68ZKHX8AuB7lGbFa0x3vwwYk28JXOdcu2FJNyjiL1hHYC+8HTrdCOSU7sfpkOMc8m9chbcV9UEn14m3NeO7o7jgrC1FftaLsCuPdWGuq0AHlekW6LdsUd9Oo750Fgw6A8YUbjuL2zpILda3DfHhKEVWi2nKVzryLZUtz29wGg77e7Dkp3vnNWShsNQOh3pWf5zbUDjGAJ1hFkrrG0NfdyCC4qMJtaVPIUtdTzqiLgddppf3/Eu57RSCKbNFfYuw+FCvXxvOb9seDy44ayt94kFzGwbCeFDo5HjAOXKsEDtQBxcffsd2isWmJBGA9stYJNqONXvnP2MTzXHStDizTTyjLCtSKNax1ZfJKjaIonjGZhbjABEwimbbMVEUz4gN1od85xXmihVHFdtCPCHWFE/RLC9aIGz19ZhoMxulbRBnFm1nlNu0tVecaLJ+p73NNV+CaDRvFY8pPr35gFXMFtTzadRff5r3idbsJBFIFvMqDrWpDoniUXFXcbYoqKd7XuNFs+2w+pPDr3mfaM1OFo1zy8UGxVcPeht5toV63pbr35lltozZZvFoxVxRAEQh2yoeCOJnDxbCFida+1BF7LT6eki0NpwRRfE70WqK05iufrXcvqIoiuKxXaI1L02exx1/wfH8PvL+MPQ4bxaP7VohmrR+Y0AzvjuK9F3SxLkVB0RPdemAutohZbq19lu2qG+iKB6tEPMEiBBmitYDp3znbye0N1ZarG8b4qPBKppaTNN4+WzTU2JDxXzRqJ4HkOqkan+q7ZR4wDpT2gflVYhH27LuERMf8ncxzhcrGhR1pCPqcghlyguIx2qsYp5RkOdzbzvlLEGW2aK+hT8+0J6YUK9fW85N2hQPzeIxW5GfeEgSs637vPtMvxgPSp0aD2LnHyvQnjhQCE8pfoRrJc8OjSS0xUsVIFo/cqRpw06uZUKglVBOEYtrTng/p3mXWJzmDhrf8qIFwlZfz2YSr25QOSRW5CWLUCRvzQ3l4lyjIAKCmFa8q9WDTXNNsZimLLcNdchTRqCXemfdERqsoqnFTjzYbeRNhD077eYDYsVcecefVizWeFa/M8tU1i9FXLoPOOpYbSeELU609qFtObEJNol3nzy5HRVrKooVB3toH8z98h4z3OWGHOda+80WL38nK+Ek72989tkdUVc7okwx+N/SU9+Uy7s/R11m+6G9sRKO+Ag2aXE32oq+x3PBtELcdaxZ1TAbRJ30lOEutw3rHjHx8Z1oNSWr6lNH1OVQyhRF8ViNWFGcp0ou1ce7EMo8C/GB9sSEOh7acG7S3njwbEPlRT/5PC8gxkOExENkHCvQnjhQCE8pfoRrJc8OxYmgYBKLtjZ4KpFPq44yYVLvUDxlnRIbbFbR7HNVP0k0ma2ireGUb8XUOMH2JkCKnYgois0NNtFqNnmvbhrzxOKKmhBb3RTf00+S3VoSLxiN4k3qSiwnDNI0ef38lB+pwldfWybxLXgOJBo7D1H03eZaZTQ3iFuL3HVBUU88iZuy7igaqNQ7vRYUO1efhEeptTqkrC9Joqlos/eqjU/rp2/9biGog627jmprWZdD2Uba28Ibn1oJc2eUKWvRYKH9We2FsMVJoH2oZwZFXVIfjN289VGrjOaGzWKRe1/s2X9r7dMQIB41aP4+Kq3FuaKOC6Yl4lbPVY2jYo11rudkJPDvF2SDn9Z+xENrn6Vdf9pXVzuizFB/S/UJqPJEUd3DrH3Q3lgJR3x46pjWvvKU2LB1iefKnuc38VdvPb9JayexwWzTUNa9k+ND83foiLocQpk+jZdxotEoLddyW4ZSptjh8YH2xITm76DU2rlJG+PhWI1YsdYsmgTl5yqTcPU2VwtmG56teAiu0Vt7+8o0f4cQ6lmnxUPkHCvQnjhQ4D3xWsZNxF0jBXnAAD1iEn6HnGmjpWmORhz5OeCdGHDal+KelEzkllQr3q9GSW4mUu5ZCrsT6DNyEmYbBQCbsXrzPsW9HSdRt/lDlAOAkIb0lH4AAJdjI564ZwIyc0u89xxXLULO2EzMtFSfxfszBIyYeg8mxDlQvnoL6lwA4EKT7SOscsRh3PhbEa9ehMJPL2DkXRMxDgBwBAePnAAA/PLtdlgdAJCCUVf2lWfugYFD4yEAwM46HGhxr5dC01fYsMoOIA7jRl2BPurpIbsZE+8aBcG9p4kZjkk5U5EG+Kz32RT0NvplP7ZbW24L/cChuFYAgL2oOSBFXqeWCQCuelS+tBwbs9MwakB3ed6+uHJUCgDAseoj2JoC/O7nML0wCndNvFn6p8X+W4Axz4qq5TND3G+593lQ/T5tFYdxE+/ASKGH/H8fJEwyYVqaAABwHDyCn33mPws6oq52RJkewfyWp+GotOCljTdg4qgB8nt69LkyRdqXOsqxwdbou8g5rQeEkXdg4rg4QFnPhAysFEWIYh1WZlyuXigIjbBtKJfOVcal4Mo+7T3VZHyoy/RKQ561DMsfkfb1LYRUZlePDz/xEJOA1MlzsLJBRN2cZHQH4HJ8Cuv6GgCA4HPc1cJ4iJh4AM6pY0V7a9I5ZABGTbxNqkAls3BP/qsofcc9gEsvJGSvgdRzYRkyhADB6qrFmnlmVEGAcW45GppFiGIzjlbMlcquehebao4DMVfjjmmjASiTYQCufdi8ejMAQJh2K1L66AH8iKq/z0VBlQOCaQV2HWuGKJ5CQ8V8GFGNkpxnsab2pHItOlBvDLx0OBJujlOcRB3Ht9s/hQPX4Zbf/QYjpP0fdSSXA9veegcbAQCXY8SQWAAuHD/aiOPqeaFH74v6oTe0khhfroP78KUDijLbojsGjEpDtgAAy5F5z59hKX3fM2CJPiEbG9p1gtgeIWyj40dxqOWMQO+L0L83FI0QnVwmXHB+YcXK5odQtXgSBnn26t3Rf0g84gDAUYd9BzUGjOkCXI6teOudT6R/4uIxpL+8/+52FczlVVi3MAMJF4Z6KDyNg/vqpJMyZZmhGpCMidlJAPagJPN/kG95G++4B+zRD0f2hgbpuLMyQzp+nE0dUVc7okyE8Fs6v8QbK5vxSNUCZAxynwAD6D9EPm414Mt9PwYcMOncchqObe/inY17AABxI4agv3oWj9Oo/6hUbrgy4Nqhl/g/gXT9iH1fNgCtltkKxoekRZmSbiP+hPKatViYMRwXKudXCqXMLh8fwcTDSdRa7kQ3QxoKqiAlgz7HXQ2Mh8iJh3PsWBHgG3Q1PTBo0ly8PjcNgANVix5E5qQUGLq5R0180xssgXgCqQGbFtwCfPE+SkuL8de/rFCN1N4L8aNvk65Iln+IzXVSEu6q24LV5Q4AyZiWfrXU8uS5OmrE7EczMTxGL7UYGqfKLW/qq/kdbQCSbrnO2xLlOoAdG2sAIR5DB/ZUz0zttScXKeepRivtZsCo2XKvDOMdGJPYG4ALPx9pbMcTAX7BD9XbpF4gSMQwQy/1DEHTD7odz70+H0bIPUYyxyPF0NM7iqqngSwAz9WgQK9NmJMco17So3vyHNT5zBfCNvr5CA4GNWMnlwk9YpIfxcqFGUiI8d2ldzcMg3QNejs+rj7kM+1ctCc3BeepRvbtZhiN2SXVUuv7jN8gsTsAdIcw8VHMGZcA/7UnkEOo/ni79OfNw2BoYw4P/RBMeq4Ic40CgHIsypmCSSkGdNO5n4ribfzyrzuEjGUasaF61c1Bst/1jEHynE2+83VEXe2IMkP5LWNGYs7KZ5GRoOpj1P1SDLs5TmpU//gb/OA79RxRhdyUC1WjXveEYdQslDgAYDxmjImDdhU5DUdlAe7LXCofc+7FnSOlXoKafvgGH5c7AMTh5mGX+ikzCJESH92TMadOms99JbZD6nLQZQLA5Zg4ZybGqeuyWihldqn4aGs8/IJjje5jqQNV27bi05ofAp9/R1Q8XI6MlXUt67/q5annWqI2Hs69YwWTeCX9IKQuWIcG23qsNZsULVnVKMm9F5NSkjF23sbWkw/P4xB6wpAyHpmZD2JRVcuaqI+/CVN9knDtrvTerieqnU63K5FT7gDgwM6ahrPYpb6n3O3FDuv2/TjtbngYl4Ir+3RTz0wdSchG8cs5SFYlb23zC44dkbsHtefqIiA1MqU+jYoGG8rWmmFSNAs7SnIxZVIKDGOfQWWrBxxqF0+r8XEcPPJz4BONc5xgKsDLM1JaP3gHw/UzjhyULhG068oKAL0wDgsq7LCVvQGzKck7wVGC3CnjkWKYgHmV9V36t+t4sRgyQu4VdPAIjnW5jZ0EU/HzmJGsdVuIlMDfM3Y+qgAAaZj75J34dYBjjuvYERwE2tmjS8L4iARdLT4CxYO7wfModhVnQ6hahOkpj2FFgN6wjIdzSWTFgv+9cJfVA0Ly7zB5zko0iCLE5gbYyqxyUu9AVcFc/L3qR/VCXq79KH0sE2m5JXBAgDHvFVjLbPhuq1nq1qqkH4rRUxVd6n/R6kofnLN3D8zlGDHkYs99IXs2bseX++uwEwLSbrkKA/QXoF/cWe/I0wUlwVS0GQ0HipE9PFDLYyiULczhoReSMVG+l0wUT6HBth5Wd1JfNR/3/X0z/D69u9Xnueq8z0WnVjiwp7GLJvGCCUVbG3BgZZbciykMXD+jcU/Lhtk20wtInngP5qzcCVEU0dxgQ5nVfZJWjoL7lqLK75gGv8BROkMjNlSv+ELY/TwulxT2NHb6idnZJJiWYGuDHSuzkzQauNQJfBJMxX/DvNRBAU8eXccaIXVIDhPGR+Q4x+MjcDwo9cHwyfdimgAAa7Hg3a/hr/pEVjx8j9Ks+Jb1X/WSno1OAUVALATaD3cprloL0nU66HQjkFO633uyqxeQPDEDk//4KGbHAZCvPvur3K66Ciy3VANIQrb1U1QsfAAZE5MhaF6gVnWp//fncpcbRVd6H0aYbcdadHsRxU64B2bAVbglTQDKlyN/wRo43PfI6S9A34G91XNTe8SZYTvjToJLkGcUpN4hZgs+qFWmwIp7oH0o7kES+qHvBR0c9q7dsKQboNPpYMgpRb0nmKQGsozJM/DobCMAwGHdjm/9BVOHCGEbea5iq3ju0+qLgX3P7/wyySPObMMZd+Prijzpdg5HCcxLy1EbaEDHTiHdW6nT6aAzzEJpvbdXil5IxsSMe/DHR7PkMQ0+xfZvtW4O7EAdUVc7okwKkvf8oblhK1bkScOLOkqWYekHtRo9+Vxw7v4nHr9PmcD/E0tbTW7ChfHh0aLMEHREmeeEUONBg+febGDPzv0I7yUQNcaDR4syuy4eAWXe0Q6rYZn1FIo2KoLY5YD9jTVYH0RTmrfF7RJcOeRieQP7G8jBt0t98V+WSQOVqe43897XWoONOw5ExtU0/SUYeq0BgB1VVXsADEPiZWfn0N519YCQPA0Fry+RBo1zWJCTOs9nZ+6tKzZs3XVEflcxCNeIeFzm92pkd1zYrz0dg2WeugE4LE9jXtEGRQJ1Gg77v7BGHtW1MwS9jTz3Pu3Bxq3fenoMeAf/89b5Ti0zEM/Brp334kUbvYDkrL/gdetMCAAcJdOR+liZokGpncLS40gxGq9jKWbNW4qNikY5l2Mb3lizMbxXcELREXW1I8oMi5M4euiY9Gd7xjiIEnphJLIKXoE1O0lqEM65G48pL14AcNWX4bHU6fL9waEl8PoL+2mcpIeK8RGozKCFpcxzOz5aiwdXfSlyDDrodCnIr1T0xPUcX+WeqN4pPhgPiJx4aLfIioVwHQGjX5/rcOfs8dLfjhLkpiXiQnfXkm4GpExfJLdGJyPzuiF+T4a9wVqD9dZP4XC54Kwt0xjYTqZPwOT86RDgwJaqLXBAQNq03/reb+YZkdKB8ifMWLG7Se7m9gzG6DR2LGeF9/FVAIC4kbhmWNsHQqPg6QdNwuJ1RfJVxqWY9dR73uTEU1fsWPXGv1HvAlyO/4cVqzZLB5qpNyHeb9QrDhJ76rD/UFsvkffDyDvvldYP1SjJvQ2JF3aTu2n1hCHF5BkjQsi8Dlf4C6YwDGynKeht5H1ihWNVKT6qPw246lG1YrU0bkXabRgdL9f5Ti0zAM/AMF2xxboHBmU8h3Vmab/usDyNp8p8E5U2UzRUtf0KjF7xqFHAUTIbaYkXebozdjOMwvRF0jCTEG7EdVf46+EUhoG7NHVEXe2IMsPhBI4clE4mhYF9cYF68rlIPwQZi4thlnt2WWaZUeZpEP4RVS8ugEU+aRGyn8GC6cEl8IDyosj32Ln/sHpykBgfAcsMWjjK7ALxETAe3OxYtXI9djtd0mNdn1+IRQ4AGI2po4f6TagiKx7CMLCdphDqWafGQ3tFWCyoHxwfTh1cfPgd2ykWm5JEAH5egmicWy42NMvzn7GJ5jhpWpzZJp4RRVFs3idaswOVESearN/5fu7RCjFPcE+fIhbXnPCdLopi8wGrmO2Zx/clZFvFA+51atV3otUUJy1rsooN6smiKJ6xmcU4QASMotl2TBTFM2KD9SH58x4SrQ1nRFEUxeaaYjHNvQ55FeJRURRF8ZhoMxsDlh+pELb6qtgGcWbRJm0uXw1W0eSvPoii7zbXLOOwaDOPl3+TJDHbuk+UqkCzeGzXCtGkVVeMRaLtWOCK4v1N3b+9ltbrkCgeFXcVZ4uCeh181me+WNFwSr3gWRDCNvK7Txgvmm2HI6dMP7yxrL1faQuELU787EN9Z9Dc9/jy1kfNMo5tFc1GQSpDmClaD2jUuVbjUe2EWFM8RSpTMz5lrZYb4Df2vNLEuRUH5Pg+yzqirnZEmUqtbnMNnnooiGnFu8K2rdHeWAlHfHi2h9Y+vVk8ZisSjfJ2dZ9LKI/t/l7a6yNr3iUWp0kx53++INY9UB3wvLpqfCi1si3bVKZCGOMD7YmJVuMhiHOTNsSDKJ4SD1hn+jmfSRJNxTtFdUk+GA+RFQ9unXisQHviQMFfw1HXFJOE7NfKYSt7Rb7v2E0eoK6iCusWjIMQaKvphyBj8VpY5ftrgCSYzFbYGg6gIi9Z6hay/nPfbp19rkb6tGTpbz8tS/pBGXjVboNVOWq+YILZaoP91YzAz6jsIN7WRQEjEg1Bt9JTOPRF8oynNFqN9YgZPg1Lqz5UjFwq18E3Z7Y6ir339o72tBhDGvQl+2XYbetQ7IkFmTEPxdZNqFn3JFIFxfM3z5oQtlFMErKXWlGuiDvBZIbV9ipm+4xc28llavoFh/bXSd3r/OxXuoSYFMwozNXuudJmivFM2tVrRY+Y4Vl4zW5DWbF8D79HGvKKraioWYsFrQwk1mE6oq52RJntdWg/du5Bq1fUzj16xCTfj0Kf3ip74PA8arSNPIP2tqenChgf8lvaZYagvWV2mfjQiof9cKEHBmUUwW6z+owIL23DcrzW2m0mjIfIiof2iLBY0IlSi0CH0Ol06MDiicKK9RUAfkRl/m0Yu8gOIa8CuxemagywSNHB/Vs2wGguw7o5IwOfaASJcSJrqkT+8LFY5EhGXsWHWJh6iXoOigouNFU+geFjC+AwFsG27rGwNRB03VhRbFNhLip2P4fUEJ62Q5EkvPHRNWOC8XBuCF8shCsO2vbpRHSOugTGnIeRBsCx6iPY/D6mhCJe01fYsMoOYDSm3XF1WBJ4UuhzE3KemyLd17fhK/+PSqQI1wjbhnLt8WiojfToYzThuTQBcJRjg61RPQNFDcZH+zEezg2RFwudvwZEFFH08WPxUHYSDzZRzYUm20dY5QCE7LuQ3lW70neoXohPvwvZAhu8opq7sUvIwEPpw3hSFC76YUh/KAMCG7miG+MjPBgP0S8CYyES1oGIIon+cqQ9nA0jDzZRzN1iPB6zH07tlDEzugL9oFQ8PHs8G7yilruxS4BxtglpgzpjjI5zVQ8MSjNhtlFgI1fUYnyED+MhukVmLPCeeCIZ6ytR6xgnRMFhrBD5YkwQhS8OeH2GiIiIiIiIKEowiSciIiIiIiKKEkziiYiIiIiIiKIEk3giIiIiIiKiKMEknoiIiIiIiChKMIknIiIiIiIiihJM4omIiIiIiIiiBJN4IiIiIiIioijBJJ6IiIiIiIgoSjCJJyIiIiIiIooSOlEURfWb4aDT6dRvEREREREREXVp7U3BeSWeiIiIiIiIKEowiSciIiIiIiKKEkziiYiIiIiIiKJEh90TD/m++A4sniisWF+JWsc4IQoOY4XIF2OCKHxxwCvxRERERERERFGCSTwRERERERFRlGAST0RERERERBQlmMQTERERERERRQkm8URERERERERRgkk8ERERERERUZRgEh82J1FruRM6nS6I152w1J5ULOP+H4BrNyzpBmk+wzxUNrnUHyRTfp5ieTXnNhSOiUe6ZTdaluSCs7YSlvx077qNyYelshZO9axErXDVWpDeoq5rvQye+igt4/3ft16nIL/yR/XHeHg/T7m8Btd+lOaMgC7dglq/MxGdJcp9fGsvd511L6Osw+0+VrjQVDkPBvVn6lqPPepi2lBnW+7bfY8RhvxKNKk+xkP5eX732y447S9gjN/zn9Nw2Fchf4x7vdORb3kPdsdp9YwBuRx2vGPJxxjFdzRkFeLtVs+TmlBbWep7fqVLR76lErVOzS+kcAT2wtsDfHfqPGE61w/7uU4odeY06ktnweA3dvw5DYf9PVWdHoGswtWorPUbzRJnLSpLX1XEYwj5RsA8pmtjEh/JHHXYd9DPAce1D5tXb1a/68tVj8oFTyK36rh6inwAXIwJiWORs6jc+3bVIuSMNWJC4bbWA4uoQzXgy30/+tlpn0Td5g+hqLl+nEZ9mRmzLNXqCUTnjjYdK07j4L46ONRvE50Fji/34aD2zh2uui1YXR64ZrocFVgwx4wq9QRASjYqC3BPigmLqtzllGNRzgSk3LMU9laTaMhlPIOxhhRMylnk8zmOklxMGZuIhKyV2K1VlnM3SvOnIHFspu/5FcqxKGcsEhMeRWm9n3jFaTgqF2NO7nr1BDpntfdcJ7Q646p/D0/NWhravt9Vj8p5E2BImaCq09Uoyb0LYxNvRpalWiNvcMFZW4r8CUaMzXxQEY/ufCMRCTmlqNf+8q3kMcQkPmx6ISF7DURR9L6OViBPAIS8ChxVvi+uQXZCL3UBvm4ywihsxurN+zQDWzrIGWA0xqknAQBcjk/wwv23YWyBn9B3fY/yf1hQJZhgLq/BMVGEKDbjWI0VeUagKrcQa0JqoaOuTp+QjQ0+9fwQKvKSAWEuKo42K95vwIbs4a3sfJJhNPZG+eotqNMMgH3YvHo7bjLeBEE9TaFNByuijqQfjuwNDYp4aMbRirkQkIy8ikO+x5AN2UgIHCjtOFY4caBmr0Z8ihBFGxamXqKan7qssNZZQdpvl3+IzXVa5xhy0nKTEUbNnftpOLYtxf3JaShQJgRKzi/xxl+Wo8o4F9aao9J6NTdga5EJQpUZ89bUasaKlwtO+1LcM3a+dI60dhNqjrlj5BQabOtQnJcGR8l0pD5W5puAuOpRueAxZC7aCWNeMSrcny+KEI/VoKI4D0bHUmTep9GY4HJg2wsPIHnsfD+NE9T5wnyu395znVDrjGs/yp56GhY/oaPtCOxFD2FsQTkEkxlrK9w5gxRXtrJXkGf8CSU5d+Ox0v0+seVyVGDBQ7OwqGoE8oorFHHUjGM1FVIcWWbhvqKWFw5bzWOolfNo6jwx/43xdxv8BLZ8kEv7HcZf11c1zd16PBqzN16HggKTduA792DrBz8h7bm5mD0uATEAAD1iEibhz09OhwD/J4VEHe9ypI+/ze+JnpSYjMCE8b9WT/JybkPRfXnY++jLMKdpRgFR9GvrscL1I/Z92QCMiMdlMTwVoLMnJn0C7vbX8CQnLWkT0nFdi2ny1cBRs7Bx3HwUmJLUcwBwoWlbGYqqDMh7cjYyEvpIb+sFpIy/BSPUs2tx1WLNPDOqjPNRYX8VcyYbkeCJkR4Qkm9H9sLVsJnHw2FZgBer3F2hXXB+sQZ/KdgJ49yVeLMgG6nuzweAmASkZv8Fr1tnQqh6A2u2NXomuRwbMW9sMkbN3o5xBfNh4iGri2j7uU7odeYI7EUzkbl3MorNk9QT/XLVlmJe7nYY55bD/tocTE515wxSXCVPfAAL15XBbPwJllnLUeW5tesIvnhjMQqqRmBuhQUF2amKONIjJiEV2QWvwJp9MaqKyrDNs1yQeQwxiY9cl+M3t6VpB7b7IDc1Fdd0950ENGHXhi0YbP4QNbXFeHjkIPUMkj6pWNigdUVUj5jL4jECBlw79BJWEOok5+HS39yGaZonet7EJPUaxQmSjyOwL3sWuZiJwod/g37qyUTnjDYeK5wNqNnpgHDtUAzkjp7OpktvwG3TtBuepKTlOkxNTYK6ysJZgw1rBsJcXoPalTMxcmBP9RwA9OiTugAN6t4kzlpUvPsxdmI0po4eGuDcxoWmqhI8UX4xsh+ZDqPQQz2DrC+SZzwFs7EBqzZ8Jd/f34hta95AlTAdTz4+FoLmh/TAoLRH8br1SaRf5i7bBeeuTVgzOBflNZ9g5cP/jYGqpehc1dZznVDrjAtO+2uYkwuYCx/E6H7nqWfw40dUFf8D5UIGHpl5i586DSAmBTMKc2F0lGODTW6catqONUXrIeTl4/HUQdoxp78cafkvwbokDZd5ZggyjyHtbUqRoBv6Xn+rZmC76rZg9c47kT/5KnRTvC+5BKkLN2DlnHRFi1coTsNRvR07hRswKlG90yA6i/peg3StEz3XPmxeXY+8/IkY3jIAVAer+5HcpjggihZtO1a4Du7Dlw4BI/o34tPCLHmAuxHIKiwNefAvotBciuvTtRqepKRlZ94MTB7eW/G+rE8qFtatxBxP78EgNFUi36CD7sJEpK0fiALbYkwP2MXZPVbElbg5aUDgk+SYYbhupAGOVR/B1uQKvndLTAJSMyYqrtJLDQ91K/+Eccor99Q1tOlcJ8Q647Rh2ZylgPkpzEiOVU/1z1Onr0OS3wYtSBcAr7gGIwW7p1HLc4xJNASIVz1iEozIyFD2dmlvHtN1cOtEsj5XawS2fJCbditS+oT/55PuIS5F4mwT0gYFCliijnYxUjRO9KTE5Bakp/i5vu60YdmcNzC4+HnMSFbfbkJ0Dgr5WOGC80AddsKB8twpuC23RB43oholuZlISZ4dYOAtovbSo0+KRsOTnLRMS78aQaQlQZESCfmfqkWYPucllAUcSds9VkQ8hg5s7RwoBpclDvMOLMneLdQmbTzXCZrUM7Fo8JN4eUZKgIRaQyh1OsaAxBGCPGil+xjDXr0dids1ovVrGdhNW1D8xN6wHuTcXI6NeOK+WfhgXEHogU4UdlonelLXLu3EBJ6RTIuGzcOC6Umsw9RFhHqscF9tTIKpeKd3kCLxFBq2LoEJSzHrxc3+HwFG1F4tGp7kbuxhSVq8vAOuygP3YgUyHypuOagcUadpw7lO0OSR64uGYsmCuzGcV7bPKfw1I5o6sF1osn2EVUgL60EO7gT+niysGFyAyqXTGOgUGdQnek1fYcMq+E1M6ssKcN+KK7Dk2dsxiFWYuoxQjxXuEZZ3YmW2srGrB4SRU5E1LdnbRZioQ6gbnhph21AOtDtp8UcxcK9qUDlfqqvrAamu2vtciVTPSxRASOc6wXPVv4cn7nsbw5bkYlJbeteGUqd9rtq7x9cK9Pg8aq+O2FNSOPkEdkcc5JpQu/EF3J+chU9HLkEVE3iKKMoTveOBExPXXmxYXgqHYykyL+sJnU4nvbpdiZxyB1Ceg8RuBqRbdvOAQueeDj9WEIWTquEpTElL+/XAwKHxELALn1T/EPhY4dyL7dsU98Drh2L01NHAzu2oDjSuhGs3LOkG6NItqA34AdR1hHCuE7STqNvwFiyOalgyh6Kb+5xIdz4Sc9YCWIucxPMD10P9JRh6raH1Og0XnN/uwDbFPfD6+JswNQ3Y+ck3cPgrH4Cr1oJ0Hc/N2oJH94inCGzbZ+E9yLnqUTlvChLTLEDuWrxZkMFBJCjCKE/0tmErExMiP0I4VgSTRLQ2OBdRe3kanv4fbFvDkbQAwEnUWu6ETpeC/Er3o9/c3LeRDEPiZf5uttKjj9GE59J+gmWWGWV+x4aQn4BSZUBe/h1I0ANAL8SPvg1pjlK8tPRjP4nLadSXLcET5UDa1JsQzxAjIILPdS6BMedhpDmWYtZT76Fes067xyIyo0qYjvzJCVJyKTdqOSzLsbSqXjtBd+1H2cIXUN7qUyNIC7dXxPMGdnF+QZgOcpCfF/kQxhY0INv6Hl77083+Hx1B1JncJ3rFz2BBoMREPxzZGxrke3sVr+ZdKE4TgLRi1DRrPVaR6FwQwrHCfcWw/AX8dUU1nJ4Jp+GoXIq/LGpggkFngbvhaTnyF6wJU9LSC/HpdyFbsGPVyvXY7bn33QVn7fsoXrUZSLsNo+MDjFCvT8CdC3JhdCxF5vUPoLDUrkjIT8Nhfw+W/KlIyV0PIXseHjV6H2Wnjx+Lh7IvRlVBFu6Z+yresTu8yYuzFpWWJ3Ff5lI4jLlYcKec7BAhhHOdoLlvm1KdE4knUFM8BcAUFNecgLghW26E0qZPyMAC83g4LJm4/v5ClCrrtMsB+zuvIn/CJORWXYzsJQ/B6IlhdyyWo2BsNuZa3lM8+cQFZ20lLHMfRKblJxjNc3BnwKdGkJYAPxtFDDmwt1RtCdNBDnDVV+IfResBqLvZeF+G/EoObEQRQD7R21KFqkCJCVFXF/SxohcS7nwKxSagJGcELvTs93vCMHY+akwFWMwEgzqcu+HJjqqqvmFIWiT6Qbfj2SUzgZLpuPLCbnLd7oYLEzOxqOa3KF48OWDSAugRkzwTb1bMh9FRgtzMFBi6KWIkZQJyFpVDMK1A5eJJvuOv6IcgY/E/UWy6GFWLHsSkFIP3/OrCRIzNWYQqIRvFL+fw8aekEqnnOn2RPHs5KuamwVGSi0xlne5mQMqkB7Go6mKYiv+JxRlDfI4b+kGTsLhyBUxCORblTECKwX2rYzdcmDhWjiMOpt1W3INEBTmwkRymg5wLzhobPnA/doUoorlP9AAhYGJC1NWFcKyISUL2UisqivNgdL8nmGBeu4ljo9DZ0+dqpE9LBoRwJi09MCijCHZbCfKMgvxeEkxmK2z2l5E9PGBkyHpASH0aFQ02lCljBIBgMmNtRQ1qV2Zpx0lMErJfK4et7A2YTUmKCWnIK14XwjpQ1xLB5zr6QUhdsA4NtnUozktTTEiCyfwWKmo+UQ2S6qZHzPAsvGa3oWytGSZ3OAKAMQ/FZTbYX/MTR9QqnSiKovrNcNHpdOjA4onCivWVqHWME6LgMFaIfDEmiMIXB2z6ICIiIiIiIooSTOKJiIiIiIiIogSTeCIiIiIiIqIowSSeiIiIiIiIKEowiSciIiIiIiKKEkziiYiIiIiIiKIEk3giIiIiIiKiKMEknoiIiIiIiChKMIknIiIiIiIiihJM4omIiIiIiIiiBJN4IiIiIiIioiihE0VRVL8ZDjqdTv0WERERERERUZfW3hS8w5J4omij0+naHVBE5zrGCVFwGCtEvhgTROHDJJ6IiIiIiIgoSvCeeCIiIiIiIqIowSSeiIiIiIiIKEowiSciIiIiIiKKEkziiYiIiIiIiKIEk3giIiIiIiKiKMEknoiIiIiIiChKMIknIiIiIiIiihJM4omIiIiIiIiiBJN4IiIiIiIioijBJJ6IiIiIiIgoSvx/ulaDoL6REzYAAAAASUVORK5CYII=;" vertex="1" parent="1">
          <mxGeometry x="20.689999999999998" y="520" width="682.78" height="90" as="geometry" />
        </mxCell>
        <mxCell id="Ync8aqMZyCeplK1bt3V_-4" value="" style="shape=image;verticalLabelPosition=bottom;labelBackgroundColor=default;verticalAlign=top;aspect=fixed;imageAspect=0;image=data:image/png,iVBORw0KGgoAAAANSUhEUgAAA3EAAACTCAYAAAAgEJBYAAAAAXNSR0IArs4c6QAAAARnQU1BAACxjwv8YQUAAAAJcEhZcwAADsMAAA7DAcdvqGQAAEDZSURBVHhe7d1/eBTlvf//ZxYPpRiRIlI2qHAgAlqo1kStSnUJJVjxBxdRsVYChraoWK0cEhoUf6FQkxysrVSpTYSgbVGSD4qoRBNXi1hxQ61wionAFxCyFimFEChS2Pn+sbOb2cludje/F16P69rrSnZnZ+fHe+653zP33HeSYRgGIiIiIiIikhAc9jdERERERESk61ISJyIiIiIikkCUxImIiIiIiCQQJXEiIiIiIiIJREmciIiIiIhIAlESJyIiIiIikkCUxImIiIiIiCQQJXEiIiIiIiIJREmciIiIiIhIAlESJyIiIiIikkCUxImIiIiIiCQQJXEiIiIiIiIJREmciIiIiIhIAlESJyIiIiIikkCUxImIiIiIiCQQJXEiIiIiIiIJREmciIiIiIhIAlESJyIiIiIikkCUxImIiIiIiCSQJMMwDPubIiLSVPXnKi5F5OSVdnaS/S0R6SS6EyciIiIiIpJAlMSJiIiIiIgkECVxIiIiIiIiCURJnIiIiIiISAJREiciIiIiIpJAlMSJdAXecqYkJZEU4yu1qJpj9nlEdAxv+R3xf9eyTDF/Jy4+GmqrKJk9rnHdUqZQVF6N12eftinf7nKmpTS3fPXUVi2naMpIy7YbyZSicqq9R+0Tx2ZPOQ+d4yA9xteExdUct3/vvnL2AtDA5sUZod9Jv5+PGuwrf4SdyyfZ5n0nVXuarnHLHWPvG3ea8z6Xh9743D7BScq6XTJYtrHBPkEb6sjfksT1OVX3neuPk+8VsbktiwERSShK4kSkExzFWzWP64aNYVpBRePb3lJys9JJ+0k5u+25jJVvBysffIgSr/0Dk283VXNuYtiYW8gt3WT5YBOluVmkp82kfHcLE7n2tKeCDz7ZF/qebzsfr1ob+l5C8HF422u8um63/YOTwMm87tJ2FEciEpmSOBHpeA0f8+K8xbgBXA9TWfcVxvFdVOZnAuAteYgHV+4gfB53lN0rC7m7xJqcWfmody/itgVmchiY/8GNFGeP8L/nLWfxmm0R5t+Z6qj9fG/ocu39O9XvRcpWuyifl//7fQ4TXfdRfaDrbeV21eJ1P4W+P3gGz04fnp1VTB6ZbJ9ATiYR4+hsMp78zB8nf57FeadYPhKRk4qSOJGuwDmRpYaBEXwdxFPoMj+cTlndfyyfGWyZlUYin7t9B7tx7uTJuHCSOXkSLmd3cAzgyqyxDAFgE298uJWwDcoaPuaPvyknclqzD8+aCvPzNPLmziDD2R2Sz+fGKT8hv3gVnrrtrMkZHn8B2G8ij+z0mRVtH56d9Sy7v3E/FXiOWj7zsXJ6Gt1ss4ik72Uuvo2Xv6xax65gnc3HoS3VfBg6aZd3/P9e5P5HS81moyeXk3ndpe0ojkQkmrjrMCLSVRzFW11ue+YriaTRsympqg2fAAFwnIbaNZbvteA5MZ+X6vIippjPpCUlpTB69nO8Uu2N6e6Ww5nGDTlP8I5RF2cytZ/qZx8l1x05hePYDjaUVZv/pHPpeb3Nvx30yriH+TnXkubsbvlC19Djqh8y/konvPcRW/YGHnTZx9/frWAvaWQX/orxtu/AfjYvvi74rNzVueXsCewA36e8etsA87Nv8+gbke5sNsf63F4GyzbuY+/Gcpbd9+3gfB9aXM7mPYHY8U9/6fg8dgGwldXTBzZ5zs63p5qqxVO5OviM39X8evlrlvmYjlWz7HuBZwlXsHPrUh5KN9d1QRWHrJ9/r4jN//Gy+Y2i4DTp6VNZ9kY1e+0r7rNNd46D9HMGMH1BCR9tq7dNHKto627dlndSte2vvBrYjun381HD0eafiTtUy0fLf8H0wPJO+gWvbfycPRGfZfRxeFsVry642rJ+y9i8Z2vjM1Vhnq2Mdd8c31jEhODvbmL78h+b37mYX6+Llnr4OLzNTWXI79hjKZbpl4fZX/HGrC3O4okjjtrm7d8vr1aEmxagnp3rlodO32Te0eIo2jNxEX7jdTc7D9kWqsXrLSJdQex1JxHpQo6yu3wmaelZtme+AHcB08a4uK5ofdhE7vDq2YwfdrXle+ZzYrcuoCqWRK5hEyW3Z5KelUtpMJfy4i74KRPSM7m9ZFPY343G532f3/x6KVsBGM/Mmy+iV+gUNFQ/z6zc1cB4CsueITvkc9PhA3x52Px7yCB6/6vSkrCOY/bS9TF1nNLhujlJ+VYK4GHTlv3+93x78f5fHTCYQWd/w/4NoDfn3TaXey9zArB3+fOs+b/9wFH2rFnEb81mmH0nPcwd4wa2ssDfS03Jj7lt/I08VdYYO6sfv5H7Cl9rTB6b5ePw1qU8cs3F5D1uvctQQWnu9Uy+5i5e3WqvlJu2/5bHJ93O6j0ATlIHp/B16+f/Xsef/mcck6fnmdMAe0p5avrt/HaNJYH17aBqtm06ALxUP/Nj7nT9iGUbze3fbjwsz7+ZRwPbcfgQvtmzmb1zaBOvPnAjd+YWELg8wQcFPDw+g7lLPKHTgrmdl/HEzd/n0WcCz5x6qX5mCpOvmcLy7YEDxKql++Ywny+5gztyS8zvDGZQ/+aagh5l77p53OfKYHbI7/hjafI1/0PVF9ZyqJ7ty3/KxLDT/5A7XTezaN3uCBcoWhCzscYR9Wxffpdt3v798uiPL+a2/1nKdmvS5NvNR0/czMRbfhg6/Z5Snpp+MbfNtlyAaalDm3j1vlHhf+OODCbmzOOjsElyPOstIl1FM2cNEemy6tfy67sX4cWJK7+CuuNmU8sDleQ58SdVz75HTZOrtOB17yW1eCMHDSPkOTTcD3Pbr9YSrprWaD/Vz/6CaaWbgEzyK3dx3DAwDm6mLC/TnxBOe5SXao/Yv9iMI9SW3Ey3lFHMLN0EzmwWfvgcM9MCd9BMDR6enVWIGyeuwge547J+oZ8HHNrPF4Hkcms+Y75lTVgrKJh6afSOUzpFXwZfmA5U8/q7n3AI8G1fR8V7Xhh4MecOOtX+Bb9T08l6YBZpAKzmxdIq9jR8zJolZi+Y/WaQ9z/X0q/Vpf0m3vxzL7Jf3c36nT7Wr1/B9eYu2Lt8OX/ZfgRI5rzpVXy4uoCzABjC+MU78Oz8jEd+cDYc8lA2Z46/knjZQzzjOYJn5zHec68g+zIn7Cnh0YdWsDPcvqmugZvW8OZ2H57N68gbPTj0BLZnJR92m85SzxE8O4/w+uIZ9AVgE6++WGk2UfVx6C+/o2C5P35v/9PnrN/pw7PzGO/+Kd+cfjVl67b6exWNS5R1D1FNNbeZ67+flY9ey1kR988Rdr42L5jw9c16nhWbj+HZuZ/yxTfDB8G0rpGvlrcfMrczIxhf+Anv7fTh2fx3CrKSqa4Ocye7xfvGyycfJHPdnz5n/c5jvPfn+Vw+qId9oiDfF6/x23se8Sejl+VT4N6PZ+cR3nz1N4zvB+xZRMH/BhIsH4c3FrPATBD7Zv3G3L+W5aKC52+ZyWvbwpU5scSsTYxx1LhcTtJmmHG5cz/li/NJA/aWzaHotVoz+TnKnjW/ZO6iCsBJ2p0rKN98DM/23Sx9MJu+wN7lD/Psmh344oojq/1sfiHfjJMRjH/wz02WiQ8e4c6ZL4TZh7Gut4h0JRFPGyLShfXK4Ik6A8Oo4535V8FfX6e8/A8U/exeCgL1s8P7OHC46ZnXmfMI86eOIBnAMYCMOfModPnv5HiXvY2nvul3guo38NLC1QA482bzi4wB/kIkeTgTfz7dvDO2luVrt8dx5fYYB/d92fivdwMfv/cJW0K62rc0o3TlUnRHun/5Y+DMXsLmg8fj6DilMzg5q3dv+g67mO8Ce1/fwM5jx9hX8xF/AfpecxHnRHwI0kHPkdPIL8wxK4NPs2juL3jqAy8wguvnzcLVvy2ajzr5bu4vuOVCJw7A0T+Tm34SeB7wSw4cCnPFIISPQ397hRc/8AJpZN87g4v7dfcv/+DruXXq9f7J3lvDx+Eq11zPpNtH09cBnDqQc/rZ1+km7vrZNL7VrzvQnX5jp/KjgeZHO/bhvyni4NTLH+fNnT48O99kxncd1FSUU/X6QgruWRC8y3Nk3wHCLUHbGcL4qTnm+vfirMH9Ip+Mrb2T9ptB3uwfMuhUB9CLc35wHz++05++WwWTf/Mu7IybRtAT4NThZPwsj+wm1z9auW+yfsqkywfgwEHPgUP8+yisI+x6dzmv7sH8nfvIGNwL6E7fCydxbZZ/XYIJlu9z/lL6vHn30bp/HfQcPIEfBy9evMxvl6/jkPWnoIUxG0sc7eP/XvuDf7n6TeXHM8aY69yLc35wB5OyhoD1+VbfNv7yYuCiylR+/LMJnHOqAxxOvnVLNtf0o9XJku+LKl5+zl82c+XPmZZzhWWZcvn5/WZj7PeeYeVfwjV3jWW9RaQriVjUikjX5vNWU140hZSkr5GSPp6srB81bVrZhJORV5yP03rkJw/moktS/H97P2DDZ+GaWvn5vtjOx2aS6C0Yw+nWZ/FSsij1f0LFu3/nH6FfbUYyabPewTC+ou7Dp8l2bqI092pc964M3i3z7a7itwvNZpRFt5OWHGvRlcbkKeMZnuwAxwBcUyfhT+M2UbK4ki1dpmLSkzN6nUq3foMY2g/Y8RGf7fTy/33saWw62GcgqYFKVRO9GHTTXPImjQDcrC5z+6/4z/hf7mp1M8qAFIae3bcV8zrKPz/fYiZK1ZTe0q/xmZ1zunP19MXmdBuorrEk9QEDh+DsEzGThX6pOJskduFYnmMaNIDJP76RvDvsTSvb29mknhWueWwYh+vY/ql50A3/Dqkh69iH86/KNO+YBPj49xdb2QL+2Ek/PzSpSv42l5nJUqPW7Zuzhg8ktrVp4B/btpl/25td9uXi/I/MToGWc/3gHnB4K5veMcu0K8dxYcgdPgc9z7uSUeYx4b/wYfkYWhazscRRsJkzsGcBd55/imV7DSSvzN8oPPh8a8g+tDWdTc7gHo/ZGdILOZwT18IG+Pj3tmrWmU2Nv3vd5bY7u70ZevlV5p29aqo27mh6pzmW9RaRLqVFxYWIdLKG9Sy89TqyckvxAs7sQl4uW41n51oK/d07Qs8+nN7kOZue9O99qu3A78HpZ54W8k4kvoP7zGfW2kN3nJdM4Z6Z/ivl3pL5/Nq9N2RMOGdODj/8jq2Zpd2pvenvv7Fo69gEHIMvYGxg+2zdx8Euk8SZks9lxPeGAGupePNF1pZVA8O49PyzohfWDicjMq6yVOhHMf6m7zVzVyRep/GN06yV6B6cec4wy//RHOPQ/qYJQMwG9uHU5tbl698guYdlglP6MSA9sLMDfBzeuIj7g88xjWD8/S9Q8PuPWP1qoPka9OhzOpEbBLaFMzn91GYSUqvD+/lnIME8szehh7SDHqd9w7asPv59YJ+ZkPkvDtiP9+Q+9uO9NfvGyVm9TyXJ/nZY/+bgnsDzhn1ITo6yDZpd90j72KoFMRtLHPkOcWBHmCapkURbj1aLts+h2zcHc4HtvRCxrLeIdCn241xEujwf9etXstDtBZxkFm9m19JZ3DjxGtKc0aqeW3l/2x5CL1gf4cCXB82/z6TPaVEqVqYhhR7+EzIsguW1dCLBPCouPUgZHKhk7eeL/f+Gf1TzijkmnLcki7O62e/8wdbcdP4rKYnUomqO9TydM3sG5reP/QebXJ7vws4k9bsX+Zti/XIOL+4B+l3G8P8OrlBEvi9e49m5iywdP7zMb595vfWdJbQLF/eurg8ZjqHxFeHZnzap/FqawXETD7rX88j0W8nITKNvrGNBtIkYEpiAnr05I9D88cv9hLaQ9nHk4L9sTT8dfP30PmYyf5h/1h+yNRs+QsO+wPEeTrz7JnzSEN7XOa1f4KLKPhoaohybza47cGwPuz3td1kpJgMLWLbNvp0Cr2fI6HdK9PVotWj7HI7/Yxt/s70nIokttnJXRLqQw3y24QNzHLRhjL3AcpfG2jNjBFvf+hvbrGf4hm1sWG82DXKmMqiZ56dOOfcisszsLHQ+Puqr5pBiDjcwruTTJpWIRj4aPl1qDk+Qzuwq6/MZ+9n8YaC3vbMZOTC2RlohTunH4CsCV5C3UbPL0lfmlzvYGKjzXTGYlBjr0e2vN2ec/nWgO2ecnRraPM7e/Coc3w7c//uw+azRENIuCzxb9DPmPreeKCHRQXpyzsjLzHWr4cO/77LEyF4+WnCx2RxtEq+G7aSiDRzbwaevmx2BDLyYc88JXPQIlwx1ET1TGDTcPOg+/StbQnoXDAxBYeXg6/2HkAqAly2ev4d2Ed/wCR8Eh+AI6Kh9k8w3Bw82/97MxzX/sPzOEXYun2T+jjlMgXXdmzyP5+Pw5vdYu8P/X/PPjbaxUwYy/BqzSeqOj/hsp2W5Gqr4daCL/ttK/J2INLcPrUOBpN/PRyHPAscqdJ+HjjUJsJ/ade+aQxakkTFyYMzjV4pI1xWlZiAiXY/1bpWbhb+t8D871vAp5Y8/0dixSSQVT/L4U+/7u9n37aZq/tzguGvOyd8nvVczxUKvi7h5pvmAvHU+DR5+N2+JP7F0TmX2jUObL1wO7WOnF6CagnkLKa+t9497V7WIeQVmBTNzMtd/JznMQOjmq64sOMRA4K6gfxD0b3LpDVebdwKrKZi3yD90gm83Vb9ZbN69SyNvypXmNJ9TPiXVf3cvtYjqKDcH2keg2ZeDU1PTuNTyyVnfu4ABjuaaNx1lz5ois8dF6DvpCeYVLzKHHfBS/fg8ytq9y/xIrHcFHJx6wQ38yFyuvxT+kj997MWHj8Mbl/H7Z/z7ve+d0xkzONod5RaybsMdpbz81g7/729bSfFTS9p4YOXwd0Ti5hjEhdeN8v+9ZxEFT/zR7Lq+np1vPBncblaOQZeTeWVg2ImHWfTyJn8if+hTqn5TQGmT5/86at/04KyrJpk9RG7i1SW/w72t3p+QbXudleVmBy6X3crYC/qAYyhj7ppqJpcv89vfFPN/e46a06/k948VmZ2LzCDv9lFE6L+1HfThW9fe2tipSnC59rP5xSfN7ZtG9l3X+59xcwzmuz+a6F+PPeUsf/41c8y2enauWcbq9/ytKtJ+cgPfavK8b2xx5Bh8PVMCndy89yuKS943k/d6dr5RyK8e93d60ndSPrd8N/QpShFJTPbSQkS6vFNwZuY09igZaGJ42nlkFWzF5TJP5Fu3sOPLphmJ09WXLTNHkdItiaRuZzFmgTmOlOthXvj5KNvYbHa9SbvjQfO3N1EamM9pl5qJYCb5L8zA1VwiiIPktGk8U5zjT6LcC8gadjpJSV8jZczDuPEvS+WS2xja3Gwi6s6AzDt4LHuE/1/3w4xJ+ZplXZ248hfwc1cXrcj0PZ80swIe/aq5/xmvudPNZpSB4QSSQ4cdeOqxpyKPD9UOuv33RWT0w58Q5J7PJecM4O7ln+KzDoewp5SF1w/gknNO4crx/2N2Of8Q86a1Z2V8AN/NucvcLpt4dfp/+3/fdSOlW/+btDT/dt/16Q7+ZftmrCKuu33CmPXgnGvn8mCWP573lt3OjeedQvo5vZk4/QP6ZwV6W7RwDOX7j8z3d9nPJlbnfpsrz3GQft755H3cl/HmuIIhOmjfOPpfy12/fsjs8n4Bea7epAf2wQdeYDz3PnA7553q8CeXl8/m2UDPq2U/Y0p6D9v0mdz+61+0UQ+ssXLQc+TtwR4fG5erD5MfX212KjSfW4PJUnf6jfsF82Zk+i+sPHMjE4P7cIG5fWfx89vS/b2ItiiO+nLxPc+bcbKJ1Y9+j6sHOWy/8RDzcttiuBER6Qp0KIskouRLmPmHlSzJM8d4Mzs3KfO8y/+bm2neYXqf1R80HQS35/jH+JOnjMJAksMIsgvL8PwhnwxnDBWh5EuYtcpN5cuFZFvqgv7fX8JjgWEHmtWL4TnPUO1ZRbFlHSCTvOJKalbNjW1ZIkkeQc7zFXhW/o48M9kFwJVHcaWbVfPHhvbQ2ZU4+uL8ltlbaJMe/GwOeSgL3I0IGU4gtJLJB48wN9Lgxu0heRS3Pr/UHMcL4Az69fq6uVz38qS7iifu94+P5TeC8fevYNlv8s2u7duLg54jZ/D4auuymb/9+nJ+HOil9c/v8EnIgNNxiLjurXDqCK5/bAXPFOaZCSj0zfpfFrlX8LPMcB11OOg5ZDKzX3qbB+8MHF8jGH//G5SXPM5VKeGeseyofdOdvpfPjfA7f+QZ94tMHmntvKgXgyb9lhdWvxZm+hUs87zKjMtjKXPaWm/Om/4i5X/6I/eaCTYA/bK5d/GrPJ47NrRTIccALp79Uvjpn62ivOReM3E1tSSOTh3B9f+7hmW/f6Hpbyz+iDf/+FAb7UMR6QqSDMMw7G+KiEhT1Z+ruJSu5Bh73/iZOQTAEMYvrgrT8Yjd51Tdl2F2gz+dAs9v/J1viMQg7ezY+iEVkfbX8RevREREJEbWjkUcXJ1b3nhH9dCnrKt43/znItKGnen/09q5xjnf5tE3AgPb+zi8tYp3/2z27nPlxaT2VQInIpKIdCdORCRGuhMnHc/H4Y1PcV/g2bSwnKTd//94cvol5jNV+9m8eLL5fFYk47l39TJb00WR5ulOnEjXoSRORCRGSuKkcxxl78a3+du6lyh8vDSkF82+WQXk3nQ9l10+NNgpBgA+L5vffgfPG780BzYPGMH4++/n2rE/4OLBzXdjJGKnJE6k61ASJyISIyVxInIyUxIn0nXomTgREREREZEEoiROREREREQkgSiJExERERERSSBK4qTDJSWpTb2cGNLPUREqJw7FsyQi1SnkZNXijk100IiIiIiIiMSnhelXiBYncZiJXCu+LicpxY2cKBTLciJRPEsiUtxKommrmFXbCRERERERkQSiJE5ERERERCSBKIkTERERERFJIEriREREREREEoiSOBERERERkQSiJE5ERERERCSBKIkTERERERFJIEriREREREREEoiSOBERERERkQSiJE5ERERERCSBKIkTERERERFJIEriREREREREEkgCJnE+GmrdrCiaQkpSEknmK2VKESuqammwTX2suojUpCSSkkZTVG3/tGtoXMZor1SmlH8Ox6opSvW/l1pUzTEAPqd8Sqpl2nRmV+21/dIRaktubjq/Lq2B6qLR/uVNLaL6WAu2F8fwlt8R5nPLa/RsSsLEjz/e1lA0ZaQ57UimFJVT7T1qnzACHw3VTzI6KYmUaeXsPtq476K+ppTjDc6nntqq5ZblCCzLcqpq60N+sX3VU/vWk0xJMZchZQpF5dV4ffbpgIZa3rIcpylTiiiv9tJ00s6Zp293OdNSkkga/STVDU3n0C6aHLuW+I76uoNy77Ewx7r9lcLo2SVR4sJSFoTEWTT7qS66lqSkkUwr38HRuI9FU0MtVSuKGvdPkrmPVrip7ah9QTzxFEc50B7zDPB9Ssm4lKbbk6PsLr+blKQURhetD1OOta0m51VLXEd9TSnH25oy2eel+pXnmD06JTht5G0cQcN6ikankJRyN+U73o9z2QNO5DK5LWMzOEHUebZ3mdypcUs9tVUllrhtuv5RnVBxGz0egmKO2ziOhYCocevnqy1hXFKS5Txsvt/OMRuV0Qqt/HoLHDcObl5iZDsxINzLabgKPzQOWr7xH0+hMQQMcBmFHusnXUfjMkZ7DTGyy3Yaxn88RuEQ/3tDCj3GfwzDMIydRln2kJDpnXmVxgHrDx3fbBRnOpvOr4MRV9wcNDyFLv/yDik0PP9pwfYy/mPUlU0P87n91TR+ju8qM3LCxZtroeE5eNwyZQTHtxtlOSMMSDPyKr8M2XdRX9llRp1hGIZxwNhcnGM47Z8HX+ONQs+/7L/cDr4ydpXNCLMcTbdb43rbp7Uva2fO80ujMi/NgBFGTtl2I4a92QRxxbIR5ti1xHfU13SjrO4/YY/18C/7dgk4YNSU5RuuwHTBOIsueDw4843KA8dbcCwahnFwo1GcHW4/mq9Yj63Wijme4igH2mOeAQc3G2V5meZ0YcruA5VGnhMD5wyjbNdXoZ/FiBjjucl5Ne5yrYVl8vFdRmV+YBvYX5lGfuWuGI7jxvLBmVdpHIh72Y0TvExuh9iMeZ4tK5Pp6nFr/MvwFI4PM108x+uJFLexxkM8cRvHsRAQQ9waxnHjYE2ZkecK1J0D5+GA9o3ZaFo1l7ZaiJg1SULCvUJ3bJODtguKuyLUpCJohK/YZRYbNdZjoabYyAw3vw5GXHHTkUlcY+XUL3BwYjhzyoxdxw3jeF2Fke9yGuA0Mos3Rz1gg9s8MN8WFLxN91uYl73gaw+BSmKwsPrKqKt82EwGbjKKa/5tTnjcOFCZ7y9MAycoa+XLGpddZZ62YyVWxBXLHZ3E2S/kHDcO1lQaxcGTlvmKOYn7t1FTfFPIfOM/FhvnEfnVzEm3zcQRTzGXA+0xT8OfdFcWWyoR1u1pFZin/fuxI8Z4bnJejbtca1mZ3FgWjjCyizf6Y8R6USCWcjBYj2j5hbUTukxu19iMNs+WlckkTNwG1j/0hkRjPa4ZJ1LctiQeosVtzMeCEXvcHqwxKovzGi94Qpgkrn1jNppWzaWtFiJmdWVGtrkhndlPGx/WBa5ehF5ZtlZcmhy0puN1HqOsMDska3dmFxplnjozeBqDrOmOsVREQir9Xxl1njKjMHiV2Wm48oqNypqQ+2HRBdczTFAZ4SqChq1iN8RwudIiFOKBz5qZfzuLL26aJnFNRNte1oI33DyO1xkfLgzEgllAGtZCwfKedd83iQs7S0FlvysaZNlvYSvT1pPGCCN74VqjLvCbIVeRrMsYhuXYifxq7kKHtTC1xHzwxGIteMOvd+MJJBCXnT3PSPs4dsQVy5GO3ZAJLPvbfrIIaIyZcPM4XrfWWBgog6zbwBoDzssN1+XmCSxs3IURy7aKeixa4t2ZbSz8MFDe2q52hpSrdjFWpMId60GxxlOk9Q5XDrTHPEPX1elyGZdH3L4RYj8OxBjPkc6rjeIo18Ltp7BlcqRjw7LeTSprdrFsoziWvTVlcowXY8Id434R1iVsWdfJsRnzPCNN2zy6dNweNw7WvGO8XJhtOK2/a03Cwv6WVYR9HSKOZe/UuI20j8PFQ6xxG2H7hD0WYo3bcHVqwp+Xw65P84gxZqNJwGfiAIYw9obrucTZ3fy/F0MnZDM50wmA94v9HAqZ3qZhPQtvvY6s3NKQZ0G8pblkpf+EhdX7gT5ccvOPcAFUvMnaLUcaJ/RtZ+3ytQA4J3+f9F4O4CjeqgXcmp5FbummwBxxF0xjjOs+Sj7tyLbGFzFp8jUMYS3L12432w3vw7OmAi9XMH78t+xfOLk5nFxyyw2MBWA/X+z/NwDHPttAmRcgnUvP621O3J3+g1JxAmzcwq7m2kDXf8KaZdX+eL30XHrZP4/bFdxwy6U4A0dt8nAmTJtEJoQsd/s4zGcbPvAfL2PTOa+XuRCOvgy6MAXwsrGmzv8cwLEdbChrut6O/oO40AmwjZpdDZ0/T4Be53Lp2CFANcvWfEJHHqXtxeG8lFtuuML/j3cf+w/ZYtSVT5l7MT9L7Rn6frN81HveZlmT46EVxt7ALZc4zQezHSQPvYZpk0f5Pwu33G0p5niKoxxoj3kGOXHlleFePINUy7uhHPQ6L91fjnkrWOPZZ58gcYQtk0/BOfFZ/Befn2Wi8xT7t2IQOA/ayocWO9HK5PaJzbjmmchlcti4dZA81MWNs5ZSZ7zDrLRkf33xvddYvRVgBDk3pPFN+7xCnEhxG0c8xBy3cRwLQdHj1i+TvLKVLP5Zuv2DRp0Ys62NhI71zTRuyBkBbKU068fMLlnBK4GHGx3DyVlT5y/gl070B0JYR6h9qYhctxdcD1NZ95X/OwcqyXMCrObZd7ZyDAfJ3/mBmRhakyHwbVnH8govkMbkcd/2B1b9Wn5128O4GUF28UYOGgbG8V1U5meCt4Rp966gth3rJKH60O+Cb3FFuEI88yquuXIkQ+xfOZn5vKz/0yu8BcDZjBz4DcDH4QP7OGyfFgc9T+9DT6JXNH1fbOdjL5Z5tsQpfPPSTHKcAIvJuvV+SspfDz786xiawxrDwDC2sHTi2fYvt6EjHPjyoP1NoAenn3kaWC+eHD7Al003HPQ8nTN7YjlJdPI8AfgGA0f6t5v34+18EXl3Jgyf90P+9Mr7/n+GpDLwzEBltwcjC9+kZtVjTBx6uvUrMTjKF9u3+E+SIfOM1ze59Iar/eVz6d3cOvs5yl8JPHjeg6E5L7Wykh6jmOMpjnKgPeYJ0O18CivcrHpiIkNPi3LKPnMgI4cA1PHx9r1hHvxPEGHL5Ah8n/P2i6v8selMZVD/wMXdMHx72f5xHQBDRg7kTPvnMTmRy+T2iM0455nIZXIscev7lJJxg0gZ8zBuMskre5mnJg5svjJ+QsVtHPEQc9zGcSwQa9xCt5H3UVHzMk9MHI5/LpF0XsxGXvquyDGQCY8tJN/lBCoomHYTE9JT6BbohWZFY0BGZqkovPMQLjbySvkKSh5/ggKvbVLHIEZNGgV4qVi+ji0+gCNsWfsmFQDOTMal9yHkKvWQKdyTPYJkAMcAXFPNqxv2u3ntrf+3uCrTiXfZ23jqffi2/Y23toLzwkH072af+CSyNZf0/7L13NQthUtnmndlXdczelhPwMeh/fvi6LXP7hj/2LTeHycMY3BKD/sEMXMMuJbHXnjYf1fYXcC0rPGkp3wt2EvTimAluBnOiSz1N59u5hW4ShjOv9n/xX77m+Ed2s8XMW24Tp4nAD1IGTzM/2fFejb9o7HXqUSwNTed/7L1RNYtZRQzSzf5rzTecSXDArmQ8xpmzRrH0OSWFPtfsundDf4/rxhMSovzq+4MmJDPC/mZ+Fsq/JSsCemkdAv0TvaHxgtzEVnvyDTz2jKLtEjLGXM8xVEOtMc8OQXnDfcwa+xQ/zklmlP6MfiKIf5z1rt/5x/2z7uimMvkMHy7qXrgp2SVmPE+cwKXNHeX4h9/590KLzCEKwb3I1J4RNMmZTJnM3HplqZxa3ttmZUWYTnjKOs6NTbjmSeJUya3NG59h9i3NbA1NrL+w4+oiVZvPaHiNo54iDlu4zgWYo7bs7lh1gzGDo2lDVXnxWwzpV3X5HCOZX5lNZ6VL1KYPaLxA28puTeNJz3lOuZU7Y5SCWjshrRbSjoTsm5iWoG/uh2qB6mjrg5NwsI2pbTcyrUd2N2GTTMr8o3NFTqE4wz/bWTvB2z4bJ+ZeLZVs74TlDOH4memkdaiSq7dMQ7uN5szterOBUB3nBkPUVnnYeXLhWRbbjN7S3O5aUI6KWMeoSraiUDCOIUzB6aad6b3sf9gxxW+7c2ZvYBn7kiPcqKKke8Q+7/wXxJt+ZVgk2MAGfNXUedZzcuF2ZZWE5sozf0RE9LTGDPnrRgqE9JU4xVhvtjPwUTfhs2Vyb7dVD2Qw5gF5rnbNZ25P7qw2Xj3HdzPFxD5LknMVCa3nxOgTG4ubk9JY9YWA+PgRoqzz8BdkE361BeabamluO3qOi9mw0RYAnA4SbvhVmYt3YhhGByv87CyLJDUVbDgtkW46yMdEUfZXT4HV+ZMSr2AK4/istV4dq6lMEwbQ0fq5UyyNKk8Fq4pZUzav51x0JBUBp55Juddmg7U8NbfNrGjZhtwEVeNOBPHaX3UnDLECLIXrqVuVzE5w2Pfo807xsF9X9rfbBWHM40bbpzF0joDw/iKOs9qygIFsfthbvvV2shtsb3lTLHdsWn66rpjKXaML9nXgYVvu3Fms/DDOnYtncLwcJWIlgi5etwWuuNMu8Z8TsTAOF6HZ2WZmdR5cS/I51du+ziXATGM1ZTUOK7kSWvrvgRO4qKUyfYEzplD8TP3kRF8Tj4838F9bLW/2QqtKpOjjvfofzWOBXsySrQyOUrcWiWfz41TrvNfxKpYxqt/jXzuVdwmko6N2TY6w3cEy+C0KXdTvrvxSoHDmcYNE2/l5/dM8Scn3g/Y8Fm4hrSAbxtrFvsHPnTmlLGr8glyJl5DmjNCc7eQJpVu3vvEbCIXbEppM6QQz3+a3lpu/3bGdqfwzRGXkImXiuJHmL+sOvi8gOO03vS3T36yCO6fr6jzlJLncvrvABSW8EbIQJfWKytWlvbczj70PrWdD6HgQJTmYOHBSpm/Ejzxxju4Z6YLAG/ZBj5rt7LDcoU/RGNbdGf/3pyK9bkcm2D79t707/31zp/nCWBIoYf/BJKgJXn+ZjLeUgoXVXTsoNkxahww1T9YeHAJHU7SbpjIjT+/h5lDAKop27Cj/SoBMcdTHOVAe8zzZBBzmRxQz6dLHuQ2awJX9WT0SnNbOaHL5PaIzfaYZxcQd9zaWZ4B43M27viXfYK21WXiNo54iDlu4zgWTjAJdNRYeq7xLuLuOYt4y3Kg+LzrefGlt6JfrbBcUe553kC+GdgCkR6gDGlS+XvmLXqbpm3vLe1ht67nb9s68Nm3ZgR78Fnnxu0FRqZyVltdmU943XGmTWbBC0/7H/T1ljAtY07IxYFTUgbj7+PPw4ebA+2tLR08NLs9T+G0Pq1qdOYX7F0JvCUPMWfhGkvl/Cje6v/HS6trQr7SPiwx/paHzYE73cEHrp2MHJbib8oUfC5nK299+Fnwil5jRy+DGXZWcufP0/+B5SHr1j272KkcTtKmzOOFshk4AW/pVDLuXWk5UbeS41T6DLG0vWmhxl7FNlFy94MsfKu2sccwn5fqF18ye2xrZzHHUxzlQHvMM26WB/xb9exiZ4heJgda0mRMKzE7MokvgWuTVigndJncPrEZ3zwTrUyOFrdH2V1+NylJSSSlzKEq2ErMup7+VlKRnFhxG0c8xBy3cRwL7aLzYja+I7FTOeh1yQRmuvwVCW/pTDKHnR68ddst5VKmBp5rc17GReeGeaCU0MrI1tWv8Z73KDR8Snm4jk1MjqHXMzsvDajG7d4KjGLy9d+2BIS115+XeeDx5Xza4PM3+Zgzzrx7aD14O0iw21O/IWMvYHAC7fGO4BgwgadWLTTvYCzi7gdfa6z4BntDrWbZi++x2wc+759Zsmwt4CRz0uWkRtyelosOW7ew48uWXtayDHXBJkpzr2bYad3MuP8aKenZFLj9gevMuohzI1XaWt2xiSXGvat48e3P8XEUr3s5yyq8wCgmjRpkFiiNPRB6l5Xz9u6j4NuNe8ly/13szKsZldqjC8wTQh6yTsSrwSG6M2DiY6wqHA/mifrBlZa7Xa1hqQBs3biDFjcU7nURN8/0Lx/eUnIzh3FaoAlOtxTSpxbgBiCNrIsGRngwvg06Nok5nuIpB9pjnvFqfMA/Ua88N1sm16/l13cvMjtFGEHO0w8yNcYEjpCLCK2589FGZXKrO4iIp6zr5NiMa56JWSY3G7cB3lUsXfF3GgCft5JfzlviX0/r9g/jxIrbeOIh1riN51hoD50Ys/aB4+LRyq+3QOgo9+FfmUZ+5a7gYL5NB3f8ythVNiNkkO8mryYDJVoHE400yHNz8w2MIB+jaAPmhh0wONxAj5bBE62DEAa/H2H+7Yy44qYDBvs2/mV4CseH2VfNxJtroeE52PwebRyQMtLAokaE/WZ3wNhcnBMhtgLL87BRWfeV/YttLNJyOA1X4YdGyBoe3GgUBwe9t77GG4Wef1km7OR5WuMr7HHdPOKK5UjHbsgEEQY0tmp+sG/j4IdGYXDQ7BlG2a5wcRFL3FlZypKwx5Ap6rHY3H607Kf8isaBaNtLxOWwx1Mc5UB7zNMq2vYNxpdtUPsYEWM8Nz2v2kWLr5aUydbzWaRXpOUxBQf/jXDsGEYMy240U8ZYXglbJrdHbMYzz/jLZLp03BqGcXy7UZYTbttj4MwxijcHhrGO4ISL2zjiIea4jbRuYY4Fq2bjNiDaebn9YjaaDkwX24KD5OFTeL7aw8pi8/mPoEzyisuorHmZ+RkDmsm4uzNg4nzcZfnB7zuzCynz7OJflfn+OydvVfFBSBMOB73Sv89kJ2GuGgV0Z8DEhVR7ykJ6zfTPu4Lnoo0D0i4sd4MszSXErjdpdzxIodmmveTuQlbuPmrG22QWud+07NMRZBeW4fnDjPA9T1k0dorTmqtnAL0YnvMM1Z5VFOf5h+MMcuVRXPYONavmRn2ov/V6MTznSdwVCxt7tXJmU1i2ij/MvCS0qULyCHIWlVFh6X3Qfyw8x8w060DRnTxP/sWOjZ83c1wnoOR07ijKbf6KcNwszcpbdWfZ3I/PV+BZ+TvzOZIAJ66831FW6WbV/LGNA9G2l5jjKY5yoD3mGY8vd7BxKx1w5bm9hSuTdzUOc9FSwWfcW3lH+YQuk9sjNuOZZyKXyeHi9ig4BjLxuQo8ZdYeIc31r34menPgEy5u44iHmOM2jmOhzXVizNqzuni08utykjp54uZLozIvzQAMZ16lEeVam3SGA5VGnjPcVb3YnDyxbN1Wlrv60oVYWozYr2bH6MSPZ8s2cuYblQfi30bSzlpQJitupVN1Ysx2ZL4ocpLpi2vaXWRCcNB16Up81HveZpkXyJzI9d+xXtWTJnpdzrTHbvI/x7Dmk2a6oJbOsQ/Pmgq8OMmc/AO+06I7Jic6B71c2TyW6QRvBWs85lie0kWoTA5Pcdt1dW7MqpQXaUeO1DFMzxmhgrdLClR6R5AzfUzHNoFISD1IHXcLOU5dlOiS6j9hzbJqcE5k+rjBOrlH4hjMuOkTcepiRBekMjkixW0X1bkx28E/J3KScZxN5l05uFTwdj2BSq8rh7syz1ZhGAPHgAzumjleFyW6nMDVYCeumdlkDmjvZ1oSWXcGZGYz0+XUxYiuRmVyMxS3XVInx2yS4W+b2SJJSUm04utyklLcyIlCsSwnEsWzJCLFrSSatorZjk4aRUREREREpBWUxImIiIiIiCQQJXEiIiIiIiIJREmciIiIiIhIAlESJyIiIiIikkCUxImIiIiIiCQQJXEiIiIiIiIJREmciIiIiIhIAlESJyIiIiIikkCUxImIiIiIiCSQJMMwDPubsUhKSrK/JSIiIiIiIs1oYfoVQnfiREREREREEoiSOBERERERkQSiJE5ERERERCSBtPiZOMzn4lrxdTlJKW7kRKFYlhOJ4lkSkeJWEk1bxazuxImIiIiIiCQQJXEiIiIiIiIJREmciIiIiIhIAlESJyIiIiIikkCUxImIiIiIiCQQJXEiIiIiIiIJ5KRK4ny1JYxLSiIp6iuFcSWf4gt+p/F/OEJtyc3mdOnMrtpr/5mgxt+zft/OR0P1k4xOupmS2iNNPquvmkNKk+WL/tuSKKzxFO0ViJHAd6wx09ZxuZ/qomtJGldCbfgJRJryfUrJuJQwsRvmFYitwHessWadT8ocquojBaE17m1lqM9L9dLZjA783ujZlLxSjTfSrKTr6kpxZdWwnqLRqZHL0YZa3iqaEjyHp0x5krdq6+1TNc/npfqV55g92rL+KVMoWuGmtiHsr5p8NNS6KS+xHANJKYyeXUJV1GVorl4isYq/ztmJ5/ZYjrFmjxmro3irX6Nk9jjL90cypWh59NhrqKWq3Bbvo2dTUlVLg31au2jH4wnopEri2l4dH2/fGyFYjrBl7ZtU2N+28XkrmT+rELf9AwCO8sX2LXjtb4s0q7VxeRRv1VPMyl1t/0Ck43m3sP2Lo/Z3/XzbWbt8rf1d8O2m6oGppE8taCxb3QVMm3Adty5cH70yICe+lsSVlW83VfPnkus+bP/Er2E9Rde5yMwtDZ7DvaUzyXTNoXx3hN+18XnfYs6YNNIn/JQCt6Um4C0l96bRDBv6E0o+DVcprqe2/AGuGzaarGmWYwAv7oJpjBl2BdPKd0Q4R0Srl0jn6eRz+8hUzkqOkjb4dlM15zpS0q9jWoF1aTZRmnsLY4ZdwZSSTWHKYB8NteXMvs7FmCxbvLsLmDZmGEOnlbM7/MpHPx5PUFH2xonFMTSHNYaBEXx9SWVeGjjzqTxw3PJ+HWtyhkfZOGm4XD2pWL6OLeGCyredtcs3cLnrcpz2z8B/MK1fxO1pmSywBmuIBnbVbAuzfAaG4eGJjL72L0jC6cHQnJdC9+2BSvKc4Myr5EDIPn+JnKE97DOwaWVc+rysf/InpI15WCdwiZ9jODlr6iwxe5wDlfk4SSOv8svQOF+Tw9DmC1m43IXLuZbla7eHrbj4tqxjeUUKLtcQ67s0/PUl5i3YiCuvjJqD/rLzeN1aFmafgTu3iJd0dyGxdIm4auTzvs+Tt1/NmAWRqsz7qX72UXLdI8mv3MVxw8AwDlBTlo/Lu4i7f72WcKlXiIb1LLx1CgvcZ5Bd+Ccqaw4E1/F4nYeVxXm4vCVMy7AnhUfxVj3J9KwFuF15FFfWcDC4fQ5QU1lMnuuflGTNYGH1fsv3zO9GrZdIrLpUnTPaub3JMdYYM5uLc3AynsL5E6McW/upXjidMQsqcGYX8rI19o7X4Vn5O/Jc/6R02g+513YRweetZP70uylwjySvuDJYbhvGcQ7WVFKcl4m35G5uC3MRLvrxeOJqdndIc85m3PircVa8ydotTSsE/pPASK4b/x37R41XKi69m7fGPsyC7BH2Kfx8e9n+cV1sVz9EoFVxGbjqe+nMDYxd8DDZYc8EIh0o+XuM/2FKhIqLeeU58xrGX9Tb8v4+1r/0Im7nVObeP4GhZtnpcKYx/qrzLNPJSatFcYWZID3CmJRRzHzrIhYsyA5fYa7fwEsLV+PMm80vMgaYFa1eDJ04k7l5aXiXvY2n2WZpR6h9qchMAt/k+VmTyBjaK/ipw5nGDTkLWOVZ2DQpbPiYF+ctxu16mMo/zCMnYyjJwW/2YmhGDgteeJoc52oWvrSh8Xux1kukk3TGud1HQ3Uxd057g2GFD3JHmv14COWrLWdO7gZc+RVUPz+LG62x53CSdsNPeGLVSgpd/6Tk7sW4g8fAfv764lMscI8kv7KEBTkZwXIbHCQPzSBnwe8oyzkD98KVrA9+L8bj8QSmzKDF/ot+V17N5LBX8xpPAhkXNBa8QQ01rHmpP4UVNdQuncEl/b9mn8KvoY6ajV6cFw6iv/aUxKSlcemjYfM7vHROLhU177P0ru/R3zaFSMc7myuvzgxfcTGvPGdOyuCCU6wf9CXjCQ9G3XwyegUKTh8Nte/y6rubIfNqRqVGu6MtJ7aWxBVAPZvXrOOcwjepqS3mrksG2CcAwPfFdj72pjF53LcJLWnDxWYY9esofuBlnDnTmeEKJIF2DpLTbqeocLwlKfRRv34lC90p5M2dQYazu/1LADgGfJ/ZL6zk6XFnNc471nqJdJJOOLf7anlpTiFuVy5Fd6RbLgaEsxd38W+pcE7kZzOuwhk+aCE5nTuKcnF5K1jj2ed/L+xFDxvH2WTO/g1lT2dyVnCC2I7HE1nYbSUx6n0B4yaHuZrn287a5bvJm30Dw7tZ3g/olcETW5Yya6z1CllT/hOBk5Fn7uOD4MPRI5lSVE61N7Y29XISalFcOuiVMZ8tS+9jrOWKr0jn6kbvi78ftuLi27KO5RtvZvaN59MknIMCnUN147Rht7O6fx6eJbdFaRIkJ76WxlVfMp5Yw9JZ4yx3Cux8NOzawkYGM+wsH7VvPcmUlMYOGpZWe8M24bQKnvuvOD9yZRiAXpx70bdxBivEgefoBzPsrOZqF70YmnEDE613SmKsl0gn6tBzu496dykPVKSQN3cyaRHj3RRsOXYRIyJcPPBzkHzuBVzirGbZmk+ot8b7sJRmYs9B8lAXEye6LMdeLMfjie3kXOs2cwbp45pezfOfBK5iXHqfkKnjEzgReKnIvYmrgw9Hb6I0N4v0tJkxPxwtJ5v2jEuRDtbr22EqLv4rzxsnf5/05u5ohHQO5cVdMJtZv3otSq9+clJoVVw1JxBzX/Lu45MYljmT0sDjZe4Cpqb/JMyzaFaBc38KFw7qG6WS5iD5rFRGBju8CDxHn8qg/s1VpCUxdeC53VfLiieW4M28i2muGPpfiKflWHIKw0Y68X68nS988cS72Gl7tYqDXun2q3n+W8qtOwlgORGMILt4o+XB5K+o+/Bpsonx4Wg5CbVnXIp0tD5NKy716yh+YFuY5mp21o6DDlBTNhUK7mb6s54mD8fLyaY1cRULN6U7L2GJp87s2OQ4B2vKyHNtIHdOuYZukRboqHN74C7cGeRMH0NqW81W2px2TWvZr+bVf8KaZbTBSSBQ+djI0pwRllvM3XFeMokpk2N5OFpOWu0WlyIdzV5x8VHveZtlZMZ55TnQsUSK7eF4OTm1VVxFMp7ConympDnNipaD5KETuH/u1CZ3UkLZ7641x34XI5mzhg1ufvgESWwdcm7fh2dNBV7ndfzo+2fHliiE3F2zf2gTctcunngXu5j2jTTHejXvcBufBERaSnEpJ5CQiou/gkGbXnmWk1K7xFV3+g9KxUlP+pwWqQOdbdTsinwv2NF/EBc6vWx8/+9RBqev57MNn1iegetB6qiryWQz72/6RzMV4nCDSkti6IBze/0nrFlWjTOeY8HRl0EXpsDGDWxqts8GHw2f/Y31lmfgHKmXMymTqPHuH8y8uYHMTz4x7h2JzHo1bz0ftslJAPB9Ssm4FJLGlURudqGhBySidopLkU5hqbh4/tL8ledA2Zkyhyr73TYN2yIh4oirmAXuLDSXqEXpeKTX5Ux77Ca8JQ/x4MpIg3L7aKh+nlm5q3Hm3cGN5hii/grxPyn5zRLcESrTvt2v88QDL6un1oTU/uf2yL2rNqcvrml3keldxN0PvhZ5UO4GD8/OKsTtnMrsG4f6kxDHIEZNGoW3ZDGL3LvDx7tvByufeJIKRjFp1CAlLyZth7YQuJpX/Ajz2+Qk0BjUVDzJ40uso9sfxVu1iHkFdWROulxtlSWy9ohLkU7RWHEpnr2g+SvPjsGMmz4Rp3cVS1f83VJ21lO7spRlFajsFFMccRUHx9DrmZ0HBfMWUl4beHLdR0PtSh6ftwRv1OSpB0NvnuUfTyvrWm639Ujt81bzSkk+16XPxO2cwdP3jGos2wPx736YMbfOpeSVasvdjXpqq0rIv+1uSryxDN4sXVK7ntvN4QqiXWgIwzF0IvMLx+MtyeLi24sot/bE6vNS/cpzzL5uArnuM8h5ejquYOLZg9Rxt5DjrGDBmBzyS16zxLuPhtoqSvJ/SlbJP3EVzuJm84KFKIlrI+bVvHVu3G10EvAX4g9SnA2l00ZyWpLZRXHS10gZ8zA12Qt46mbzKoZIWO0RlyKdxKy4rHOvi3LluTsDJuTydI697DydYVkLVHZKqJjjKh59cd0zh5yaBWQNO92Mv26cNiyLAvdFsSVPyZcw8w9LyXf9098jdcrXzPkk0S0lnQnTCnA7cyiums/EAdaeKLszYOJ8qopzcLoLmDYhnZRulmNgzDQK3GeQXfzLqIM3S1fVnuf21vRw2pu0mYupzM/EW5pLVnoK3QLlb7cU0if81Iy9P/LUxIEhZbBjwASeqlpCtrOCgmnXWeK9G6cNG8O0ggqc2Qt4Jup4dSeXaMWIxCRwNY/42hBHkzyCnEVlVBbn4Qq858ym8OV3cC+azHA1B5JmtVNcinQKs+JCDM18HAOZ+FwFniW2srPMQ/XzU1R2ikUccRUHx4CJPFftoawwG6f5njN7IRU1f2BWjMmTwzmW+ZXVeFb+jjxXYC6N9YCa2ufIGR5uiXsxPOcZqj2redny++DElfc7VnoqeD6kwzRJLO14bg80OW8pxwAy5q+izrOK4rxMywcjyC78E5U179s66wtwkDx8Cs9Xe1j5ciHZlnDHlUfxSpXd4SQZhmHY34xVUlISrfi6nKQUN3KiUCzLiUTxLIlIcSuJpq1iVimtiIiIiIhIAlESJyIiIiIikkCUxImIiIiIiCQQJXEiIiIiIiIJREmciIiIiIhIAlESJyIiIiIikkCUxImIiIiIiCQQJXEiIiIiIiIJREmciIiIiIhIAlESJyIiIiIikkCUxImIiIiIiCSQJMMwDPubsUhKSrK/JSIiIiIiIs1oYfoVosVJnIiIiIiIiHQ8NacUERERERFJIEriREREREREEoiSOBERERERkQSiJE5ERERERCSBKIkTERERERFJIEriREREREREEoiSOBERERERkQSiJE5ERERERCSBKIkTERERERFJIEriREREREREEoiSOBERERERkQSiJE5ERERERCSBKIkTERERERFJIEriREREREREEoiSOBERERERkQTy/wNmrcTIm3ql1gAAAABJRU5ErkJggg==;" vertex="1" parent="1">
          <mxGeometry x="32.454999999999984" y="620" width="659.25" height="110" as="geometry" />
        </mxCell>
      </root>
    </mxGraphModel>
  </diagram>
  <diagram id="OwYINqtRvALdwUqeDE6c" name="Página-5">
    <mxGraphModel dx="574" dy="334" grid="0" gridSize="10" guides="1" tooltips="1" connect="1" arrows="1" fold="1" page="0" pageScale="1" pageWidth="827" pageHeight="1169" math="0" shadow="0">
      <root>
        <mxCell id="0" />
        <mxCell id="1" parent="0" />
        <mxCell id="rgR2faCWiZKc8-SudOkA-1" value="" style="endArrow=classic;html=1;rounded=0;endFill=1;strokeWidth=2;" edge="1" parent="1">
          <mxGeometry width="50" height="50" relative="1" as="geometry">
            <mxPoint x="80" y="400" as="sourcePoint" />
            <mxPoint x="80" y="320" as="targetPoint" />
          </mxGeometry>
        </mxCell>
        <mxCell id="rgR2faCWiZKc8-SudOkA-2" value="" style="endArrow=none;html=1;rounded=0;startArrow=classic;startFill=1;strokeWidth=2;" edge="1" parent="1">
          <mxGeometry width="50" height="50" relative="1" as="geometry">
            <mxPoint x="240" y="400" as="sourcePoint" />
            <mxPoint x="240" y="320" as="targetPoint" />
          </mxGeometry>
        </mxCell>
        <mxCell id="rgR2faCWiZKc8-SudOkA-3" value="" style="endArrow=none;html=1;rounded=0;strokeWidth=2;" edge="1" parent="1">
          <mxGeometry width="50" height="50" relative="1" as="geometry">
            <mxPoint x="80" y="320" as="sourcePoint" />
            <mxPoint x="240" y="320" as="targetPoint" />
          </mxGeometry>
        </mxCell>
        <mxCell id="rgR2faCWiZKc8-SudOkA-4" value="" style="endArrow=none;html=1;rounded=0;strokeWidth=2;" edge="1" parent="1">
          <mxGeometry width="50" height="50" relative="1" as="geometry">
            <mxPoint x="240" y="400" as="sourcePoint" />
            <mxPoint x="360" y="400" as="targetPoint" />
          </mxGeometry>
        </mxCell>
        <mxCell id="rgR2faCWiZKc8-SudOkA-5" value="" style="endArrow=none;html=1;rounded=0;strokeWidth=2;" edge="1" parent="1">
          <mxGeometry width="50" height="50" relative="1" as="geometry">
            <mxPoint x="40" y="400" as="sourcePoint" />
            <mxPoint x="80" y="400" as="targetPoint" />
          </mxGeometry>
        </mxCell>
        <mxCell id="rgR2faCWiZKc8-SudOkA-15" value="" style="endArrow=classic;html=1;rounded=0;endFill=1;strokeWidth=2;" edge="1" parent="1">
          <mxGeometry width="50" height="50" relative="1" as="geometry">
            <mxPoint x="360" y="400" as="sourcePoint" />
            <mxPoint x="360" y="320" as="targetPoint" />
          </mxGeometry>
        </mxCell>
        <mxCell id="rgR2faCWiZKc8-SudOkA-17" value="" style="endArrow=none;html=1;rounded=0;strokeWidth=2;" edge="1" parent="1">
          <mxGeometry width="50" height="50" relative="1" as="geometry">
            <mxPoint x="360" y="320" as="sourcePoint" />
            <mxPoint x="440" y="320" as="targetPoint" />
          </mxGeometry>
        </mxCell>
        <mxCell id="rgR2faCWiZKc8-SudOkA-19" value="" style="endArrow=none;html=1;rounded=0;strokeColor=#666666;" edge="1" parent="1">
          <mxGeometry width="50" height="50" relative="1" as="geometry">
            <mxPoint x="80" y="320" as="sourcePoint" />
            <mxPoint x="80" y="260" as="targetPoint" />
          </mxGeometry>
        </mxCell>
        <mxCell id="rgR2faCWiZKc8-SudOkA-20" value="" style="endArrow=none;html=1;rounded=0;strokeColor=#666666;" edge="1" parent="1">
          <mxGeometry width="50" height="50" relative="1" as="geometry">
            <mxPoint x="240" y="320" as="sourcePoint" />
            <mxPoint x="240" y="260" as="targetPoint" />
          </mxGeometry>
        </mxCell>
        <mxCell id="rgR2faCWiZKc8-SudOkA-21" value="" style="endArrow=none;html=1;rounded=0;strokeColor=#666666;" edge="1" parent="1">
          <mxGeometry width="50" height="50" relative="1" as="geometry">
            <mxPoint x="360" y="320" as="sourcePoint" />
            <mxPoint x="360" y="260" as="targetPoint" />
          </mxGeometry>
        </mxCell>
        <mxCell id="rgR2faCWiZKc8-SudOkA-22" value="" style="endArrow=classic;startArrow=classic;html=1;rounded=0;strokeColor=#666666;" edge="1" parent="1">
          <mxGeometry width="50" height="50" relative="1" as="geometry">
            <mxPoint x="80" y="280" as="sourcePoint" />
            <mxPoint x="240" y="280" as="targetPoint" />
          </mxGeometry>
        </mxCell>
        <mxCell id="rgR2faCWiZKc8-SudOkA-28" value="TSYNC * DC" style="edgeLabel;html=1;align=center;verticalAlign=middle;resizable=0;points=[];" vertex="1" connectable="0" parent="rgR2faCWiZKc8-SudOkA-22">
          <mxGeometry x="-0.6417" relative="1" as="geometry">
            <mxPoint x="51" as="offset" />
          </mxGeometry>
        </mxCell>
        <mxCell id="rgR2faCWiZKc8-SudOkA-23" value="" style="endArrow=classic;startArrow=classic;html=1;rounded=0;strokeColor=#666666;" edge="1" parent="1">
          <mxGeometry width="50" height="50" relative="1" as="geometry">
            <mxPoint x="240" y="280" as="sourcePoint" />
            <mxPoint x="360" y="280" as="targetPoint" />
          </mxGeometry>
        </mxCell>
        <mxCell id="rgR2faCWiZKc8-SudOkA-29" value="TSYNC * (1-DC)" style="edgeLabel;html=1;align=center;verticalAlign=middle;resizable=0;points=[];" vertex="1" connectable="0" parent="rgR2faCWiZKc8-SudOkA-23">
          <mxGeometry x="0.0611" y="-2" relative="1" as="geometry">
            <mxPoint x="-4" y="-2" as="offset" />
          </mxGeometry>
        </mxCell>
        <mxCell id="rgR2faCWiZKc8-SudOkA-24" value="" style="endArrow=none;html=1;rounded=0;strokeColor=#666666;" edge="1" parent="1">
          <mxGeometry width="50" height="50" relative="1" as="geometry">
            <mxPoint x="80" y="460" as="sourcePoint" />
            <mxPoint x="80" y="400" as="targetPoint" />
          </mxGeometry>
        </mxCell>
        <mxCell id="rgR2faCWiZKc8-SudOkA-25" value="" style="endArrow=none;html=1;rounded=0;strokeColor=#666666;" edge="1" parent="1">
          <mxGeometry width="50" height="50" relative="1" as="geometry">
            <mxPoint x="360" y="460" as="sourcePoint" />
            <mxPoint x="360" y="400" as="targetPoint" />
          </mxGeometry>
        </mxCell>
        <mxCell id="rgR2faCWiZKc8-SudOkA-26" value="" style="endArrow=classic;startArrow=classic;html=1;rounded=0;strokeColor=#666666;" edge="1" parent="1">
          <mxGeometry width="50" height="50" relative="1" as="geometry">
            <mxPoint x="80" y="440" as="sourcePoint" />
            <mxPoint x="360" y="440" as="targetPoint" />
          </mxGeometry>
        </mxCell>
        <mxCell id="rgR2faCWiZKc8-SudOkA-27" value="TSYNC" style="edgeLabel;html=1;align=center;verticalAlign=middle;resizable=0;points=[];" vertex="1" connectable="0" parent="rgR2faCWiZKc8-SudOkA-26">
          <mxGeometry x="-0.0762" y="-1" relative="1" as="geometry">
            <mxPoint x="11" as="offset" />
          </mxGeometry>
        </mxCell>
      </root>
    </mxGraphModel>
  </diagram>
</mxfile>
